{
.appVersion = "3066";
classes = (
{
automatic = 1;

glyphs = (
{
color = 6;
glyphname = A;
layers = (
{
anchors = (
{
name = bottom;
position = "{496, 0}";
},
{
name = ogonek;
position = "{853, 10}";
},
{
name = top;
position = "{496, 700}";
}
);
layerId = "2433799C-EF5F-488D-8472-913402CB4D17";
paths = (
{
closed = 1;
nodes = (
"92 0 LINE",
"206 0 LINE",
"439 478 LINE SMOOTH",
"464.333 528.667 OFFCURVE",
"486 572.667 OFFCURVE",
"510 638 CURVE",
"478 637 LINE",
"499.333 573 OFFCURVE",
"520.667 532.667 OFFCURVE",
"546 482 CURVE SMOOTH",
"781 0 LINE",
"900 0 LINE",
"560 700 LINE",
"434 700 LINE",
"92 0 LINE"
);
},
{
closed = 1;
nodes = (
"241 164 LINE",
"501 164 LINE",
"501 268 LINE",
"284 268 LINE",
"241 164 LINE"
);
},
{
closed = 1;
nodes = (
"501 164 LINE",
"716 164 LINE",
"699 268 LINE",
"501 268 LINE",
"501 164 LINE"
);
}
);
width = 992;
},
{
anchors = (
{
name = bottom;
position = "{452, 0}";
},
{
name = ogonek;
position = "{802, 0}";
},
{
name = top;
position = "{452, 700}";
}
);
layerId = "864D5338-6115-41AC-9646-57C28F89FFCE";
paths = (
{
closed = 1;
nodes = (
"92 0 LINE",
"117 0 LINE",
"392 563 LINE SMOOTH",
"413.333 605 OFFCURVE",
"426.833 632 OFFCURVE",
"432.5 644 CURVE SMOOTH",
"438.167 656 OFFCURVE",
"444.667 669.333 OFFCURVE",
"452 684 CURVE",
"449 684 LINE",
"457 669.333 OFFCURVE",
"464.167 655.833 OFFCURVE",
"470.5 643.5 CURVE SMOOTH",
"476.833 631.167 OFFCURVE",
"490 604.667 OFFCURVE",
"510 564 CURVE SMOOTH",
"786 0 LINE",
"812 0 LINE",
"467 700 LINE",
"436 700 LINE",
"92 0 LINE"
);
},
{
closed = 1;
nodes = (
"215 221 LINE",
"446 221 LINE",
"446 243 LINE",
"226 243 LINE",
"215 221 LINE"
);
},
{
closed = 1;
nodes = (
"446 221 LINE",
"691 221 LINE",
"681 243 LINE",
"446 243 LINE",
"446 221 LINE"
);
}
);
width = 903;
},
{
anchors = (
{
name = bottom;
position = "{378, 0}";
},
{
name = ogonek;
position = "{673, 0}";
},
{
name = top;
position = "{378, 700}";
}
);
layerId = "63DD228C-6345-4D3B-AA5B-5B558F8D9FC7";
paths = (
{
closed = 1;
nodes = (
"92 0 LINE",
"118 0 LINE",
"309 503 LINE SMOOTH",
"325.667 547.667 OFFCURVE",
"340.667 587 OFFCURVE",
"354 621 CURVE SMOOTH",
"367.333 655 OFFCURVE",
"375 675.333 OFFCURVE",
"377 682 CURVE",
"376 682 LINE",
"378.667 675.333 OFFCURVE",
"386.667 654.667 OFFCURVE",
"400 620 CURVE SMOOTH",
"413.333 585.333 OFFCURVE",
"428 546.667 OFFCURVE",
"444 504 CURVE SMOOTH",
"637 0 LINE",
"663 0 LINE",
"394 700 LINE",
"361 700 LINE",
"92 0 LINE"
);
},
{
closed = 1;
nodes = (
"192 230 LINE",
"371 230 LINE",
"371 253 LINE",
"200 253 LINE",
"192 230 LINE"
);
},
{
closed = 1;
nodes = (
"371 230 LINE",
"565 230 LINE",
"557 253 LINE",
"371 253 LINE",
"371 230 LINE"
);
}
);
width = 774;
},
{
anchors = (
{
name = bottom;
position = "{415, 0}";
},
{
name = ogonek;
position = "{672, 10}";
},
{
name = top;
position = "{415, 700}";
}
);
layerId = "6D2BDCDA-2583-455F-AF1F-24413162C804";
paths = (
{
closed = 1;
nodes = (
"92 0 LINE",
"202 0 LINE",
"361 418 LINE SMOOTH",
"369 438.667 OFFCURVE",
"380 470.833 OFFCURVE",
"394 514.5 CURVE SMOOTH",
"408 558.167 OFFCURVE",
"419 591 OFFCURVE",
"427 613 CURVE",
"404 612 LINE",
"412 590 OFFCURVE",
"422.833 557.667 OFFCURVE",
"436.5 515 CURVE SMOOTH",
"450.167 472.333 OFFCURVE",
"460.333 441.333 OFFCURVE",
"467 422 CURVE SMOOTH",
"627 0 LINE",
"742 0 LINE",
"473 700 LINE",
"363 700 LINE",
"92 0 LINE"
);
},
{
closed = 1;
nodes = (
"212 174 LINE",
"421 174 LINE",
"421 278 LINE",
"252 278 LINE",
"212 174 LINE"
);
},
{
closed = 1;
nodes = (
"421 174 LINE",
"616 174 LINE",
"570 278 LINE",
"421 278 LINE",
"421 174 LINE"
);
}
);
width = 834;
}
);
leftKerningGroup = A;
rightKerningGroup = A;
unicode = 0041;
},
{
color = 6;
glyphname = AE;
layers = (
{
anchors = (
{
name = bottom;
position = "{711, 0}";
},
{
name = top;
position = "{960, 700}";
}
);
layerId = "2433799C-EF5F-488D-8472-913402CB4D17";
paths = (
{
closed = 1;
nodes = (
"92 0 LINE",
"221 0 LINE",
"711 551 LINE",
"692 562 LINE",
"692 213 LINE",
"710 257 LINE",
"355 257 LINE",
"301 153 LINE",
"715 153 LINE",
"692 166 LINE",
"692 0 LINE",
"1261 0 LINE",
"1261 104 LINE",
"791 104 LINE",
"800 83 LINE",
"800 307 LINE",
"790 293 LINE",
"1216 293 LINE",
"1216 397 LINE",
"792 397 LINE",
"800 380 LINE",
"800 605 LINE",
"791 596 LINE",
"1261 596 LINE",
"1261 700 LINE",
"720 700 LINE",
"92 0 LINE"
);
}
);
width = 1421;
},
{
anchors = (
{
name = bottom;
position = "{711, 0}";
},
{
name = top;
position = "{760, 700}";
}
);
layerId = "864D5338-6115-41AC-9646-57C28F89FFCE";
paths = (
{
closed = 1;
nodes = (
"90 0 LINE",
"121 0 LINE",
"723 678 LINE",
"716 678 LINE",
"716 232 LINE",
"724 238 LINE",
"324 238 LINE",
"303 216 LINE",
"724 216 LINE",
"716 223 LINE",
"716 0 LINE",
"1224 0 LINE",
"1224 22 LINE",
"727 22 LINE",
"738 9 LINE",
"738 346 LINE",
"731 340 LINE",
"1167 340 LINE",
"1167 362 LINE",
"731 362 LINE",
"738 355 LINE",
"738 687 LINE",
"729 678 LINE",
"1224 678 LINE",
"1224 700 LINE",
"711 700 LINE",
"90 0 LINE"
);
}
);
userData = {
com.schriftgestaltung.Glyphs.glyph.rightMetricsKey = E;
};
width = 1374;
},
{
anchors = (
{
name = bottom;
position = "{587, 0}";
},
{
name = top;
position = "{595, 700}";
}
);
layerId = "63DD228C-6345-4D3B-AA5B-5B558F8D9FC7";
paths = (
{
closed = 1;
nodes = (
"90 0 LINE",
"118 0 LINE",
"585 691 LINE",
"576 691 LINE",
"576 220 LINE",
"592 238 LINE",
"268 238 LINE",
"254 216 LINE",
"592 216 LINE",
"576 228 LINE",
"576 0 LINE",
"951 0 LINE",
"951 22 LINE",
"587 22 LINE",
"598 9 LINE",
"598 367 LINE",
"589 350 LINE",
"894 350 LINE",
"894 372 LINE",
"588 372 LINE",
"598 357 LINE",
"598 687 LINE",
"589 678 LINE",
"951 678 LINE",
"951 700 LINE",
"566 700 LINE",
"90 0 LINE"
);
}
);
userData = {
com.schriftgestaltung.Glyphs.glyph.rightMetricsKey = E;
};
width = 1166;
},
{
anchors = (
{
name = bottom;
position = "{497, 0}";
},
{
name = top;
position = "{646, 700}";
}
);
layerId = "6D2BDCDA-2583-455F-AF1F-24413162C804";
paths = (
{
closed = 1;
nodes = (
"92 0 LINE",
"201 0 LINE",
"571 541 LINE",
"552 552 LINE",
"552 213 LINE",
"570 245 LINE",
"315 245 LINE",
"261 153 LINE",
"575 153 LINE",
"552 166 LINE",
"552 0 LINE",
"981 0 LINE",
"981 93 LINE",
"644 93 LINE",
"653 72 LINE",
"653 322 LINE",
"643 308 LINE",
"936 308 LINE",
"936 402 LINE",
"645 402 LINE",
"653 385 LINE",
"653 616 LINE",
"644 607 LINE",
"981 607 LINE",
"981 700 LINE",
"580 700 LINE",
"92 0 LINE"
);
}
);
width = 1141;
}
);
rightMetricsKey = E;
unicode = 00C6;
},
{
color = 6;
glyphname = B;
layers = (
{
anchors = (
{
name = bottom;
position = "{498, 0}";
},
{
name = top;
position = "{498, 700}";
}
);
layerId = "2433799C-EF5F-488D-8472-913402CB4D17";
paths = (
{
closed = 1;
nodes = (
"182 0 LINE",
"590 0 LINE SMOOTH",
"720.667 0 OFFCURVE",
"867 43.333 OFFCURVE",
"867 206 CURVE SMOOTH",
"867 352.667 OFFCURVE",
"715.333 399 OFFCURVE",
"606 399 CURVE",
"605 363 LINE",
"751.667 364.333 OFFCURVE",
"830 433.333 OFFCURVE",
"830 524 CURVE SMOOTH",
"830 637.333 OFFCURVE",
"738.667 700 OFFCURVE",
"564 700 CURVE SMOOTH",
"182 700 LINE",
"182 0 LINE"
);
},
{
closed = 1;
nodes = (
"290 74 LINE",
"290 334 LINE",
"285 311 LINE",
"589 311 LINE SMOOTH",
"665 311 OFFCURVE",
"757 286.667 OFFCURVE",
"757 208 CURVE SMOOTH",
"757 137.333 OFFCURVE",
"688.667 104 OFFCURVE",
"594 104 CURVE SMOOTH",
"284 104 LINE",
"290 74 LINE"
);
},
{
closed = 1;
nodes = (
"290 631 LINE",
"280 596 LINE",
"572 596 LINE SMOOTH",
"654.667 596 OFFCURVE",
"719 572 OFFCURVE",
"719 508 CURVE SMOOTH",
"719 450.667 OFFCURVE",
"656 417.333 OFFCURVE",
"584 416 CURVE SMOOTH",
"281 416 LINE",
"290 399 LINE"
);
}
);
width = 995;
},
{
anchors = (
{
name = bottom;
position = "{499, 0}";
},
{
name = top;
position = "{499, 700}";
}
);
layerId = "864D5338-6115-41AC-9646-57C28F89FFCE";
paths = (
{
closed = 1;
nodes = (
"194 0 LINE",
"584 0 LINE SMOOTH",
"742.667 0 OFFCURVE",
"832 67.333 OFFCURVE",
"832 190 CURVE SMOOTH",
"832 320.667 OFFCURVE",
"732.333 387.333 OFFCURVE",
"555 378 CURVE",
"556 362 LINE",
"709.333 362 OFFCURVE",
"795 423.667 OFFCURVE",
"795 533 CURVE SMOOTH",
"795 639.667 OFFCURVE",
"714 700 OFFCURVE",
"569 700 CURVE SMOOTH",
"194 700 LINE",
"194 0 LINE"
);
},
{
closed = 1;
nodes = (
"216 9 LINE",
"216 366 LINE",
"210 362 LINE",
"578 362 LINE SMOOTH",
"726 362 OFFCURVE",
"809 300.667 OFFCURVE",
"809 190 CURVE SMOOTH",
"807.667 76.667 OFFCURVE",
"723.667 16.667 OFFCURVE",
"573 22 CURVE",
"207 22 LINE",
"216 9 LINE"
);
},
{
closed = 1;
nodes = (
"216 686 LINE",
"209 678 LINE",
"576 678 LINE SMOOTH",
"701.333 678 OFFCURVE",
"772 626 OFFCURVE",
"772 534 CURVE SMOOTH",
"772 438 OFFCURVE",
"705 384 OFFCURVE",
"585 384 CURVE SMOOTH",
"210 384 LINE",
"216 374 LINE"
);
}
);
userData = {
com.schriftgestaltung.Glyphs.glyph.leftMetricsKey = H;
com.schriftgestaltung.Glyphs.glyph.rightMetricsKey = O;
};
width = 967;
},
{
anchors = (
{
name = bottom;
position = "{433, 0}";
},
{
name = top;
position = "{433, 700}";
}
);
layerId = "63DD228C-6345-4D3B-AA5B-5B558F8D9FC7";
paths = (
{
closed = 1;
nodes = (
"194 0 LINE",
"455 0 LINE SMOOTH",
"616.333 0 OFFCURVE",
"681 84 OFFCURVE",
"681 192 CURVE SMOOTH",
"681 296 OFFCURVE",
"602.667 375 OFFCURVE",
"452 375 CURVE",
"449 359 LINE",
"563.667 359 OFFCURVE",
"644 435 OFFCURVE",
"644 531 CURVE SMOOTH",
"644 624.333 OFFCURVE",
"572.667 700 OFFCURVE",
"462 700 CURVE SMOOTH",
"194 700 LINE",
"194 0 LINE"
);
},
{
closed = 1;
nodes = (
"215 13 LINE",
"215 359 LINE",
"209 356 LINE",
"461 356 LINE SMOOTH",
"586.333 356 OFFCURVE",
"658 286.667 OFFCURVE",
"658 188 CURVE SMOOTH",
"658 94.667 OFFCURVE",
"601.333 22 OFFCURVE",
"456 22 CURVE SMOOTH",
"206 22 LINE",
"215 13 LINE"
);
},
{
closed = 1;
nodes = (
"215 691 LINE",
"208 678 LINE",
"459 678 LINE SMOOTH",
"559 678 OFFCURVE",
"621 613.333 OFFCURVE",
"621 532 CURVE SMOOTH",
"621 446.667 OFFCURVE",
"546.667 378 OFFCURVE",
"456 378 CURVE SMOOTH",
"209 378 LINE",
"215 372 LINE"
);
}
);
userData = {
com.schriftgestaltung.Glyphs.glyph.leftMetricsKey = H;
com.schriftgestaltung.Glyphs.glyph.rightMetricsKey = O;
};
width = 871;
},
{
anchors = (
{
name = bottom;
position = "{349, 0}";
},
{
name = top;
position = "{349, 700}";
}
);
layerId = "6D2BDCDA-2583-455F-AF1F-24413162C804";
paths = (
{
closed = 1;
nodes = (
"182 0 LINE",
"484 0 LINE SMOOTH",
"630.667 0 OFFCURVE",
"717 72.667 OFFCURVE",
"717 206 CURVE SMOOTH",
"717 326 OFFCURVE",
"622.667 399 OFFCURVE",
"496 399 CURVE",
"495 363 LINE",
"609.667 364.333 OFFCURVE",
"680 428 OFFCURVE",
"680 524 CURVE SMOOTH",
"680 638.667 OFFCURVE",
"608.667 700 OFFCURVE",
"474 700 CURVE SMOOTH",
"182 700 LINE",
"182 0 LINE"
);
},
{
closed = 1;
nodes = (
"290 84 LINE",
"290 324 LINE",
"285 306 LINE",
"473 306 LINE SMOOTH",
"554.333 306 OFFCURVE",
"607 270.667 OFFCURVE",
"607 208 CURVE SMOOTH",
"607 141.333 OFFCURVE",
"559.333 104 OFFCURVE",
"478 104 CURVE SMOOTH",
"284 104 LINE",
"290 84 LINE"
);
},
{
closed = 1;
nodes = (
"290 621 LINE",
"280 596 LINE",
"456 596 LINE SMOOTH",
"530.667 596 OFFCURVE",
"572 563 OFFCURVE",
"572 503 CURVE SMOOTH",
"572 448.333 OFFCURVE",
"528 411.333 OFFCURVE",
"468 410 CURVE SMOOTH",
"281 410 LINE",
"290 399 LINE"
);
}
);
width = 845;
}
);
leftKerningGroup = H;
leftMetricsKey = H;
rightKerningGroup = B;
rightMetricsKey = O;
unicode = 0042;
},
{
color = 6;
glyphname = C;
layers = (
{
anchors = (
{
name = bottom;
position = "{491, 0}";
},
{
name = top;
position = "{531, 700}";
}
);
layerId = "2433799C-EF5F-488D-8472-913402CB4D17";
paths = (
{
closed = 1;
nodes = (
"670.667 -10 OFFCURVE",
"792.667 57.333 OFFCURVE",
"850 104 CURVE",
"798 194 LINE",
"738 150 OFFCURVE",
"658.667 95 OFFCURVE",
"540 95 CURVE SMOOTH",
"385.333 95 OFFCURVE",
"238 183.333 OFFCURVE",
"238 350 CURVE SMOOTH",
"238 503.333 OFFCURVE",
"380.667 600 OFFCURVE",
"522 600 CURVE SMOOTH",
"632.667 600 OFFCURVE",
"719 556.667 OFFCURVE",
"791 498 CURVE",
"855 589 LINE",
"793.667 646.333 OFFCURVE",
"666.667 706 OFFCURVE",
"532 706 CURVE SMOOTH",
"316 706 OFFCURVE",
"128 555.333 OFFCURVE",
"128 350 CURVE SMOOTH",
"128 132.667 OFFCURVE",
"306.667 -10 OFFCURVE",
"532 -10 CURVE SMOOTH"
);
}
);
width = 981;
},
{
anchors = (
{
name = bottom;
position = "{571, 0}";
},
{
name = top;
position = "{559, 700}";
}
);
layerId = "864D5338-6115-41AC-9646-57C28F89FFCE";
paths = (
{
closed = 1;
nodes = (
"681.667 -10 OFFCURVE",
"786.667 31.667 OFFCURVE",
"860 97 CURVE",
"849 116 LINE",
"777 52 OFFCURVE",
"677.667 12 OFFCURVE",
"559 12 CURVE SMOOTH",
"324.333 12 OFFCURVE",
"158 155.667 OFFCURVE",
"158 349 CURVE SMOOTH",
"158 542.333 OFFCURVE",
"324.333 688 OFFCURVE",
"559 688 CURVE SMOOTH",
"683 688 OFFCURVE",
"788.667 643.333 OFFCURVE",
"858 574 CURVE",
"866 596 LINE",
"792.667 665.333 OFFCURVE",
"685.667 710 OFFCURVE",
"559 710 CURVE SMOOTH",
"308.333 710 OFFCURVE",
"135 554.333 OFFCURVE",
"135 349 CURVE SMOOTH",
"135 143.667 OFFCURVE",
"308.333 -10 OFFCURVE",
"559 -10 CURVE SMOOTH"
);
}
);
userData = {
com.schriftgestaltung.Glyphs.glyph.leftMetricsKey = O;
};
width = 992;
},
{
anchors = (
{
name = bottom;
position = "{478, 0}";
},
{
name = top;
position = "{473, 700}";
}
);
layerId = "63DD228C-6345-4D3B-AA5B-5B558F8D9FC7";
paths = (
{
closed = 1;
nodes = (
"575 -10 OFFCURVE",
"659 23.667 OFFCURVE",
"719 81 CURVE",
"704 99 LINE",
"648 44.333 OFFCURVE",
"569.667 12 OFFCURVE",
"479 12 CURVE SMOOTH",
"293.667 12 OFFCURVE",
"158 151.333 OFFCURVE",
"158 346 CURVE SMOOTH",
"158 543.333 OFFCURVE",
"293.667 688 OFFCURVE",
"479 688 CURVE SMOOTH",
"576.333 688 OFFCURVE",
"658.333 644.667 OFFCURVE",
"717 578 CURVE",
"735 594 LINE",
"672.333 664.667 OFFCURVE",
"584.333 710 OFFCURVE",
"479 710 CURVE SMOOTH",
"277.667 710 OFFCURVE",
"135 558 OFFCURVE",
"135 346 CURVE SMOOTH",
"135 136.667 OFFCURVE",
"277.667 -10 OFFCURVE",
"479 -10 CURVE SMOOTH"
);
}
);
userData = {
com.schriftgestaltung.Glyphs.glyph.leftMetricsKey = O;
};
width = 896;
},
{
anchors = (
{
name = bottom;
position = "{456, 0}";
},
{
name = top;
position = "{451, 700}";
}
);
layerId = "6D2BDCDA-2583-455F-AF1F-24413162C804";
paths = (
{
closed = 1;
nodes = (
"560.667 -10 OFFCURVE",
"663.333 31.333 OFFCURVE",
"710 86 CURVE",
"656 174 LINE",
"610.667 127.333 OFFCURVE",
"546.667 99 OFFCURVE",
"480 99 CURVE SMOOTH",
"336 99 OFFCURVE",
"238 196.667 OFFCURVE",
"238 350 CURVE SMOOTH",
"238 494 OFFCURVE",
"340.333 598 OFFCURVE",
"471 598 CURVE SMOOTH",
"533.667 598 OFFCURVE",
"593.667 568.667 OFFCURVE",
"651 510 CURVE",
"723 585 LINE",
"673.667 655.667 OFFCURVE",
"572.333 706 OFFCURVE",
"471 706 CURVE SMOOTH",
"280.333 706 OFFCURVE",
"128 550 OFFCURVE",
"128 350 CURVE SMOOTH",
"128 138 OFFCURVE",
"267.333 -10 OFFCURVE",
"462 -10 CURVE SMOOTH"
);
}
);
width = 849;
}
);
leftKerningGroup = C;
leftMetricsKey = O;
unicode = 0043;
},
{
color = 6;
glyphname = D;
layers = (
{
anchors = (
{
name = bottom;
position = "{486, 0}";
},
{
name = center;
position = "{247, 350}";
},
{
name = top;
position = "{486, 700}";
}
);
layerId = "2433799C-EF5F-488D-8472-913402CB4D17";
paths = (
{
closed = 1;
nodes = (
"182 0 LINE",
"536 0 LINE SMOOTH",
"793.333 0 OFFCURVE",
"929 158 OFFCURVE",
"929 350 CURVE SMOOTH",
"929 539.333 OFFCURVE",
"793.333 700 OFFCURVE",
"536 700 CURVE SMOOTH",
"182 700 LINE",
"182 0 LINE"
);
},
{
closed = 1;
nodes = (
"290 93 LINE",
"290 605 LINE",
"284 596 LINE",
"531 596 LINE SMOOTH",
"729.667 596 OFFCURVE",
"814 482 OFFCURVE",
"814 350 CURVE SMOOTH",
"814 215.333 OFFCURVE",
"729.667 104 OFFCURVE",
"531 104 CURVE SMOOTH",
"287 104 LINE",
"290 93 LINE"
);
}
);
width = 1057;
},
{
anchors = (
{
name = bottom;
position = "{466, 0}";
},
{
name = center;
position = "{247, 350}";
},
{
name = top;
position = "{466, 700}";
}
);
layerId = "864D5338-6115-41AC-9646-57C28F89FFCE";
paths = (
{
closed = 1;
nodes = (
"194 0 LINE",
"521 0 LINE SMOOTH",
"747.667 0 OFFCURVE",
"911 146 OFFCURVE",
"911 350 CURVE SMOOTH",
"911 554 OFFCURVE",
"747.667 700 OFFCURVE",
"521 700 CURVE SMOOTH",
"194 700 LINE",
"194 0 LINE"
);
},
{
closed = 1;
nodes = (
"216 13 LINE",
"216 689 LINE",
"205 678 LINE",
"516 678 LINE SMOOTH",
"732 678 OFFCURVE",
"888 540.667 OFFCURVE",
"888 350 CURVE SMOOTH",
"888 159.333 OFFCURVE",
"732 22 OFFCURVE",
"516 22 CURVE SMOOTH",
"206 22 LINE",
"216 13 LINE"
);
}
);
userData = {
com.schriftgestaltung.Glyphs.glyph.leftMetricsKey = H;
com.schriftgestaltung.Glyphs.glyph.rightMetricsKey = O;
};
width = 1046;
},
{
anchors = (
{
name = bottom;
position = "{419, 0}";
},
{
name = center;
position = "{231, 350}";
},
{
name = top;
position = "{409, 700}";
}
);
layerId = "63DD228C-6345-4D3B-AA5B-5B558F8D9FC7";
paths = (
{
closed = 1;
nodes = (
"194 0 LINE",
"441 0 LINE SMOOTH",
"611.667 0 OFFCURVE",
"766 148.667 OFFCURVE",
"766 350 CURVE SMOOTH",
"766 552.667 OFFCURVE",
"611.667 700 OFFCURVE",
"441 700 CURVE SMOOTH",
"194 700 LINE",
"194 0 LINE"
);
},
{
closed = 1;
nodes = (
"216 13 LINE",
"216 689 LINE",
"205 678 LINE",
"436 678 LINE SMOOTH",
"597.333 678 OFFCURVE",
"743 536.667 OFFCURVE",
"743 350 CURVE SMOOTH",
"743 164.667 OFFCURVE",
"597.333 22 OFFCURVE",
"436 22 CURVE SMOOTH",
"206 22 LINE",
"216 13 LINE"
);
}
);
userData = {
com.schriftgestaltung.Glyphs.glyph.leftMetricsKey = H;
com.schriftgestaltung.Glyphs.glyph.rightMetricsKey = O;
};
width = 956;
},
{
anchors = (
{
name = bottom;
position = "{379, 0}";
},
{
name = center;
position = "{147, 350}";
},
{
name = top;
position = "{369, 700}";
}
);
layerId = "6D2BDCDA-2583-455F-AF1F-24413162C804";
paths = (
{
closed = 1;
nodes = (
"182 0 LINE",
"456 0 LINE SMOOTH",
"657.333 0 OFFCURVE",
"784 140.667 OFFCURVE",
"784 350 CURVE SMOOTH",
"784 558 OFFCURVE",
"656 700 OFFCURVE",
"456 700 CURVE SMOOTH",
"182 700 LINE",
"182 0 LINE"
);
},
{
closed = 1;
nodes = (
"290 93 LINE",
"290 605 LINE",
"284 596 LINE",
"451 596 LINE SMOOTH",
"591 596 OFFCURVE",
"674 502 OFFCURVE",
"674 350 CURVE SMOOTH",
"674 196.667 OFFCURVE",
"592.333 104 OFFCURVE",
"451 104 CURVE SMOOTH",
"287 104 LINE",
"290 93 LINE"
);
}
);
width = 912;
}
);
leftKerningGroup = H;
leftMetricsKey = H;
rightKerningGroup = D;
rightMetricsKey = O;
unicode = 0044;
},
{
color = 6;
glyphname = E;
layers = (
{
anchors = (
{
name = bottom;
position = "{462, 0}";
},
{
name = ogonek;
position = "{767, 10}";
},
{
name = top;
position = "{462, 700}";
},
{
name = topleft;
position = "{20, 700}";
}
);
layerId = "2433799C-EF5F-488D-8472-913402CB4D17";
paths = (
{
closed = 1;
nodes = (
"182 0 LINE",
"290 0 LINE",
"290 700 LINE",
"182 700 LINE",
"182 0 LINE"
);
},
{
closed = 1;
nodes = (
"230 0 LINE",
"763 0 LINE",
"763 104 LINE",
"230 104 LINE",
"230 0 LINE"
);
},
{
closed = 1;
nodes = (
"241 307 LINE",
"708 307 LINE",
"708 411 LINE",
"241 411 LINE",
"241 307 LINE"
);
},
{
closed = 1;
nodes = (
"232 596 LINE",
"763 596 LINE",
"763 700 LINE",
"232 700 LINE",
"232 596 LINE"
);
}
);
width = 923;
},
{
anchors = (
{
name = bottom;
position = "{462, 0}";
},
{
name = ogonek;
position = "{713, 0}";
},
{
name = top;
position = "{462, 700}";
},
{
name = topleft;
position = "{20, 700}";
}
);
layerId = "864D5338-6115-41AC-9646-57C28F89FFCE";
paths = (
{
closed = 1;
nodes = (
"194 0 LINE",
"216 0 LINE",
"216 700 LINE",
"194 700 LINE",
"194 0 LINE"
);
},
{
closed = 1;
nodes = (
"207 0 LINE",
"719 0 LINE",
"719 22 LINE",
"207 22 LINE",
"207 0 LINE"
);
},
{
closed = 1;
nodes = (
"206 351 LINE",
"667 351 LINE",
"667 373 LINE",
"206 373 LINE",
"206 351 LINE"
);
},
{
closed = 1;
nodes = (
"208 678 LINE",
"725 678 LINE",
"725 700 LINE",
"208 700 LINE",
"208 678 LINE"
);
}
);
userData = {
com.schriftgestaltung.Glyphs.glyph.leftMetricsKey = H;
};
width = 875;
},
{
anchors = (
{
name = bottom;
position = "{386, 0}";
},
{
name = ogonek;
position = "{583, 0}";
},
{
name = top;
position = "{381, 700}";
},
{
name = topleft;
position = "{130, 700}";
}
);
layerId = "63DD228C-6345-4D3B-AA5B-5B558F8D9FC7";
paths = (
{
closed = 1;
nodes = (
"194 0 LINE",
"216 0 LINE",
"216 700 LINE",
"194 700 LINE",
"194 0 LINE"
);
},
{
closed = 1;
nodes = (
"208 0 LINE",
"579 0 LINE",
"579 22 LINE",
"208 22 LINE",
"208 0 LINE"
);
},
{
closed = 1;
nodes = (
"207 351 LINE",
"527 351 LINE",
"527 373 LINE",
"207 373 LINE",
"207 351 LINE"
);
},
{
closed = 1;
nodes = (
"207 678 LINE",
"585 678 LINE",
"585 700 LINE",
"207 700 LINE",
"207 678 LINE"
);
}
);
userData = {
com.schriftgestaltung.Glyphs.glyph.leftMetricsKey = H;
};
width = 800;
},
{
anchors = (
{
name = bottom;
position = "{409, 0}";
},
{
name = ogonek;
position = "{631, 10}";
},
{
name = top;
position = "{404, 700}";
},
{
name = topleft;
position = "{46, 700}";
}
);
layerId = "6D2BDCDA-2583-455F-AF1F-24413162C804";
paths = (
{
closed = 1;
nodes = (
"182 0 LINE",
"290 0 LINE",
"290 700 LINE",
"182 700 LINE",
"182 0 LINE"
);
},
{
closed = 1;
nodes = (
"231 0 LINE",
"623 0 LINE",
"623 104 LINE",
"231 104 LINE",
"231 0 LINE"
);
},
{
closed = 1;
nodes = (
"231 307 LINE",
"568 307 LINE",
"568 411 LINE",
"231 411 LINE",
"231 307 LINE"
);
},
{
closed = 1;
nodes = (
"231 596 LINE",
"623 596 LINE",
"623 700 LINE",
"231 700 LINE",
"231 596 LINE"
);
}
);
width = 783;
}
);
leftKerningGroup = H;
leftMetricsKey = H;
rightKerningGroup = E;
unicode = 0045;
},
{
color = 6;
glyphname = F;
layers = (
{
layerId = "2433799C-EF5F-488D-8472-913402CB4D17";
paths = (
{
closed = 1;
nodes = (
"182 0 LINE",
"290 0 LINE",
"290 700 LINE",
"182 700 LINE",
"182 0 LINE"
);
},
{
closed = 1;
nodes = (
"218 288 LINE",
"711 288 LINE",
"711 392 LINE",
"218 392 LINE",
"218 288 LINE"
);
},
{
closed = 1;
nodes = (
"232 596 LINE",
"756 596 LINE",
"756 700 LINE",
"232 700 LINE",
"232 596 LINE"
);
}
);
width = 896;
},
{
layerId = "864D5338-6115-41AC-9646-57C28F89FFCE";
paths = (
{
closed = 1;
nodes = (
"194 0 LINE",
"216 0 LINE",
"216 700 LINE",
"194 700 LINE",
"194 0 LINE"
);
},
{
closed = 1;
nodes = (
"204 331 LINE",
"648 331 LINE",
"648 353 LINE",
"204 353 LINE",
"204 331 LINE"
);
},
{
closed = 1;
nodes = (
"209 678 LINE",
"705 678 LINE",
"705 700 LINE",
"209 700 LINE",
"209 678 LINE"
);
}
);
userData = {
com.schriftgestaltung.Glyphs.glyph.leftMetricsKey = H;
};
width = 869;
},
{
layerId = "63DD228C-6345-4D3B-AA5B-5B558F8D9FC7";
paths = (
{
closed = 1;
nodes = (
"194 0 LINE",
"216 0 LINE",
"216 700 LINE",
"194 700 LINE",
"194 0 LINE"
);
},
{
closed = 1;
nodes = (
"206 341 LINE",
"528 341 LINE",
"528 363 LINE",
"206 363 LINE",
"206 341 LINE"
);
},
{
closed = 1;
nodes = (
"207 678 LINE",
"585 678 LINE",
"585 700 LINE",
"207 700 LINE",
"207 678 LINE"
);
}
);
userData = {
com.schriftgestaltung.Glyphs.glyph.leftMetricsKey = H;
};
width = 823;
},
{
layerId = "6D2BDCDA-2583-455F-AF1F-24413162C804";
paths = (
{
closed = 1;
nodes = (
"182 0 LINE",
"290 0 LINE",
"290 700 LINE",
"182 700 LINE",
"182 0 LINE"
);
},
{
closed = 1;
nodes = (
"230 298 LINE",
"591 298 LINE",
"591 402 LINE",
"230 402 LINE",
"230 298 LINE"
);
},
{
closed = 1;
nodes = (
"230 596 LINE",
"636 596 LINE",
"636 700 LINE",
"230 700 LINE",
"230 596 LINE"
);
}
);
width = 776;
}
);
leftKerningGroup = H;
leftMetricsKey = H;
rightKerningGroup = F;
unicode = 0046;
},
{
color = 6;
glyphname = G;
layers = (
{
anchors = (
{
name = bottom;
position = "{541, 0}";
},
{
name = top;
position = "{541, 700}";
}
);
layerId = "2433799C-EF5F-488D-8472-913402CB4D17";
paths = (
{
closed = 1;
nodes = (
"790.872 -10 OFFCURVE",
"962 91.912 OFFCURVE",
"962 303 CURVE SMOOTH",
"962 310.333 OFFCURVE",
"961.5 318 OFFCURVE",
"960.5 326 CURVE SMOOTH",
"959.5 334 OFFCURVE",
"958.667 341.667 OFFCURVE",
"958 349 CURVE",
"558 349 LINE",
"558 244 LINE",
"857 244 LINE",
"841 266 LINE",
"842 253 LINE SMOOTH",
"842 161 OFFCURVE",
"715.667 95 OFFCURVE",
"553 95 CURVE SMOOTH",
"394.333 95 OFFCURVE",
"243 172.667 OFFCURVE",
"243 350 CURVE SMOOTH",
"243 492.667 OFFCURVE",
"381.333 601 OFFCURVE",
"560 601 CURVE SMOOTH",
"660 601 OFFCURVE",
"750 562.667 OFFCURVE",
"822 508 CURVE",
"892 587 LINE",
"834.667 648.333 OFFCURVE",
"710.667 706 OFFCURVE",
"560 706 CURVE SMOOTH",
"318.667 706 OFFCURVE",
"128 551.333 OFFCURVE",
"128 350 CURVE SMOOTH",
"128 112.667 OFFCURVE",
"322.667 -10 OFFCURVE",
"544 -10 CURVE SMOOTH"
);
}
);
width = 1082;
},
{
anchors = (
{
name = bottom;
position = "{541, 0}";
},
{
name = top;
position = "{541, 700}";
}
);
layerId = "864D5338-6115-41AC-9646-57C28F89FFCE";
paths = (
{
closed = 1;
nodes = (
"793.667 -10 OFFCURVE",
"961 149 OFFCURVE",
"961 337 CURVE SMOOTH",
"961 339 OFFCURVE",
"961 340.833 OFFCURVE",
"961 342.5 CURVE SMOOTH",
"961 344.167 OFFCURVE",
"961 346 OFFCURVE",
"961 348 CURVE",
"559 348 LINE",
"559 326 LINE",
"950 326 LINE",
"939 337 LINE",
"939 329 LINE SMOOTH",
"939 165 OFFCURVE",
"777.667 12 OFFCURVE",
"559 12 CURVE SMOOTH",
"324.333 12 OFFCURVE",
"158 155.667 OFFCURVE",
"158 349 CURVE SMOOTH",
"158 542.333 OFFCURVE",
"324.333 688 OFFCURVE",
"559 688 CURVE SMOOTH",
"683 688 OFFCURVE",
"788.667 643.333 OFFCURVE",
"858 574 CURVE",
"866 596 LINE",
"792.667 665.333 OFFCURVE",
"685.667 710 OFFCURVE",
"559 710 CURVE SMOOTH",
"308.333 710 OFFCURVE",
"135 554.333 OFFCURVE",
"135 349 CURVE SMOOTH",
"135 143.667 OFFCURVE",
"308.333 -10 OFFCURVE",
"559 -10 CURVE SMOOTH"
);
}
);
userData = {
com.schriftgestaltung.Glyphs.glyph.leftMetricsKey = O;
};
width = 1083;
},
{
anchors = (
{
name = bottom;
position = "{493, 0}";
},
{
name = top;
position = "{480, 700}";
}
);
layerId = "63DD228C-6345-4D3B-AA5B-5B558F8D9FC7";
paths = (
{
closed = 1;
nodes = (
"678.667 -10 OFFCURVE",
"802 111 OFFCURVE",
"802 339 CURVE SMOOTH",
"802 343 OFFCURVE",
"802 346.167 OFFCURVE",
"802 348.5 CURVE SMOOTH",
"802 350.833 OFFCURVE",
"802 354 OFFCURVE",
"802 358 CURVE",
"489 358 LINE",
"489 336 LINE",
"785 336 LINE",
"779 341 LINE",
"779 322 LINE SMOOTH",
"779 138 OFFCURVE",
"672 12 OFFCURVE",
"480 12 CURVE SMOOTH",
"294.667 12 OFFCURVE",
"158 151.333 OFFCURVE",
"158 346 CURVE SMOOTH",
"158 543.333 OFFCURVE",
"293.667 688 OFFCURVE",
"479 688 CURVE SMOOTH",
"584.333 688 OFFCURVE",
"673.667 640 OFFCURVE",
"731 564 CURVE",
"748 580 LINE",
"684 658.667 OFFCURVE",
"592.333 710 OFFCURVE",
"479 710 CURVE SMOOTH",
"277.667 710 OFFCURVE",
"135 558 OFFCURVE",
"135 346 CURVE SMOOTH",
"135 136.667 OFFCURVE",
"278.667 -10 OFFCURVE",
"480 -10 CURVE SMOOTH"
);
}
);
userData = {
com.schriftgestaltung.Glyphs.glyph.leftMetricsKey = O;
};
width = 969;
},
{
anchors = (
{
name = bottom;
position = "{489, 0}";
},
{
name = top;
position = "{476, 700}";
}
);
layerId = "6D2BDCDA-2583-455F-AF1F-24413162C804";
paths = (
{
closed = 1;
nodes = (
"665.667 -10 OFFCURVE",
"803 115 OFFCURVE",
"803 299 CURVE SMOOTH",
"803 317.667 OFFCURVE",
"802 336.333 OFFCURVE",
"798 359 CURVE",
"488 359 LINE",
"488 252 LINE",
"702 252 LINE",
"687 266 LINE",
"687 246 LINE SMOOTH",
"687 162 OFFCURVE",
"599.333 95 OFFCURVE",
"494 95 CURVE SMOOTH",
"354 95 OFFCURVE",
"238 210 OFFCURVE",
"238 350 CURVE SMOOTH",
"238 492.667 OFFCURVE",
"347.333 601 OFFCURVE",
"490 601 CURVE SMOOTH",
"556.667 601 OFFCURVE",
"622 571.333 OFFCURVE",
"682 514 CURVE",
"752 587 LINE",
"700 657.667 OFFCURVE",
"596.667 706 OFFCURVE",
"490 706 CURVE SMOOTH",
"286 706 OFFCURVE",
"128 551.333 OFFCURVE",
"128 350 CURVE SMOOTH",
"128 147.333 OFFCURVE",
"287 -10 OFFCURVE",
"491 -10 CURVE SMOOTH"
);
}
);
width = 923;
}
);
leftKerningGroup = C;
leftMetricsKey = O;
rightKerningGroup = G;
unicode = 0047;
},
{
color = 6;
glyphname = H;
layers = (
{
anchors = (
{
name = bottom;
position = "{545, 0}";
},
{
name = center;
position = "{545, 350}";
},
{
name = top;
position = "{545, 700}";
},
{
name = topleft;
position = "{20, 700}";
}
);
layerId = "2433799C-EF5F-488D-8472-913402CB4D17";
paths = (
{
closed = 1;
nodes = (
"779 0 LINE",
"887 0 LINE",
"887 700 LINE",
"779 700 LINE",
"779 0 LINE"
);
},
{
closed = 1;
nodes = (
"182 0 LINE",
"290 0 LINE",
"290 700 LINE",
"182 700 LINE",
"182 0 LINE"
);
},
{
closed = 1;
nodes = (
"229 293 LINE",
"827 293 LINE",
"827 397 LINE",
"230 397 LINE",
"229 293 LINE"
);
}
);
width = 1069;
},
{
anchors = (
{
name = bottom;
position = "{524, 0}";
},
{
name = center;
position = "{524, 350}";
},
{
name = top;
position = "{524, 700}";
},
{
name = topleft;
position = "{20, 700}";
}
);
layerId = "864D5338-6115-41AC-9646-57C28F89FFCE";
paths = (
{
closed = 1;
nodes = (
"823 0 LINE",
"845 0 LINE",
"845 700 LINE",
"823 700 LINE",
"823 0 LINE"
);
},
{
closed = 1;
nodes = (
"194 0 LINE",
"216 0 LINE",
"216 700 LINE",
"194 700 LINE",
"194 0 LINE"
);
},
{
closed = 1;
nodes = (
"205 334 LINE",
"834 334 LINE",
"834 356 LINE",
"206 356 LINE",
"205 334 LINE"
);
}
);
width = 1040;
},
{
anchors = (
{
name = bottom;
position = "{455, 0}";
},
{
name = center;
position = "{455, 350}";
},
{
name = top;
position = "{455, 700}";
},
{
name = topleft;
position = "{120, 700}";
}
);
layerId = "63DD228C-6345-4D3B-AA5B-5B558F8D9FC7";
paths = (
{
closed = 1;
nodes = (
"683 0 LINE",
"705 0 LINE",
"705 700 LINE",
"683 700 LINE",
"683 0 LINE"
);
},
{
closed = 1;
nodes = (
"194 0 LINE",
"216 0 LINE",
"216 700 LINE",
"194 700 LINE",
"194 0 LINE"
);
},
{
closed = 1;
nodes = (
"205 338 LINE",
"694 338 LINE",
"694 360 LINE",
"205 360 LINE",
"205 338 LINE"
);
}
);
width = 1011;
},
{
anchors = (
{
name = bottom;
position = "{465, 0}";
},
{
name = center;
position = "{465, 350}";
},
{
name = top;
position = "{465, 700}";
},
{
name = topleft;
position = "{36, 700}";
}
);
layerId = "6D2BDCDA-2583-455F-AF1F-24413162C804";
paths = (
{
closed = 1;
nodes = (
"639 0 LINE",
"747 0 LINE",
"747 700 LINE",
"639 700 LINE",
"639 0 LINE"
);
},
{
closed = 1;
nodes = (
"182 0 LINE",
"290 0 LINE",
"290 700 LINE",
"182 700 LINE",
"182 0 LINE"
);
},
{
closed = 1;
nodes = (
"229 297 LINE",
"687 297 LINE",
"687 401 LINE",
"229 401 LINE",
"229 297 LINE"
);
}
);
width = 929;
}
);
leftKerningGroup = H;
rightKerningGroup = H;
unicode = 0048;
},
{
color = 0;
glyphname = Hbar;
layers = (
{
anchors = (
{
name = bottom;
position = "{593, 0}";
},
{
name = center;
position = "{593, 350}";
},
{
name = top;
position = "{593, 700}";
},
{
name = topleft;
position = "{68, 700}";
}
);
layerId = "2433799C-EF5F-488D-8472-913402CB4D17";
paths = (
{
closed = 1;
nodes = (
"87 468 LINE",
"233 468 LINE",
"279 478 LINE",
"906 478 LINE",
"937 468 LINE",
"1109 468 LINE",
"1109 572 LINE",
"930 572 LINE",
"894 562 LINE",
"289 562 LINE",
"243 572 LINE",
"87 572 LINE",
"87 468 LINE"
);
},
{
closed = 1;
nodes = (
"230 0 LINE",
"338 0 LINE",
"338 700 LINE",
"230 700 LINE",
"230 0 LINE"
);
},
{
closed = 1;
nodes = (
"277 293 LINE",
"875 293 LINE",
"875 397 LINE",
"278 397 LINE",
"277 293 LINE"
);
},
{
closed = 1;
nodes = (
"827 0 LINE",
"935 0 LINE",
"935 700 LINE",
"827 700 LINE",
"827 0 LINE"
);
}
);
width = 1196;
},
{
anchors = (
{
name = bottom;
position = "{593, 0}";
},
{
name = center;
position = "{593, 350}";
},
{
name = top;
position = "{593, 700}";
},
{
name = topleft;
position = "{68, 700}";
}
);
layerId = "864D5338-6115-41AC-9646-57C28F89FFCE";
paths = (
{
closed = 1;
nodes = (
"54 541 LINE",
"180 541 LINE",
"197 541 LINE",
"887 541 LINE",
"902 541 LINE",
"1015 541 LINE",
"1015 562 LINE",
"902 562 LINE",
"887 562 LINE",
"197 562 LINE",
"180 562 LINE",
"54 562 LINE",
"54 541 LINE"
);
},
{
closed = 1;
nodes = (
"194 0 LINE",
"216 0 LINE",
"216 700 LINE",
"194 700 LINE",
"194 0 LINE"
);
},
{
closed = 1;
nodes = (
"205 334 LINE",
"834 334 LINE",
"834 356 LINE",
"206 356 LINE",
"205 334 LINE"
);
},
{
closed = 1;
nodes = (
"823 0 LINE",
"845 0 LINE",
"845 700 LINE",
"823 700 LINE",
"823 0 LINE"
);
}
);
width = 1070;
},
{
anchors = (
{
name = bottom;
position = "{454, 0}";
},
{
name = center;
position = "{454, 350}";
},
{
name = top;
position = "{454, 700}";
},
{
name = topleft;
position = "{114, 700}";
}
);
layerId = "63DD228C-6345-4D3B-AA5B-5B558F8D9FC7";
paths = (
{
closed = 1;
nodes = (
"629 0 LINE",
"651 0 LINE",
"651 700 LINE",
"629 700 LINE",
"629 0 LINE"
);
},
{
closed = 1;
nodes = (
"140 0 LINE",
"162 0 LINE",
"162 700 LINE",
"140 700 LINE",
"140 0 LINE"
);
},
{
closed = 1;
nodes = (
"151 338 LINE",
"640 338 LINE",
"640 360 LINE",
"151 360 LINE",
"151 338 LINE"
);
},
{
closed = 1;
nodes = (
"54 541 LINE",
"140 541 LINE",
"157 541 LINE",
"636 541 LINE",
"651 541 LINE",
"736 541 LINE",
"736 562 LINE",
"651 562 LINE",
"636 562 LINE",
"157 562 LINE",
"140 562 LINE",
"54 562 LINE",
"54 541 LINE"
);
}
);
width = 816;
},
{
anchors = (
{
name = bottom;
position = "{424, 0}";
},
{
name = center;
position = "{424, 350}";
},
{
name = top;
position = "{424, 700}";
},
{
name = topleft;
position = "{84, 700}";
}
);
layerId = "6D2BDCDA-2583-455F-AF1F-24413162C804";
paths = (
{
closed = 1;
nodes = (
"87 468 LINE",
"193 468 LINE",
"239 478 LINE",
"655 478 LINE",
"686 468 LINE",
"830 468 LINE",
"830 572 LINE",
"679 572 LINE",
"643 562 LINE",
"249 562 LINE",
"203 572 LINE",
"87 572 LINE",
"87 468 LINE"
);
},
{
closed = 1;
nodes = (
"176 0 LINE",
"284 0 LINE",
"284 700 LINE",
"176 700 LINE",
"176 0 LINE"
);
},
{
closed = 1;
nodes = (
"223 297 LINE",
"681 297 LINE",
"681 401 LINE",
"223 401 LINE",
"223 297 LINE"
);
},
{
closed = 1;
nodes = (
"633 0 LINE",
"741 0 LINE",
"741 700 LINE",
"633 700 LINE",
"633 0 LINE"
);
}
);
width = 917;
}
);
unicode = 0126;
},
{
color = 6;
glyphname = I;
layers = (
{
anchors = (
{
name = bottom;
position = "{427, 0}";
},
{
name = ogonek;
position = "{672, 10}";
},
{
name = top;
position = "{427, 700}";
},
{
name = topleft;
position = "{20, 700}";
}
);
layerId = "2433799C-EF5F-488D-8472-913402CB4D17";
paths = (
{
closed = 1;
nodes = (
"373 0 LINE",
"481 0 LINE",
"481 700 LINE",
"457 700 OFFCURVE",
"439 700 OFFCURVE",
"427 700 CURVE SMOOTH",
"415 700 OFFCURVE",
"397 700 OFFCURVE",
"373 700 CURVE",
"373 0 LINE"
);
},
{
closed = 1;
nodes = (
"190 0 LINE",
"664 0 LINE",
"664 107 LINE",
"190 107 LINE",
"190 0 LINE"
);
},
{
closed = 1;
nodes = (
"190 593 LINE",
"664 593 LINE",
"664 700 LINE",
"190 700 LINE",
"190 593 LINE"
);
}
);
width = 854;
},
{
anchors = (
{
name = bottom;
position = "{381, 0}";
},
{
name = ogonek;
position = "{587, 0}";
},
{
name = top;
position = "{381, 700}";
},
{
name = topleft;
position = "{20, 700}";
}
);
layerId = "864D5338-6115-41AC-9646-57C28F89FFCE";
paths = (
{
closed = 1;
nodes = (
"370 0 LINE",
"392 0 LINE",
"392 700 LINE",
"367.333 700 OFFCURVE",
"363.667 700 OFFCURVE",
"381 700 CURVE SMOOTH",
"398.333 700 OFFCURVE",
"394.667 700 OFFCURVE",
"370 700 CURVE",
"370 0 LINE"
);
},
{
closed = 1;
nodes = (
"168 0 LINE",
"594 0 LINE",
"594 22 LINE",
"168 22 LINE",
"168 0 LINE"
);
},
{
closed = 1;
nodes = (
"168 678 LINE",
"594 678 LINE",
"594 700 LINE",
"168 700 LINE",
"168 678 LINE"
);
}
);
width = 762;
},
{
anchors = (
{
name = bottom;
position = "{311, 0}";
},
{
name = ogonek;
position = "{458, 0}";
},
{
name = top;
position = "{311, 700}";
},
{
name = topleft;
position = "{209, 700}";
}
);
layerId = "63DD228C-6345-4D3B-AA5B-5B558F8D9FC7";
paths = (
{
closed = 1;
nodes = (
"300 0 LINE",
"322 0 LINE",
"322 700 LINE",
"303.333 700 OFFCURVE",
"299.667 700 OFFCURVE",
"311 700 CURVE SMOOTH",
"322.333 700 OFFCURVE",
"318.667 700 OFFCURVE",
"300 700 CURVE",
"300 0 LINE"
);
},
{
closed = 1;
nodes = (
"168 0 LINE",
"454 0 LINE",
"454 22 LINE",
"168 22 LINE",
"168 0 LINE"
);
},
{
closed = 1;
nodes = (
"168 678 LINE",
"454 678 LINE",
"454 700 LINE",
"168 700 LINE",
"168 678 LINE"
);
}
);
width = 672;
},
{
anchors = (
{
name = bottom;
position = "{358, 0}";
},
{
name = ogonek;
position = "{531, 10}";
},
{
name = top;
position = "{358, 700}";
},
{
name = topleft;
position = "{123, 700}";
}
);
layerId = "6D2BDCDA-2583-455F-AF1F-24413162C804";
paths = (
{
closed = 1;
nodes = (
"303 0 LINE",
"411 0 LINE",
"411 700 LINE",
"393 700 OFFCURVE",
"375 700 OFFCURVE",
"357 700 CURVE SMOOTH",
"339 700 OFFCURVE",
"321 700 OFFCURVE",
"303 700 CURVE",
"303 0 LINE"
);
},
{
closed = 1;
nodes = (
"190 0 LINE",
"524 0 LINE",
"524 100 LINE",
"190 100 LINE",
"190 0 LINE"
);
},
{
closed = 1;
nodes = (
"190 600 LINE",
"524 600 LINE",
"524 700 LINE",
"190 700 LINE",
"190 600 LINE"
);
}
);
width = 714;
}
);
unicode = 0049;
},
{
color = 6;
glyphname = J;
layers = (
{
anchors = (
{
name = bottom;
position = "{441, 0}";
},
{
name = top;
position = "{632, 700}";
}
);
layerId = "2433799C-EF5F-488D-8472-913402CB4D17";
paths = (
{
closed = 1;
nodes = (
"591.667 -10 OFFCURVE",
"699 129 OFFCURVE",
"699 273 CURVE SMOOTH",
"699 700 LINE",
"591 700 LINE",
"591 283 LINE SMOOTH",
"591 176.333 OFFCURVE",
"518.333 90 OFFCURVE",
"401 90 CURVE SMOOTH",
"295.667 90 OFFCURVE",
"246.333 156.333 OFFCURVE",
"197 223 CURVE",
"125 147 LINE",
"146.333 109.667 OFFCURVE",
"230.333 -10 OFFCURVE",
"401 -10 CURVE SMOOTH"
);
},
{
closed = 1;
nodes = (
"417 593 LINE",
"831 593 LINE",
"831 700 LINE",
"417 700 LINE",
"417 593 LINE"
);
}
);
width = 881;
},
{
anchors = (
{
name = bottom;
position = "{441, 0}";
},
{
name = top;
position = "{632, 700}";
}
);
layerId = "864D5338-6115-41AC-9646-57C28F89FFCE";
paths = (
{
closed = 1;
nodes = (
"522 -10 OFFCURVE",
"618 94.333 OFFCURVE",
"618 273 CURVE SMOOTH",
"618 700 LINE",
"596 700 LINE",
"596 273 LINE SMOOTH",
"596 103.667 OFFCURVE",
"498.667 13 OFFCURVE",
"356 13 CURVE SMOOTH",
"250.667 13 OFFCURVE",
"161.333 80.333 OFFCURVE",
"124 167 CURVE",
"105 150 LINE",
"139.667 67.333 OFFCURVE",
"236.667 -10 OFFCURVE",
"354 -10 CURVE SMOOTH"
);
},
{
closed = 1;
nodes = (
"421 678 LINE",
"748 678 LINE",
"748 700 LINE",
"421 700 LINE",
"421 678 LINE"
);
}
);
width = 798;
},
{
anchors = (
{
name = bottom;
position = "{308, 0}";
},
{
name = top;
position = "{455, 700}";
}
);
layerId = "63DD228C-6345-4D3B-AA5B-5B558F8D9FC7";
paths = (
{
closed = 1;
nodes = (
"407.333 -10 OFFCURVE",
"488 58.333 OFFCURVE",
"488 213 CURVE SMOOTH",
"488 700 LINE",
"466 700 LINE",
"466 213 LINE SMOOTH",
"466 71.667 OFFCURVE",
"396 12 OFFCURVE",
"296 12 CURVE SMOOTH",
"216 12 OFFCURVE",
"158.333 51 OFFCURVE",
"121 135 CURVE",
"105 120 LINE",
"137 40 OFFCURVE",
"202 -10 OFFCURVE",
"294 -10 CURVE SMOOTH"
);
},
{
closed = 1;
nodes = (
"337 678 LINE",
"594 678 LINE",
"594 700 LINE",
"337 700 LINE",
"337 678 LINE"
);
}
);
width = 694;
},
{
anchors = (
{
name = bottom;
position = "{325, 0}";
},
{
name = top;
position = "{494, 700}";
}
);
layerId = "6D2BDCDA-2583-455F-AF1F-24413162C804";
paths = (
{
closed = 1;
nodes = (
"465.667 -10 OFFCURVE",
"559 86.333 OFFCURVE",
"559 213 CURVE SMOOTH",
"559 700 LINE",
"451 700 LINE",
"451 223 LINE SMOOTH",
"451 148.333 OFFCURVE",
"403 95 OFFCURVE",
"331 95 CURVE SMOOTH",
"281.667 95 OFFCURVE",
"250.333 109.333 OFFCURVE",
"193 188 CURVE",
"125 117 LINE",
"163.667 41 OFFCURVE",
"240.333 -10 OFFCURVE",
"331 -10 CURVE SMOOTH"
);
},
{
closed = 1;
nodes = (
"323 600 LINE",
"667 600 LINE",
"667 700 LINE",
"323 700 LINE",
"323 600 LINE"
);
}
);
width = 717;
}
);
leftKerningGroup = J;
rightKerningGroup = J;
unicode = 004A;
},
{
color = 6;
glyphname = K;
layers = (
{
anchors = (
{
name = bottom;
position = "{536, 0}";
},
{
name = top;
position = "{536, 700}";
}
);
layerId = "2433799C-EF5F-488D-8472-913402CB4D17";
paths = (
{
closed = 1;
nodes = (
"259 174 LINE",
"935 700 LINE",
"775 700 LINE",
"259 297 LINE",
"259 174 LINE"
);
},
{
closed = 1;
nodes = (
"182 0 LINE",
"290 0 LINE",
"290 700 LINE",
"182 700 LINE",
"182 0 LINE"
);
},
{
closed = 1;
nodes = (
"777 0 LINE",
"921 0 LINE",
"537 465 LINE",
"470 379 LINE",
"777 0 LINE"
);
}
);
width = 1071;
},
{
anchors = (
{
name = bottom;
position = "{536, 0}";
},
{
name = top;
position = "{536, 700}";
}
);
layerId = "864D5338-6115-41AC-9646-57C28F89FFCE";
paths = (
{
closed = 1;
nodes = (
"206 208 LINE",
"827 700 LINE",
"792 700 LINE",
"206 236 LINE",
"206 208 LINE"
);
},
{
closed = 1;
nodes = (
"194 0 LINE",
"216 0 LINE",
"216 700 LINE",
"194 700 LINE",
"194 0 LINE"
);
},
{
closed = 1;
nodes = (
"810 0 LINE",
"840 0 LINE",
"479 435 LINE",
"461 421 LINE",
"810 0 LINE"
);
}
);
userData = {
com.schriftgestaltung.Glyphs.glyph.leftMetricsKey = H;
};
width = 975;
},
{
anchors = (
{
name = bottom;
position = "{445, 0}";
},
{
name = top;
position = "{457, 700}";
}
);
layerId = "63DD228C-6345-4D3B-AA5B-5B558F8D9FC7";
paths = (
{
closed = 1;
nodes = (
"204 234 LINE",
"682 700 LINE",
"650 700 LINE",
"204 265 LINE",
"204 234 LINE"
);
},
{
closed = 1;
nodes = (
"194 0 LINE",
"216 0 LINE",
"216 700 LINE",
"194 700 LINE",
"194 0 LINE"
);
},
{
closed = 1;
nodes = (
"671 0 LINE",
"700 0 LINE",
"383 420 LINE",
"366 404 LINE",
"671 0 LINE"
);
}
);
userData = {
com.schriftgestaltung.Glyphs.glyph.leftMetricsKey = H;
};
width = 855;
},
{
anchors = (
{
name = bottom;
position = "{437, 0}";
},
{
name = top;
position = "{449, 700}";
}
);
layerId = "6D2BDCDA-2583-455F-AF1F-24413162C804";
paths = (
{
closed = 1;
nodes = (
"272 212 LINE",
"775 700 LINE",
"633 700 LINE",
"266 333 LINE",
"272 212 LINE"
);
},
{
closed = 1;
nodes = (
"182 0 LINE",
"290 0 LINE",
"290 700 LINE",
"182 700 LINE",
"182 0 LINE"
);
},
{
closed = 1;
nodes = (
"646 0 LINE",
"781 0 LINE",
"458 427 LINE",
"378 358 LINE",
"646 0 LINE"
);
}
);
width = 917;
}
);
leftKerningGroup = H;
leftMetricsKey = H;
rightKerningGroup = K;
unicode = 004B;
},
{
color = 6;
glyphname = L;
layers = (
{
anchors = (
{
name = bottom;
position = "{504, 0}";
},
{
name = center;
position = "{504, 350}";
},
{
name = top;
position = "{236, 700}";
},
{
name = topright;
position = "{838, 700}";
}
);
layerId = "2433799C-EF5F-488D-8472-913402CB4D17";
paths = (
{
closed = 1;
nodes = (
"182 0 LINE",
"758 0 LINE",
"758 104 LINE",
"242 104 LINE",
"290 68 LINE",
"290 700 LINE",
"182 700 LINE",
"182 0 LINE"
);
}
);
width = 898;
},
{
anchors = (
{
name = bottom;
position = "{429, 0}";
},
{
name = center;
position = "{520, 350}";
},
{
name = top;
position = "{236, 700}";
},
{
name = topright;
position = "{783, 700}";
}
);
layerId = "864D5338-6115-41AC-9646-57C28F89FFCE";
paths = (
{
closed = 1;
nodes = (
"194 0 LINE",
"707 0 LINE",
"707 22 LINE",
"204 22 LINE",
"216 9 LINE",
"216 700 LINE",
"194 700 LINE",
"194 0 LINE"
);
}
);
userData = {
com.schriftgestaltung.Glyphs.glyph.leftMetricsKey = H;
};
width = 792;
},
{
anchors = (
{
name = bottom;
position = "{408, 0}";
},
{
name = center;
position = "{464, 350}";
},
{
name = top;
position = "{225, 700}";
},
{
name = topright;
position = "{568, 700}";
}
);
layerId = "63DD228C-6345-4D3B-AA5B-5B558F8D9FC7";
paths = (
{
closed = 1;
nodes = (
"194 0 LINE",
"567 0 LINE",
"567 22 LINE",
"206 22 LINE",
"216 13 LINE",
"216 700 LINE",
"194 700 LINE",
"194 0 LINE"
);
}
);
userData = {
com.schriftgestaltung.Glyphs.glyph.leftMetricsKey = H;
};
width = 702;
},
{
anchors = (
{
name = bottom;
position = "{406, 0}";
},
{
name = center;
position = "{485, 350}";
},
{
name = top;
position = "{257, 700}";
},
{
name = topright;
position = "{655, 700}";
}
);
layerId = "6D2BDCDA-2583-455F-AF1F-24413162C804";
paths = (
{
closed = 1;
nodes = (
"182 0 LINE",
"618 0 LINE",
"618 104 LINE",
"262 104 LINE",
"290 78 LINE",
"290 700 LINE",
"182 700 LINE",
"182 0 LINE"
);
}
);
width = 758;
}
);
leftKerningGroup = H;
leftMetricsKey = H;
rightKerningGroup = L;
unicode = 004C;
},
{
color = 0;
glyphname = Lslash;
layers = (
{
anchors = (
{
name = bottom;
position = "{468, 0}";
},
{
name = center;
position = "{468, 350}";
},
{
name = top;
position = "{275, 700}";
},
{
name = topright;
position = "{877, 700}";
}
);
layerId = "2433799C-EF5F-488D-8472-913402CB4D17";
paths = (
{
closed = 1;
nodes = (
"221 0 LINE",
"797 0 LINE",
"797 104 LINE",
"281 104 LINE",
"329 68 LINE",
"329 700 LINE",
"221 700 LINE",
"221 0 LINE"
);
},
{
closed = 1;
nodes = (
"59 226 LINE",
"623 439 LINE",
"591 536 LINE",
"30 318 LINE",
"59 226 LINE"
);
}
);
width = 937;
},
{
anchors = (
{
name = bottom;
position = "{468, 0}";
},
{
name = center;
position = "{468, 350}";
},
{
name = top;
position = "{275, 700}";
},
{
name = topright;
position = "{877, 700}";
}
);
layerId = "864D5338-6115-41AC-9646-57C28F89FFCE";
paths = (
{
closed = 1;
nodes = (
"178 0 LINE",
"689 0 LINE",
"689 22 LINE",
"167 22 LINE",
"200 1 LINE",
"200 700 LINE",
"178 700 LINE",
"178 0 LINE"
);
},
{
closed = 1;
nodes = (
"-11 267 LINE",
"524 475 LINE",
"519 496 LINE",
"-16 288 LINE",
"-11 267 LINE"
);
}
);
userData = {
com.schriftgestaltung.Glyphs.glyph.rightMetricsKey = L;
};
width = 774;
},
{
anchors = (
{
name = bottom;
position = "{330, 0}";
},
{
name = center;
position = "{323, 350}";
},
{
name = top;
position = "{173, 700}";
},
{
name = topright;
position = "{579, 700}";
}
);
layerId = "63DD228C-6345-4D3B-AA5B-5B558F8D9FC7";
paths = (
{
closed = 1;
nodes = (
"87 0 LINE",
"458 0 LINE",
"458 22 LINE",
"96 22 LINE",
"109 11 LINE",
"109 700 LINE",
"87 700 LINE",
"87 0 LINE"
);
},
{
closed = 1;
nodes = (
"-8 312 LINE",
"257 433 LINE",
"249 454 LINE",
"-16 333 LINE",
"-8 312 LINE"
);
}
);
userData = {
com.schriftgestaltung.Glyphs.glyph.rightMetricsKey = L;
};
width = 593;
},
{
anchors = (
{
name = bottom;
position = "{337, 0}";
},
{
name = center;
position = "{330, 350}";
},
{
name = top;
position = "{180, 700}";
},
{
name = topright;
position = "{586, 700}";
}
);
layerId = "6D2BDCDA-2583-455F-AF1F-24413162C804";
paths = (
{
closed = 1;
nodes = (
"127 0 LINE",
"563 0 LINE",
"563 104 LINE",
"207 104 LINE",
"235 78 LINE",
"235 700 LINE",
"127 700 LINE",
"127 0 LINE"
);
},
{
closed = 1;
nodes = (
"59 256 LINE",
"353 382 LINE",
"321 459 LINE",
"30 328 LINE",
"59 256 LINE"
);
}
);
width = 703;
}
);
leftKerningGroup = L;
rightKerningGroup = L;
rightMetricsKey = L;
unicode = 0141;
},
{
color = 6;
glyphname = M;
layers = (
{
anchors = (
{
name = bottom;
position = "{596, 0}";
},
{
name = top;
position = "{596, 700}";
}
);
layerId = "2433799C-EF5F-488D-8472-913402CB4D17";
paths = (
{
closed = 1;
nodes = (
"182 0 LINE",
"290 0 LINE",
"290 297 LINE SMOOTH",
"290 407.667 OFFCURVE",
"286 500.667 OFFCURVE",
"270 602 CURVE",
"259 561 LINE",
"555 201 LINE",
"621 201 LINE",
"917 561 LINE",
"906 602 LINE",
"890 500.667 OFFCURVE",
"886 407.667 OFFCURVE",
"886 297 CURVE SMOOTH",
"886 0 LINE",
"994 0 LINE",
"994 700 LINE",
"888 700 LINE",
"569 305 LINE",
"607 305 LINE",
"288 700 LINE",
"182 700 LINE",
"182 0 LINE"
);
}
);
width = 1176;
},
{
anchors = (
{
name = bottom;
position = "{596, 0}";
},
{
name = top;
position = "{596, 700}";
}
);
layerId = "864D5338-6115-41AC-9646-57C28F89FFCE";
paths = (
{
closed = 1;
nodes = (
"194 0 LINE",
"216 0 LINE",
"216 393 LINE SMOOTH",
"216 443 OFFCURVE",
"216.167 493.167 OFFCURVE",
"216.5 543.5 CURVE SMOOTH",
"216.833 593.833 OFFCURVE",
"215.667 640 OFFCURVE",
"213 682 CURVE",
"198 685 LINE",
"567 217 LINE",
"582 217 LINE",
"950 683 LINE",
"937 683 LINE",
"934.333 635 OFFCURVE",
"933.167 587.833 OFFCURVE",
"933.5 541.5 CURVE SMOOTH",
"933.833 495.167 OFFCURVE",
"934 445.667 OFFCURVE",
"934 393 CURVE SMOOTH",
"934 0 LINE",
"956 0 LINE",
"956 700 LINE",
"936 700 LINE",
"569 235 LINE",
"581 235 LINE",
"214 700 LINE",
"194 700 LINE",
"194 0 LINE"
);
}
);
userData = {
com.schriftgestaltung.Glyphs.glyph.leftMetricsKey = H;
com.schriftgestaltung.Glyphs.glyph.rightMetricsKey = H;
};
width = 1151;
},
{
anchors = (
{
name = bottom;
position = "{503, 0}";
},
{
name = top;
position = "{503, 700}";
}
);
layerId = "63DD228C-6345-4D3B-AA5B-5B558F8D9FC7";
paths = (
{
closed = 1;
nodes = (
"194 0 LINE",
"216 0 LINE",
"216 383 LINE SMOOTH",
"216 442.333 OFFCURVE",
"216 496.333 OFFCURVE",
"216 545 CURVE SMOOTH",
"216 593.667 OFFCURVE",
"215 640 OFFCURVE",
"213 684 CURVE",
"203 672 LINE",
"496 204 LINE",
"511 204 LINE",
"809 679 LINE",
"793 684 LINE",
"791 637.333 OFFCURVE",
"790 590.333 OFFCURVE",
"790 543 CURVE SMOOTH",
"790 495.667 OFFCURVE",
"790 442.333 OFFCURVE",
"790 383 CURVE SMOOTH",
"790 0 LINE",
"812 0 LINE",
"812 700 LINE",
"795 700 LINE",
"502 232 LINE",
"505 232 LINE",
"211 700 LINE",
"194 700 LINE",
"194 0 LINE"
);
}
);
userData = {
com.schriftgestaltung.Glyphs.glyph.leftMetricsKey = H;
com.schriftgestaltung.Glyphs.glyph.rightMetricsKey = H;
};
width = 1118;
},
{
anchors = (
{
name = bottom;
position = "{518, 0}";
},
{
name = top;
position = "{518, 700}";
}
);
layerId = "6D2BDCDA-2583-455F-AF1F-24413162C804";
paths = (
{
closed = 1;
nodes = (
"182 0 LINE",
"290 0 LINE",
"290 287 LINE SMOOTH",
"290 416.333 OFFCURVE",
"284.667 502.667 OFFCURVE",
"270 592 CURVE",
"259 551 LINE",
"481 201 LINE",
"547 201 LINE",
"776 555 LINE",
"762 592 LINE",
"747.333 497.333 OFFCURVE",
"742 407 OFFCURVE",
"742 287 CURVE SMOOTH",
"742 0 LINE",
"850 0 LINE",
"850 700 LINE",
"750 700 LINE",
"492 286 LINE",
"543 285 LINE",
"288 700 LINE",
"182 700 LINE",
"182 0 LINE"
);
}
);
width = 1032;
}
);
leftKerningGroup = H;
leftMetricsKey = H;
rightKerningGroup = H;
rightMetricsKey = H;
unicode = 004D;
},
{
color = 6;
glyphname = N;
layers = (
{
anchors = (
{
name = bottom;
position = "{561, 0}";
},
{
name = top;
position = "{561, 700}";
}
);
layerId = "2433799C-EF5F-488D-8472-913402CB4D17";
paths = (
{
closed = 1;
nodes = (
"182 0 LINE",
"290 0 LINE",
"290 291 LINE SMOOTH",
"290 337 OFFCURVE",
"287.667 382.833 OFFCURVE",
"283 428.5 CURVE SMOOTH",
"278.333 474.167 OFFCURVE",
"274 520 OFFCURVE",
"270 566 CURVE",
"269 552 LINE",
"830 0 LINE",
"939 0 LINE",
"939 700 LINE",
"831 700 LINE",
"831 470 LINE SMOOTH",
"831 360.667 OFFCURVE",
"835 218 OFFCURVE",
"851 118 CURVE",
"857 127 LINE",
"289 700 LINE",
"182 700 LINE",
"182 0 LINE"
);
}
);
width = 1121;
},
{
anchors = (
{
name = bottom;
position = "{545, 0}";
},
{
name = top;
position = "{545, 700}";
}
);
layerId = "864D5338-6115-41AC-9646-57C28F89FFCE";
paths = (
{
closed = 1;
nodes = (
"194 0 LINE",
"216 0 LINE",
"216 470 LINE SMOOTH",
"217.333 575.333 OFFCURVE",
"215.333 646.333 OFFCURVE",
"214 685 CURVE",
"209 685 LINE",
"834 0 LINE",
"864 0 LINE",
"864 700 LINE",
"842 700 LINE",
"842 241 LINE SMOOTH",
"842.667 215.667 OFFCURVE",
"842.833 182.167 OFFCURVE",
"842.5 140.5 CURVE SMOOTH",
"842.167 98.833 OFFCURVE",
"842.667 57.667 OFFCURVE",
"844 17 CURVE",
"849 18 LINE",
"224 700 LINE",
"194 700 LINE",
"194 0 LINE"
);
}
);
userData = {
com.schriftgestaltung.Glyphs.glyph.leftMetricsKey = H;
com.schriftgestaltung.Glyphs.glyph.rightMetricsKey = H;
};
width = 1059;
},
{
anchors = (
{
name = bottom;
position = "{465, 0}";
},
{
name = top;
position = "{465, 700}";
}
);
layerId = "63DD228C-6345-4D3B-AA5B-5B558F8D9FC7";
paths = (
{
closed = 1;
nodes = (
"194 0 LINE",
"216 0 LINE",
"216 470 LINE SMOOTH",
"217.333 543.333 OFFCURVE",
"215.333 652.667 OFFCURVE",
"214 686 CURVE",
"199 686 LINE",
"684 0 LINE",
"704 0 LINE",
"704 700 LINE",
"682 700 LINE",
"682 241 LINE SMOOTH",
"682.667 198.333 OFFCURVE",
"683.333 160 OFFCURVE",
"684 126 CURVE SMOOTH",
"684.667 92 OFFCURVE",
"685 60.333 OFFCURVE",
"685 31 CURVE",
"689 31 LINE",
"216 700 LINE",
"194 700 LINE",
"194 0 LINE"
);
}
);
userData = {
com.schriftgestaltung.Glyphs.glyph.leftMetricsKey = H;
com.schriftgestaltung.Glyphs.glyph.rightMetricsKey = H;
};
width = 1010;
},
{
anchors = (
{
name = bottom;
position = "{483, 0}";
},
{
name = top;
position = "{483, 700}";
}
);
layerId = "6D2BDCDA-2583-455F-AF1F-24413162C804";
paths = (
{
closed = 1;
nodes = (
"182 0 LINE",
"290 0 LINE",
"290 291 LINE SMOOTH",
"290 351 OFFCURVE",
"278 480.667 OFFCURVE",
"270 566 CURVE",
"259 552 LINE",
"680 0 LINE",
"779 0 LINE",
"779 700 LINE",
"671 700 LINE",
"671 470 LINE SMOOTH",
"671 323.333 OFFCURVE",
"677.667 200.667 OFFCURVE",
"691 118 CURVE",
"707 127 LINE",
"279 700 LINE",
"182 700 LINE",
"182 0 LINE"
);
}
);
width = 961;
}
);
leftKerningGroup = H;
leftMetricsKey = H;
rightKerningGroup = H;
rightMetricsKey = H;
unicode = 004E;
},
{
color = 6;
glyphname = Nhookleft;
production = uni019D;
layers = (
{
layerId = "2433799C-EF5F-488D-8472-913402CB4D17";
paths = (
{
closed = 1;
nodes = (
"40 -197 LINE",
"192 -197 OFFCURVE",
"310 -80.667 OFFCURVE",
"310 106 CURVE SMOOTH",
"310 291 LINE SMOOTH",
"310 336.333 OFFCURVE",
"307 382.667 OFFCURVE",
"303 428 CURVE SMOOTH",
"301 450.667 OFFCURVE",
"298.833 473.5 OFFCURVE",
"296.5 496.5 CURVE SMOOTH",
"294.167 519.5 OFFCURVE",
"292 542.667 OFFCURVE",
"290 566 CURVE",
"269 532 LINE",
"830 0 LINE",
"939 0 LINE",
"939 700 LINE",
"811 700 LINE",
"811 470 LINE SMOOTH",
"811 360.667 OFFCURVE",
"815 218 OFFCURVE",
"831 118 CURVE",
"857 147 LINE",
"289 700 LINE",
"182 700 LINE",
"182 131 LINE SMOOTH",
"182 -9 OFFCURVE",
"130.333 -95 OFFCURVE",
"1 -95 CURVE",
"40 -197 LINE"
);
}
);
width = 1121;
},
{
layerId = "864D5338-6115-41AC-9646-57C28F89FFCE";
paths = (
{
closed = 1;
nodes = (
"27 -194 LINE",
"144.333 -188.667 OFFCURVE",
"233 -100.667 OFFCURVE",
"233 70 CURVE SMOOTH",
"233 470 LINE SMOOTH",
"233 487.333 OFFCURVE",
"233 503.667 OFFCURVE",
"233 519 CURVE SMOOTH",
"233 534.333 OFFCURVE",
"233 548.667 OFFCURVE",
"233 562 CURVE SMOOTH",
"233 618 OFFCURVE",
"232.333 658.333 OFFCURVE",
"231 685 CURVE",
"226 685 LINE",
"851 0 LINE",
"881 0 LINE",
"881 700 LINE",
"859 700 LINE",
"859 241 LINE SMOOTH",
"859.667 215.667 OFFCURVE",
"859.833 182.167 OFFCURVE",
"859.5 140.5 CURVE SMOOTH",
"859.167 98.833 OFFCURVE",
"859.667 57.667 OFFCURVE",
"861 17 CURVE",
"866 18 LINE",
"241 700 LINE",
"211 700 LINE",
"211 74 LINE SMOOTH",
"211 -68.667 OFFCURVE",
"148.333 -157.333 OFFCURVE",
"23 -172 CURVE",
"27 -194 LINE"
);
}
);
userData = {
com.schriftgestaltung.Glyphs.glyph.rightMetricsKey = N;
};
width = 1076;
},
{
layerId = "63DD228C-6345-4D3B-AA5B-5B558F8D9FC7";
paths = (
{
closed = 1;
nodes = (
"31 -194 LINE",
"111 -194 OFFCURVE",
"157 -146.667 OFFCURVE",
"157 -60 CURVE SMOOTH",
"157 470 LINE SMOOTH",
"157 486 OFFCURVE",
"157 503.167 OFFCURVE",
"157 521.5 CURVE SMOOTH",
"157 539.833 OFFCURVE",
"157 557.667 OFFCURVE",
"157 575 CURVE SMOOTH",
"157 623 OFFCURVE",
"156.333 667.333 OFFCURVE",
"155 686 CURVE",
"140 686 LINE",
"625 0 LINE",
"645 0 LINE",
"645 700 LINE",
"623 700 LINE",
"623 241 LINE SMOOTH",
"623.667 198.333 OFFCURVE",
"624.333 160 OFFCURVE",
"625 126 CURVE SMOOTH",
"625.667 92 OFFCURVE",
"626 60.333 OFFCURVE",
"626 31 CURVE",
"630 31 LINE",
"157 700 LINE",
"135 700 LINE",
"135 -56 LINE SMOOTH",
"135 -125.333 OFFCURVE",
"105.667 -173 OFFCURVE",
"23 -173 CURVE",
"31 -194 LINE"
);
}
);
userData = {
com.schriftgestaltung.Glyphs.glyph.rightMetricsKey = N;
};
width = 951;
},
{
layerId = "6D2BDCDA-2583-455F-AF1F-24413162C804";
paths = (
{
closed = 1;
nodes = (
"40 -197 LINE",
"150.667 -197 OFFCURVE",
"225 -128 OFFCURVE",
"225 -24 CURVE SMOOTH",
"225 291 LINE SMOOTH",
"225 329.667 OFFCURVE",
"223.333 373.333 OFFCURVE",
"218 428 CURVE SMOOTH",
"216.667 443.333 OFFCURVE",
"214.5 466.333 OFFCURVE",
"211.5 497 CURVE SMOOTH",
"208.5 527.667 OFFCURVE",
"206.333 550.667 OFFCURVE",
"205 566 CURVE",
"194 552 LINE",
"615 0 LINE",
"714 0 LINE",
"714 700 LINE",
"606 700 LINE",
"606 470 LINE SMOOTH",
"606 323.333 OFFCURVE",
"612.667 200.667 OFFCURVE",
"626 118 CURVE",
"642 127 LINE",
"214 700 LINE",
"117 700 LINE",
"117 1 LINE SMOOTH",
"117 -77.667 OFFCURVE",
"78.333 -118 OFFCURVE",
"1 -118 CURVE",
"40 -197 LINE"
);
}
);
width = 896;
}
);
leftKerningGroup = H;
rightKerningGroup = H;
rightMetricsKey = N;
unicode = 019D;
},
{
color = 6;
glyphname = Eng;
layers = (
{
layerId = "2433799C-EF5F-488D-8472-913402CB4D17";
paths = (
{
closed = 1;
nodes = (
"669 -197 LINE",
"821 -197 OFFCURVE",
"939 -80.667 OFFCURVE",
"939 106 CURVE SMOOTH",
"939 161 LINE",
"939 700 LINE",
"831 700 LINE",
"831 470 LINE SMOOTH",
"831 360.667 OFFCURVE",
"835 218 OFFCURVE",
"851 118 CURVE",
"857 127 LINE",
"289 700 LINE",
"182 700 LINE",
"182 0 LINE",
"290 0 LINE",
"290 291 LINE SMOOTH",
"290 336.333 OFFCURVE",
"287 382.333 OFFCURVE",
"283 429 CURVE SMOOTH",
"281 451.667 OFFCURVE",
"278.833 474.5 OFFCURVE",
"276.5 497.5 CURVE SMOOTH",
"274.167 520.5 OFFCURVE",
"272 543.333 OFFCURVE",
"270 566 CURVE",
"269 552 LINE",
"830 0 LINE",
"826 91 LINE",
"826 71 LINE SMOOTH",
"826 -19.667 OFFCURVE",
"756.667 -95 OFFCURVE",
"630 -95 CURVE",
"669 -197 LINE"
);
}
);
width = 1121;
},
{
layerId = "864D5338-6115-41AC-9646-57C28F89FFCE";
paths = (
{
closed = 1;
nodes = (
"653 -194 LINE",
"795.667 -194 OFFCURVE",
"864 -105.667 OFFCURVE",
"864 29 CURVE SMOOTH",
"864 103 LINE",
"864 700 LINE",
"842 700 LINE",
"842 241 LINE SMOOTH",
"842.667 217 OFFCURVE",
"843 184 OFFCURVE",
"843 142 CURVE SMOOTH",
"843 100 OFFCURVE",
"843.667 60 OFFCURVE",
"845 22 CURVE",
"849 26 LINE",
"226 700 LINE",
"194 700 LINE",
"194 0 LINE",
"216 0 LINE",
"216 470 LINE SMOOTH",
"216 490.667 OFFCURVE",
"215.833 511.333 OFFCURVE",
"215.5 532 CURVE SMOOTH",
"215.167 552.667 OFFCURVE",
"215.333 570.667 OFFCURVE",
"216 586 CURVE SMOOTH",
"215.333 615.333 OFFCURVE",
"215.167 635.333 OFFCURVE",
"215.5 646 CURVE SMOOTH",
"215.833 656.667 OFFCURVE",
"215.333 670 OFFCURVE",
"214 686 CURVE",
"209 686 LINE",
"845 0 LINE",
"845 19 LINE",
"845 15 LINE SMOOTH",
"845 -89 OFFCURVE",
"790.667 -172 OFFCURVE",
"648 -172 CURVE",
"653 -194 LINE"
);
}
);
userData = {
com.schriftgestaltung.Glyphs.glyph.leftMetricsKey = N;
com.schriftgestaltung.Glyphs.glyph.rightMetricsKey = N;
};
width = 1059;
},
{
layerId = "63DD228C-6345-4D3B-AA5B-5B558F8D9FC7";
paths = (
{
closed = 1;
nodes = (
"578 -194 LINE",
"658 -194 OFFCURVE",
"704 -146.667 OFFCURVE",
"704 -60 CURVE SMOOTH",
"704 0 LINE",
"704 700 LINE",
"682 700 LINE",
"682 241 LINE SMOOTH",
"682.667 198.333 OFFCURVE",
"683.333 160 OFFCURVE",
"684 126 CURVE SMOOTH",
"684.667 92 OFFCURVE",
"685 60.333 OFFCURVE",
"685 31 CURVE",
"689 31 LINE",
"216 700 LINE",
"194 700 LINE",
"194 0 LINE",
"216 0 LINE",
"216 470 LINE SMOOTH",
"216 487.333 OFFCURVE",
"216 506 OFFCURVE",
"216 526 CURVE SMOOTH",
"216 546 OFFCURVE",
"216 565.667 OFFCURVE",
"216 585 CURVE SMOOTH",
"216 629 OFFCURVE",
"215.333 668.667 OFFCURVE",
"214 686 CURVE",
"199 686 LINE",
"684 0 LINE",
"682 19 LINE",
"682 -56 LINE SMOOTH",
"682 -125.333 OFFCURVE",
"652.667 -173 OFFCURVE",
"570 -173 CURVE",
"578 -194 LINE"
);
}
);
userData = {
com.schriftgestaltung.Glyphs.glyph.leftMetricsKey = N;
com.schriftgestaltung.Glyphs.glyph.rightMetricsKey = N;
};
width = 1010;
},
{
layerId = "6D2BDCDA-2583-455F-AF1F-24413162C804";
paths = (
{
closed = 1;
nodes = (
"594 -197 LINE",
"704.667 -197 OFFCURVE",
"779 -128 OFFCURVE",
"779 -24 CURVE SMOOTH",
"779 58 LINE",
"779 700 LINE",
"671 700 LINE",
"671 470 LINE SMOOTH",
"671 323.333 OFFCURVE",
"677.667 200.667 OFFCURVE",
"691 118 CURVE",
"707 127 LINE",
"279 700 LINE",
"182 700 LINE",
"182 0 LINE",
"290 0 LINE",
"290 291 LINE SMOOTH",
"290 329.667 OFFCURVE",
"288.333 373.333 OFFCURVE",
"283 428 CURVE SMOOTH",
"281.667 443.333 OFFCURVE",
"279.5 466.333 OFFCURVE",
"276.5 497 CURVE SMOOTH",
"273.5 527.667 OFFCURVE",
"271.333 550.667 OFFCURVE",
"270 566 CURVE",
"259 552 LINE",
"680 0 LINE",
"671 76 LINE",
"671 1 LINE SMOOTH",
"671 -77.667 OFFCURVE",
"632.333 -118 OFFCURVE",
"555 -118 CURVE",
"594 -197 LINE"
);
}
);
width = 961;
}
);
leftKerningGroup = H;
leftMetricsKey = N;
rightKerningGroup = H;
rightMetricsKey = N;
unicode = 014A;
},
{
color = 6;
glyphname = O;
layers = (
{
anchors = (
{
name = bottom;
position = "{551, 0}";
},
{
name = center;
position = "{551, 350}";
},
{
name = ogonek;
position = "{646, 10}";
},
{
name = top;
position = "{551, 700}";
},
{
name = topleft;
position = "{20, 700}";
},
{
name = topright;
position = "{798, 710}";
}
);
layerId = "2433799C-EF5F-488D-8472-913402CB4D17";
paths = (
{
closed = 1;
nodes = (
"796.333 -10 OFFCURVE",
"974 148.667 OFFCURVE",
"974 350 CURVE SMOOTH",
"974 551.333 OFFCURVE",
"796.333 710 OFFCURVE",
"551 710 CURVE SMOOTH",
"304.333 710 OFFCURVE",
"128 551.333 OFFCURVE",
"128 350 CURVE SMOOTH",
"128 148.667 OFFCURVE",
"304.333 -10 OFFCURVE",
"551 -10 CURVE SMOOTH"
);
},
{
closed = 1;
nodes = (
"365.667 95 OFFCURVE",
"238 204.667 OFFCURVE",
"238 350 CURVE SMOOTH",
"238 495.333 OFFCURVE",
"365.667 605 OFFCURVE",
"551 605 CURVE SMOOTH",
"733.667 605 OFFCURVE",
"864 494 OFFCURVE",
"864 350 CURVE SMOOTH",
"864 206 OFFCURVE",
"733.667 95 OFFCURVE",
"551 95 CURVE SMOOTH"
);
}
);
width = 1102;
},
{
anchors = (
{
name = bottom;
position = "{559, 0}";
},
{
name = center;
position = "{559, 350}";
},
{
name = ogonek;
position = "{658, 0}";
},
{
name = top;
position = "{559, 700}";
},
{
name = topleft;
position = "{20, 700}";
},
{
name = topright;
position = "{808, 700}";
}
);
layerId = "864D5338-6115-41AC-9646-57C28F89FFCE";
paths = (
{
closed = 1;
nodes = (
"808.333 -10 OFFCURVE",
"983 142.333 OFFCURVE",
"983 349 CURVE SMOOTH",
"983 557 OFFCURVE",
"808.333 710 OFFCURVE",
"559 710 CURVE SMOOTH",
"308.333 710 OFFCURVE",
"135 554.333 OFFCURVE",
"135 349 CURVE SMOOTH",
"135 143.667 OFFCURVE",
"308.333 -10 OFFCURVE",
"559 -10 CURVE SMOOTH"
);
},
{
closed = 1;
nodes = (
"324.333 12 OFFCURVE",
"158 155.667 OFFCURVE",
"158 349 CURVE SMOOTH",
"158 542.333 OFFCURVE",
"324.333 688 OFFCURVE",
"559 688 CURVE SMOOTH",
"793.667 688 OFFCURVE",
"960 542.333 OFFCURVE",
"960 349 CURVE SMOOTH",
"960 155.667 OFFCURVE",
"793.667 12 OFFCURVE",
"559 12 CURVE SMOOTH"
);
}
);
width = 1118;
},
{
anchors = (
{
name = bottom;
position = "{479, 0}";
},
{
name = center;
position = "{471, 350}";
},
{
name = ogonek;
position = "{625, 10}";
},
{
name = top;
position = "{479, 700}";
},
{
name = topleft;
position = "{105, 700}";
},
{
name = topright;
position = "{559, 679}";
}
);
layerId = "63DD228C-6345-4D3B-AA5B-5B558F8D9FC7";
paths = (
{
closed = 1;
nodes = (
"680.333 -10 OFFCURVE",
"823 138.333 OFFCURVE",
"823 349 CURVE SMOOTH",
"823 561 OFFCURVE",
"680.333 710 OFFCURVE",
"479 710 CURVE SMOOTH",
"277.667 710 OFFCURVE",
"135 559.667 OFFCURVE",
"135 349 CURVE SMOOTH",
"135 138.333 OFFCURVE",
"277.667 -10 OFFCURVE",
"479 -10 CURVE SMOOTH"
);
},
{
closed = 1;
nodes = (
"293.667 12 OFFCURVE",
"158 153 OFFCURVE",
"158 349 CURVE SMOOTH",
"158 545 OFFCURVE",
"293.667 688 OFFCURVE",
"479 688 CURVE SMOOTH",
"665.667 688 OFFCURVE",
"800 545 OFFCURVE",
"800 349 CURVE SMOOTH",
"800 153 OFFCURVE",
"665.667 12 OFFCURVE",
"479 12 CURVE SMOOTH"
);
}
);
width = 1013;
},
{
anchors = (
{
name = bottom;
position = "{471, 0}";
},
{
name = center;
position = "{471, 350}";
},
{
name = ogonek;
position = "{604, 10}";
},
{
name = top;
position = "{471, 700}";
},
{
name = topleft;
position = "{25, 700}";
},
{
name = topright;
position = "{495, 706}";
}
);
layerId = "6D2BDCDA-2583-455F-AF1F-24413162C804";
paths = (
{
closed = 1;
nodes = (
"668.333 -10 OFFCURVE",
"814 144.667 OFFCURVE",
"814 350 CURVE SMOOTH",
"814 555.333 OFFCURVE",
"668.333 710 OFFCURVE",
"471 710 CURVE SMOOTH",
"273.667 710 OFFCURVE",
"128 556.667 OFFCURVE",
"128 350 CURVE SMOOTH",
"128 143.333 OFFCURVE",
"273.667 -10 OFFCURVE",
"471 -10 CURVE SMOOTH"
);
},
{
closed = 1;
nodes = (
"335 95 OFFCURVE",
"238 202 OFFCURVE",
"238 350 CURVE SMOOTH",
"238 498 OFFCURVE",
"335 605 OFFCURVE",
"471 605 CURVE SMOOTH",
"605.667 605 OFFCURVE",
"704 496.667 OFFCURVE",
"704 350 CURVE SMOOTH",
"704 203.333 OFFCURVE",
"605.667 95 OFFCURVE",
"471 95 CURVE SMOOTH"
);
}
);
width = 942;
}
);
leftKerningGroup = C;
rightKerningGroup = D;
unicode = 004F;
},
{
color = 6;
glyphname = Ohorn;
layers = (
{
anchors = (
{
name = bottom;
position = "{551, 0}";
},
{
name = center;
position = "{551, 350}";
},
{
name = ogonek;
position = "{646, 10}";
},
{
name = top;
position = "{551, 700}";
},
{
name = topleft;
position = "{20, 700}";
},
{
name = topright;
position = "{798, 710}";
}
);
layerId = "2433799C-EF5F-488D-8472-913402CB4D17";
paths = (
{
closed = 1;
nodes = (
"796.333 -10 OFFCURVE",
"974 148.667 OFFCURVE",
"974 350 CURVE SMOOTH",
"974 551.333 OFFCURVE",
"796.333 710 OFFCURVE",
"551 710 CURVE SMOOTH",
"304.333 710 OFFCURVE",
"128 551.333 OFFCURVE",
"128 350 CURVE SMOOTH",
"128 148.667 OFFCURVE",
"304.333 -10 OFFCURVE",
"551 -10 CURVE SMOOTH"
);
},
{
closed = 1;
nodes = (
"365.667 95 OFFCURVE",
"238 204.667 OFFCURVE",
"238 350 CURVE SMOOTH",
"238 495.333 OFFCURVE",
"365.667 605 OFFCURVE",
"551 605 CURVE SMOOTH",
"733.667 605 OFFCURVE",
"864 494 OFFCURVE",
"864 350 CURVE SMOOTH",
"864 206 OFFCURVE",
"733.667 95 OFFCURVE",
"551 95 CURVE SMOOTH"
);
},
{
closed = 1;
nodes = (
"707 605 LINE",
"830 605 OFFCURVE",
"888 692 OFFCURVE",
"888 801 CURVE",
"796 801 LINE",
"796 721 OFFCURVE",
"764 687 OFFCURVE",
"707 687 CURVE",
"707 605 LINE"
);
}
);
width = 1102;
},
{
anchors = (
{
name = bottom;
position = "{559, 0}";
},
{
name = center;
position = "{559, 350}";
},
{
name = ogonek;
position = "{658, 0}";
},
{
name = top;
position = "{559, 700}";
},
{
name = topleft;
position = "{20, 700}";
},
{
name = topright;
position = "{808, 700}";
}
);
layerId = "864D5338-6115-41AC-9646-57C28F89FFCE";
paths = (
{
closed = 1;
nodes = (
"808.333 -10 OFFCURVE",
"983 142.333 OFFCURVE",
"983 349 CURVE SMOOTH",
"983 557 OFFCURVE",
"808.333 710 OFFCURVE",
"559 710 CURVE SMOOTH",
"308.333 710 OFFCURVE",
"135 554.333 OFFCURVE",
"135 349 CURVE SMOOTH",
"135 143.667 OFFCURVE",
"308.333 -10 OFFCURVE",
"559 -10 CURVE SMOOTH"
);
},
{
closed = 1;
nodes = (
"324.333 12 OFFCURVE",
"158 155.667 OFFCURVE",
"158 349 CURVE SMOOTH",
"158 542.333 OFFCURVE",
"324.333 688 OFFCURVE",
"559 688 CURVE SMOOTH",
"793.667 688 OFFCURVE",
"960 542.333 OFFCURVE",
"960 349 CURVE SMOOTH",
"960 155.667 OFFCURVE",
"793.667 12 OFFCURVE",
"559 12 CURVE SMOOTH"
);
},
{
closed = 1;
nodes = (
"676 679 LINE",
"759 679 OFFCURVE",
"794 715 OFFCURVE",
"794 799 CURVE",
"772 799 LINE",
"772 730 OFFCURVE",
"744 700 OFFCURVE",
"676 700 CURVE",
"676 679 LINE"
);
}
);
width = 1118;
},
{
anchors = (
{
name = bottom;
position = "{479, 0}";
},
{
name = center;
position = "{471, 350}";
},
{
name = ogonek;
position = "{625, 10}";
},
{
name = top;
position = "{479, 700}";
},
{
name = topleft;
position = "{105, 700}";
},
{
name = topright;
position = "{559, 679}";
}
);
layerId = "63DD228C-6345-4D3B-AA5B-5B558F8D9FC7";
paths = (
{
closed = 1;
nodes = (
"680.333 -10 OFFCURVE",
"823 138.333 OFFCURVE",
"823 349 CURVE SMOOTH",
"823 561 OFFCURVE",
"680.333 710 OFFCURVE",
"479 710 CURVE SMOOTH",
"277.667 710 OFFCURVE",
"135 559.667 OFFCURVE",
"135 349 CURVE SMOOTH",
"135 138.333 OFFCURVE",
"277.667 -10 OFFCURVE",
"479 -10 CURVE SMOOTH"
);
},
{
closed = 1;
nodes = (
"293.667 12 OFFCURVE",
"158 153 OFFCURVE",
"158 349 CURVE SMOOTH",
"158 545 OFFCURVE",
"293.667 688 OFFCURVE",
"479 688 CURVE SMOOTH",
"665.667 688 OFFCURVE",
"800 545 OFFCURVE",
"800 349 CURVE SMOOTH",
"800 153 OFFCURVE",
"665.667 12 OFFCURVE",
"479 12 CURVE SMOOTH"
);
},
{
closed = 1;
nodes = (
"592 673 LINE",
"667 673 OFFCURVE",
"710 720 OFFCURVE",
"710 793 CURVE",
"688 793 LINE",
"688 726 OFFCURVE",
"657 694 OFFCURVE",
"592 694 CURVE",
"592 673 LINE"
);
}
);
width = 1013;
},
{
anchors = (
{
name = bottom;
position = "{471, 0}";
},
{
name = center;
position = "{471, 350}";
},
{
name = ogonek;
position = "{604, 10}";
},
{
name = top;
position = "{471, 700}";
},
{
name = topleft;
position = "{25, 700}";
},
{
name = topright;
position = "{495, 706}";
}
);
layerId = "6D2BDCDA-2583-455F-AF1F-24413162C804";
paths = (
{
closed = 1;
nodes = (
"668.333 -10 OFFCURVE",
"814 144.667 OFFCURVE",
"814 350 CURVE SMOOTH",
"814 555.333 OFFCURVE",
"668.333 710 OFFCURVE",
"471 710 CURVE SMOOTH",
"273.667 710 OFFCURVE",
"128 556.667 OFFCURVE",
"128 350 CURVE SMOOTH",
"128 143.333 OFFCURVE",
"273.667 -10 OFFCURVE",
"471 -10 CURVE SMOOTH"
);
},
{
closed = 1;
nodes = (
"335 95 OFFCURVE",
"238 202 OFFCURVE",
"238 350 CURVE SMOOTH",
"238 498 OFFCURVE",
"335 605 OFFCURVE",
"471 605 CURVE SMOOTH",
"605.667 605 OFFCURVE",
"704 496.667 OFFCURVE",
"704 350 CURVE SMOOTH",
"704 203.333 OFFCURVE",
"605.667 95 OFFCURVE",
"471 95 CURVE SMOOTH"
);
},
{
closed = 1;
nodes = (
"569 616 LINE",
"684 616 OFFCURVE",
"750 691 OFFCURVE",
"750 812 CURVE",
"658 812 LINE",
"658 736 OFFCURVE",
"629 698 OFFCURVE",
"569 698 CURVE",
"569 616 LINE"
);
}
);
width = 942;
}
);
leftKerningGroup = O;
rightKerningGroup = O;
unicode = 01A0;
},
{
color = 0;
glyphname = Oslash;
layers = (
{
anchors = (
{
name = bottom;
position = "{551, 0}";
},
{
name = center;
position = "{551, 350}";
},
{
name = ogonek;
position = "{646, 10}";
},
{
name = top;
position = "{551, 700}";
},
{
name = topleft;
position = "{20, 700}";
},
{
name = topright;
position = "{798, 710}";
}
);
layerId = "2433799C-EF5F-488D-8472-913402CB4D17";
paths = (
{
closed = 1;
nodes = (
"171 -34 LINE",
"985 669 LINE",
"919 737 LINE",
"111 39 LINE",
"171 -34 LINE"
);
},
{
closed = 1;
nodes = (
"796.333 -10 OFFCURVE",
"974 148.667 OFFCURVE",
"974 350 CURVE SMOOTH",
"974 551.333 OFFCURVE",
"796.333 710 OFFCURVE",
"551 710 CURVE SMOOTH",
"304.333 710 OFFCURVE",
"128 551.333 OFFCURVE",
"128 350 CURVE SMOOTH",
"128 148.667 OFFCURVE",
"304.333 -10 OFFCURVE",
"551 -10 CURVE SMOOTH"
);
},
{
closed = 1;
nodes = (
"365.667 95 OFFCURVE",
"238 204.667 OFFCURVE",
"238 350 CURVE SMOOTH",
"238 495.333 OFFCURVE",
"365.667 605 OFFCURVE",
"551 605 CURVE SMOOTH",
"733.667 605 OFFCURVE",
"864 494 OFFCURVE",
"864 350 CURVE SMOOTH",
"864 206 OFFCURVE",
"733.667 95 OFFCURVE",
"551 95 CURVE SMOOTH"
);
}
);
width = 1102;
},
{
anchors = (
{
name = bottom;
position = "{551, 0}";
},
{
name = center;
position = "{551, 350}";
},
{
name = ogonek;
position = "{646, 10}";
},
{
name = top;
position = "{551, 700}";
},
{
name = topleft;
position = "{20, 700}";
},
{
name = topright;
position = "{798, 710}";
}
);
layerId = "864D5338-6115-41AC-9646-57C28F89FFCE";
paths = (
{
closed = 1;
nodes = (
"808.333 -10 OFFCURVE",
"983 142.333 OFFCURVE",
"983 349 CURVE SMOOTH",
"983 557 OFFCURVE",
"808.333 710 OFFCURVE",
"559 710 CURVE SMOOTH",
"308.333 710 OFFCURVE",
"135 554.333 OFFCURVE",
"135 349 CURVE SMOOTH",
"135 143.667 OFFCURVE",
"308.333 -10 OFFCURVE",
"559 -10 CURVE SMOOTH"
);
},
{
closed = 1;
nodes = (
"164 -19 LINE",
"971 699 LINE",
"952 714 LINE",
"146 -5 LINE",
"164 -19 LINE"
);
},
{
closed = 1;
nodes = (
"324.333 12 OFFCURVE",
"158 155.667 OFFCURVE",
"158 349 CURVE SMOOTH",
"158 542.333 OFFCURVE",
"324.333 688 OFFCURVE",
"559 688 CURVE SMOOTH",
"793.667 688 OFFCURVE",
"960 542.333 OFFCURVE",
"960 349 CURVE SMOOTH",
"960 155.667 OFFCURVE",
"793.667 12 OFFCURVE",
"559 12 CURVE SMOOTH"
);
}
);
width = 1118;
},
{
anchors = (
{
name = bottom;
position = "{448, 0}";
},
{
name = center;
position = "{467, 350}";
},
{
name = ogonek;
position = "{771, 10}";
},
{
name = top;
position = "{448, 700}";
},
{
name = topleft;
position = "{106, 700}";
},
{
name = topright;
position = "{468, 706}";
}
);
layerId = "63DD228C-6345-4D3B-AA5B-5B558F8D9FC7";
paths = (
{
closed = 1;
nodes = (
"680.333 -10 OFFCURVE",
"823 138.333 OFFCURVE",
"823 349 CURVE SMOOTH",
"823 561 OFFCURVE",
"680.333 710 OFFCURVE",
"479 710 CURVE SMOOTH",
"277.667 710 OFFCURVE",
"135 559.667 OFFCURVE",
"135 349 CURVE SMOOTH",
"135 138.333 OFFCURVE",
"277.667 -10 OFFCURVE",
"479 -10 CURVE SMOOTH"
);
},
{
closed = 1;
nodes = (
"194 -18 LINE",
"783 704 LINE",
"764 718 LINE",
"175 -4 LINE",
"194 -18 LINE"
);
},
{
closed = 1;
nodes = (
"293.667 12 OFFCURVE",
"158 153 OFFCURVE",
"158 349 CURVE SMOOTH",
"158 545 OFFCURVE",
"293.667 688 OFFCURVE",
"479 688 CURVE SMOOTH",
"665.667 688 OFFCURVE",
"800 545 OFFCURVE",
"800 349 CURVE SMOOTH",
"800 153 OFFCURVE",
"665.667 12 OFFCURVE",
"479 12 CURVE SMOOTH"
);
}
);
width = 1013;
},
{
anchors = (
{
name = bottom;
position = "{368, 0}";
},
{
name = center;
position = "{387, 350}";
},
{
name = ogonek;
position = "{691, 10}";
},
{
name = top;
position = "{368, 700}";
},
{
name = topleft;
position = "{26, 700}";
},
{
name = topright;
position = "{388, 706}";
}
);
layerId = "6D2BDCDA-2583-455F-AF1F-24413162C804";
paths = (
{
closed = 1;
nodes = (
"185 -33 LINE",
"779 694 LINE",
"711 741 LINE",
"122 20 LINE",
"185 -33 LINE"
);
},
{
closed = 1;
nodes = (
"651.333 -10 OFFCURVE",
"797 144.667 OFFCURVE",
"797 350 CURVE SMOOTH",
"797 555.333 OFFCURVE",
"651.333 710 OFFCURVE",
"454 710 CURVE SMOOTH",
"256.667 710 OFFCURVE",
"111 556.667 OFFCURVE",
"111 350 CURVE SMOOTH",
"111 143.333 OFFCURVE",
"256.667 -10 OFFCURVE",
"454 -10 CURVE SMOOTH"
);
},
{
closed = 1;
nodes = (
"318 95 OFFCURVE",
"221 202 OFFCURVE",
"221 350 CURVE SMOOTH",
"221 498 OFFCURVE",
"318 605 OFFCURVE",
"454 605 CURVE SMOOTH",
"588.667 605 OFFCURVE",
"687 496.667 OFFCURVE",
"687 350 CURVE SMOOTH",
"687 203.333 OFFCURVE",
"588.667 95 OFFCURVE",
"454 95 CURVE SMOOTH"
);
}
);
width = 914;
}
);
leftKerningGroup = O;
rightKerningGroup = O;
unicode = 00D8;
},
{
color = 6;
glyphname = OE;
layers = (
{
anchors = (
{
name = bottom;
position = "{736, 0}";
},
{
name = top;
position = "{736, 700}";
}
);
layerId = "2433799C-EF5F-488D-8472-913402CB4D17";
paths = (
{
closed = 1;
nodes = (
"1312 0 LINE",
"1312 114 LINE",
"832 114 LINE",
"839 107 LINE",
"839 306 LINE",
"833 297 LINE",
"1257 297 LINE",
"1257 411 LINE",
"830 411 LINE",
"839 402 LINE",
"839 604 LINE",
"830 586 LINE",
"1312 586 LINE",
"1312 700 LINE",
"545 700 LINE SMOOTH",
"272.363 700 OFFCURVE",
"128 539.333 OFFCURVE",
"128 350 CURVE SMOOTH",
"128 158 OFFCURVE",
"265.299 0 OFFCURVE",
"525 0 CURVE SMOOTH"
);
},
{
closed = 1;
nodes = (
"731 57 LINE",
"772 114 LINE",
"528 114 LINE SMOOTH",
"338.945 114 OFFCURVE",
"258 220.647 OFFCURVE",
"258 350 CURVE SMOOTH",
"258 477.363 OFFCURVE",
"345.015 586 OFFCURVE",
"548 586 CURVE SMOOTH",
"772 586 LINE",
"731 641 LINE",
"731 57 LINE"
);
}
);
width = 1472;
},
{
anchors = (
{
name = bottom;
position = "{736, 0}";
},
{
name = top;
position = "{736, 700}";
}
);
layerId = "864D5338-6115-41AC-9646-57C28F89FFCE";
paths = (
{
closed = 1;
nodes = (
"1291 0 LINE",
"1291 22 LINE",
"781 22 LINE",
"788 13 LINE",
"788 357 LINE",
"775 351 LINE",
"1239 351 LINE",
"1239 373 LINE",
"776 373 LINE",
"788 367 LINE",
"788 678 LINE",
"780 678 LINE",
"1297 678 LINE",
"1297 700 LINE",
"521 700 LINE SMOOTH",
"297 700 OFFCURVE",
"135 554 OFFCURVE",
"135 350 CURVE SMOOTH",
"135 146 OFFCURVE",
"300.667 0 OFFCURVE",
"530 0 CURVE SMOOTH"
);
},
{
closed = 1;
nodes = (
"766 13 LINE",
"774 22 LINE",
"530 22 LINE SMOOTH",
"314 22 OFFCURVE",
"158 159.333 OFFCURVE",
"158 350 CURVE SMOOTH",
"158 540.667 OFFCURVE",
"310.333 678 OFFCURVE",
"521 678 CURVE SMOOTH",
"775 678 LINE",
"766 688 LINE",
"766 13 LINE"
);
}
);
userData = {
com.schriftgestaltung.Glyphs.glyph.leftMetricsKey = O;
com.schriftgestaltung.Glyphs.glyph.rightMetricsKey = E;
};
width = 1447;
},
{
anchors = (
{
name = bottom;
position = "{572, 0}";
},
{
name = top;
position = "{572, 700}";
}
);
layerId = "63DD228C-6345-4D3B-AA5B-5B558F8D9FC7";
paths = (
{
closed = 1;
nodes = (
"1011 0 LINE",
"1011 22 LINE",
"641 22 LINE",
"648 13 LINE",
"648 366 LINE",
"635 351 LINE",
"959 351 LINE",
"959 373 LINE",
"636 373 LINE",
"648 355 LINE",
"648 688 LINE",
"640 678 LINE",
"1017 678 LINE",
"1017 700 LINE",
"451 700 LINE SMOOTH",
"285.667 700 OFFCURVE",
"135 552.667 OFFCURVE",
"135 350 CURVE SMOOTH",
"135 148.667 OFFCURVE",
"290.667 0 OFFCURVE",
"460 0 CURVE SMOOTH"
);
},
{
closed = 1;
nodes = (
"626 13 LINE",
"634 22 LINE",
"466 22 LINE SMOOTH",
"307.333 22 OFFCURVE",
"158 164.667 OFFCURVE",
"158 350 CURVE SMOOTH",
"158 536.667 OFFCURVE",
"303.667 678 OFFCURVE",
"457 678 CURVE SMOOTH",
"635 678 LINE",
"626 688 LINE",
"626 13 LINE"
);
}
);
userData = {
com.schriftgestaltung.Glyphs.glyph.leftMetricsKey = O;
com.schriftgestaltung.Glyphs.glyph.rightMetricsKey = E;
};
width = 1232;
},
{
anchors = (
{
name = bottom;
position = "{492, 0}";
},
{
name = top;
position = "{492, 700}";
}
);
layerId = "6D2BDCDA-2583-455F-AF1F-24413162C804";
paths = (
{
closed = 1;
nodes = (
"1032 0 LINE",
"1032 104 LINE",
"692 104 LINE",
"699 97 LINE",
"699 316 LINE",
"693 307 LINE",
"977 307 LINE",
"977 411 LINE",
"690 411 LINE",
"699 402 LINE",
"699 614 LINE",
"690 596 LINE",
"1032 596 LINE",
"1032 700 LINE",
"475 700 LINE SMOOTH",
"264.333 700 OFFCURVE",
"128 558 OFFCURVE",
"128 350 CURVE SMOOTH",
"128 140.667 OFFCURVE",
"255 0 OFFCURVE",
"455 0 CURVE SMOOTH"
);
},
{
closed = 1;
nodes = (
"591 57 LINE",
"632 104 LINE",
"458 104 LINE SMOOTH",
"318 104 OFFCURVE",
"238 196.667 OFFCURVE",
"238 350 CURVE SMOOTH",
"238 502 OFFCURVE",
"326 596 OFFCURVE",
"478 596 CURVE SMOOTH",
"632 596 LINE",
"591 641 LINE",
"591 57 LINE"
);
}
);
width = 1192;
}
);
leftKerningGroup = O;
leftMetricsKey = O;
rightKerningGroup = E;
rightMetricsKey = E;
unicode = 0152;
},
{
color = 6;
glyphname = P;
layers = (
{
anchors = (
{
name = bottom;
position = "{477, 0}";
},
{
name = top;
position = "{477, 700}";
}
);
layerId = "2433799C-EF5F-488D-8472-913402CB4D17";
paths = (
{
closed = 1;
nodes = (
"182 0 LINE",
"290 0 LINE",
"290 282 LINE",
"282 258 LINE",
"571 258 LINE SMOOTH",
"704.333 258 OFFCURVE",
"818 358.333 OFFCURVE",
"818 485 CURVE SMOOTH",
"818 605 OFFCURVE",
"713.667 700 OFFCURVE",
"591 700 CURVE SMOOTH",
"182 700 LINE",
"182 0 LINE"
);
},
{
closed = 1;
nodes = (
"290 348 LINE",
"290 621 LINE",
"281 596 LINE",
"561 596 LINE SMOOTH",
"637 596 OFFCURVE",
"703 546.333 OFFCURVE",
"703 485 CURVE SMOOTH",
"703 418.333 OFFCURVE",
"637 362 OFFCURVE",
"561 362 CURVE SMOOTH",
"281 362 LINE",
"290 348 LINE"
);
}
);
width = 953;
},
{
anchors = (
{
name = bottom;
position = "{477, 0}";
},
{
name = top;
position = "{477, 700}";
}
);
layerId = "864D5338-6115-41AC-9646-57C28F89FFCE";
paths = (
{
closed = 1;
nodes = (
"194 0 LINE",
"216 0 LINE",
"216 300 LINE",
"202 281 LINE",
"553 281 LINE SMOOTH",
"694.333 281 OFFCURVE",
"774 372.333 OFFCURVE",
"774 507 CURVE SMOOTH",
"774 621.667 OFFCURVE",
"694 700 OFFCURVE",
"554 700 CURVE SMOOTH",
"194 700 LINE",
"194 0 LINE"
);
},
{
closed = 1;
nodes = (
"216 295 LINE",
"216 700 LINE",
"203 678 LINE",
"547 678 LINE SMOOTH",
"684.333 678 OFFCURVE",
"751 615 OFFCURVE",
"751 507 CURVE SMOOTH",
"751 381.667 OFFCURVE",
"683 303 OFFCURVE",
"547 303 CURVE SMOOTH",
"201 303 LINE",
"216 295 LINE"
);
}
);
userData = {
com.schriftgestaltung.Glyphs.glyph.leftMetricsKey = H;
};
width = 919;
},
{
anchors = (
{
name = bottom;
position = "{405, 0}";
},
{
name = top;
position = "{405, 700}";
}
);
layerId = "63DD228C-6345-4D3B-AA5B-5B558F8D9FC7";
paths = (
{
closed = 1;
nodes = (
"194 0 LINE",
"216 0 LINE",
"216 300 LINE",
"202 291 LINE",
"445 291 LINE SMOOTH",
"555.667 291 OFFCURVE",
"629 379 OFFCURVE",
"629 507 CURVE SMOOTH",
"629 621.667 OFFCURVE",
"555.667 700 OFFCURVE",
"445 700 CURVE SMOOTH",
"194 700 LINE",
"194 0 LINE"
);
},
{
closed = 1;
nodes = (
"216 305 LINE",
"216 690 LINE",
"203 678 LINE",
"451 678 LINE SMOOTH",
"544.333 678 OFFCURVE",
"606 607 OFFCURVE",
"606 507 CURVE SMOOTH",
"606 392.333 OFFCURVE",
"544.333 313 OFFCURVE",
"451 313 CURVE SMOOTH",
"201 313 LINE",
"216 305 LINE"
);
}
);
userData = {
com.schriftgestaltung.Glyphs.glyph.leftMetricsKey = H;
};
width = 829;
},
{
anchors = (
{
name = bottom;
position = "{379, 0}";
},
{
name = top;
position = "{379, 700}";
}
);
layerId = "6D2BDCDA-2583-455F-AF1F-24413162C804";
paths = (
{
closed = 1;
nodes = (
"182 0 LINE",
"290 0 LINE",
"290 282 LINE",
"282 268 LINE",
"467 268 LINE SMOOTH",
"580.333 268 OFFCURVE",
"673 365 OFFCURVE",
"673 485 CURVE SMOOTH",
"673 605 OFFCURVE",
"580.333 700 OFFCURVE",
"467 700 CURVE SMOOTH",
"182 700 LINE",
"182 0 LINE"
);
},
{
closed = 1;
nodes = (
"290 358 LINE",
"290 611 LINE",
"281 596 LINE",
"465 596 LINE SMOOTH",
"518.333 596 OFFCURVE",
"563 546.333 OFFCURVE",
"563 485 CURVE SMOOTH",
"563 423.667 OFFCURVE",
"518.333 372 OFFCURVE",
"465 372 CURVE SMOOTH",
"281 372 LINE",
"290 358 LINE"
);
}
);
width = 808;
}
);
leftKerningGroup = H;
leftMetricsKey = H;
rightKerningGroup = P;
unicode = 0050;
},
{
color = 6;
glyphname = Thorn;
layers = (
{
anchors = (
{
name = bottom;
position = "{477, 0}";
},
{
name = top;
position = "{477, 700}";
}
);
layerId = "2433799C-EF5F-488D-8472-913402CB4D17";
paths = (
{
closed = 1;
nodes = (
"282 141 LINE",
"588 141 LINE SMOOTH",
"738.667 141 OFFCURVE",
"833 238 OFFCURVE",
"833 358 CURVE SMOOTH",
"833 498 OFFCURVE",
"738.667 573 OFFCURVE",
"588 573 CURVE SMOOTH",
"222 573 LINE",
"251 469 LINE",
"601 469 LINE SMOOTH",
"663.667 469 OFFCURVE",
"718 419.333 OFFCURVE",
"718 358 CURVE SMOOTH",
"718 295.333 OFFCURVE",
"663.667 245 OFFCURVE",
"601 245 CURVE SMOOTH",
"281 245 LINE",
"282 141 LINE"
);
},
{
closed = 1;
nodes = (
"182 0 LINE",
"290 0 LINE",
"290 700 LINE",
"182 700 LINE",
"182 0 LINE"
);
}
);
width = 968;
},
{
anchors = (
{
name = bottom;
position = "{477, 0}";
},
{
name = top;
position = "{477, 700}";
}
);
layerId = "864D5338-6115-41AC-9646-57C28F89FFCE";
paths = (
{
closed = 1;
nodes = (
"206 171 LINE",
"533 171 LINE SMOOTH",
"675.667 171 OFFCURVE",
"755 238 OFFCURVE",
"755 358 CURVE SMOOTH",
"755 476.667 OFFCURVE",
"675.333 543 OFFCURVE",
"534 543 CURVE SMOOTH",
"206 543 LINE",
"206 521 LINE",
"547 521 LINE SMOOTH",
"665.667 521 OFFCURVE",
"732 463.333 OFFCURVE",
"732 358 CURVE SMOOTH",
"732 251.333 OFFCURVE",
"665.667 193 OFFCURVE",
"547 193 CURVE SMOOTH",
"206 193 LINE",
"206 171 LINE"
);
},
{
closed = 1;
nodes = (
"194 0 LINE",
"216 0 LINE",
"216 700 LINE",
"194 700 LINE",
"194 0 LINE"
);
}
);
userData = {
com.schriftgestaltung.Glyphs.glyph.leftMetricsKey = H;
com.schriftgestaltung.Glyphs.glyph.rightMetricsKey = P;
};
width = 900;
},
{
anchors = (
{
name = bottom;
position = "{379, 0}";
},
{
name = top;
position = "{379, 700}";
}
);
layerId = "63DD228C-6345-4D3B-AA5B-5B558F8D9FC7";
paths = (
{
closed = 1;
nodes = (
"206 171 LINE",
"412 171 LINE SMOOTH",
"518.667 171 OFFCURVE",
"595 254 OFFCURVE",
"595 358 CURVE SMOOTH",
"595 470 OFFCURVE",
"519.667 543 OFFCURVE",
"413 543 CURVE SMOOTH",
"206 543 LINE",
"206 521 LINE",
"411 521 LINE SMOOTH",
"517.667 521 OFFCURVE",
"573 454 OFFCURVE",
"573 358 CURVE SMOOTH",
"573 272.667 OFFCURVE",
"513.667 193 OFFCURVE",
"411 193 CURVE SMOOTH",
"206 193 LINE",
"206 171 LINE"
);
},
{
closed = 1;
nodes = (
"194 0 LINE",
"216 0 LINE",
"216 700 LINE",
"194 700 LINE",
"194 0 LINE"
);
}
);
userData = {
com.schriftgestaltung.Glyphs.glyph.leftMetricsKey = H;
com.schriftgestaltung.Glyphs.glyph.rightMetricsKey = P;
};
width = 795;
},
{
anchors = (
{
name = bottom;
position = "{295, 0}";
},
{
name = top;
position = "{295, 700}";
}
);
layerId = "6D2BDCDA-2583-455F-AF1F-24413162C804";
paths = (
{
closed = 1;
nodes = (
"282 141 LINE",
"467 141 LINE SMOOTH",
"580.333 141 OFFCURVE",
"673 238 OFFCURVE",
"673 358 CURVE SMOOTH",
"673 478 OFFCURVE",
"580.333 573 OFFCURVE",
"467 573 CURVE SMOOTH",
"202 573 LINE",
"231 469 LINE",
"465 469 LINE SMOOTH",
"518.333 469 OFFCURVE",
"563 419.333 OFFCURVE",
"563 358 CURVE SMOOTH",
"563 296.667 OFFCURVE",
"518.333 245 OFFCURVE",
"465 245 CURVE SMOOTH",
"281 245 LINE",
"282 141 LINE"
);
},
{
closed = 1;
nodes = (
"182 0 LINE",
"290 0 LINE",
"290 700 LINE",
"182 700 LINE",
"182 0 LINE"
);
}
);
width = 808;
}
);
leftKerningGroup = H;
leftMetricsKey = H;
rightKerningGroup = P;
rightMetricsKey = P;
unicode = 00DE;
},
{
color = 6;
glyphname = Q;
layers = (
{
anchors = (
{
name = bottom;
position = "{551, 0}";
},
{
name = top;
position = "{551, 700}";
}
);
layerId = "2433799C-EF5F-488D-8472-913402CB4D17";
paths = (
{
closed = 1;
nodes = (
"796.333 -10 OFFCURVE",
"974 148.667 OFFCURVE",
"974 350 CURVE SMOOTH",
"974 551.333 OFFCURVE",
"796.333 710 OFFCURVE",
"551 710 CURVE SMOOTH",
"304.333 710 OFFCURVE",
"128 551.333 OFFCURVE",
"128 350 CURVE SMOOTH",
"128 148.667 OFFCURVE",
"304.333 -10 OFFCURVE",
"551 -10 CURVE SMOOTH"
);
},
{
closed = 1;
nodes = (
"796 -110 LINE",
"882 -58 LINE",
"620 286 LINE",
"531 237 LINE",
"796 -110 LINE"
);
},
{
closed = 1;
nodes = (
"365.667 95 OFFCURVE",
"238 204.667 OFFCURVE",
"238 350 CURVE SMOOTH",
"238 495.333 OFFCURVE",
"365.667 605 OFFCURVE",
"551 605 CURVE SMOOTH",
"733.667 605 OFFCURVE",
"864 494 OFFCURVE",
"864 350 CURVE SMOOTH",
"864 206 OFFCURVE",
"733.667 95 OFFCURVE",
"551 95 CURVE SMOOTH"
);
}
);
width = 1102;
},
{
anchors = (
{
name = bottom;
position = "{551, 0}";
},
{
name = top;
position = "{551, 700}";
}
);
layerId = "864D5338-6115-41AC-9646-57C28F89FFCE";
paths = (
{
closed = 1;
nodes = (
"808.333 -10 OFFCURVE",
"983 142.333 OFFCURVE",
"983 349 CURVE SMOOTH",
"983 557 OFFCURVE",
"808.333 710 OFFCURVE",
"559 710 CURVE SMOOTH",
"308.333 710 OFFCURVE",
"135 554.333 OFFCURVE",
"135 349 CURVE SMOOTH",
"135 143.667 OFFCURVE",
"308.333 -10 OFFCURVE",
"559 -10 CURVE SMOOTH"
);
},
{
closed = 1;
nodes = (
"835 -78 LINE",
"860 -74 LINE",
"607 265 LINE",
"581 260 LINE",
"835 -78 LINE"
);
},
{
closed = 1;
nodes = (
"324.333 12 OFFCURVE",
"158 155.667 OFFCURVE",
"158 349 CURVE SMOOTH",
"158 542.333 OFFCURVE",
"324.333 688 OFFCURVE",
"559 688 CURVE SMOOTH",
"793.667 688 OFFCURVE",
"960 542.333 OFFCURVE",
"960 349 CURVE SMOOTH",
"960 155.667 OFFCURVE",
"793.667 12 OFFCURVE",
"559 12 CURVE SMOOTH"
);
}
);
userData = {
com.schriftgestaltung.Glyphs.glyph.leftMetricsKey = O;
com.schriftgestaltung.Glyphs.glyph.rightMetricsKey = O;
};
width = 1118;
},
{
anchors = (
{
name = bottom;
position = "{467, 0}";
},
{
name = top;
position = "{467, 700}";
}
);
layerId = "63DD228C-6345-4D3B-AA5B-5B558F8D9FC7";
paths = (
{
closed = 1;
nodes = (
"680.333 -10 OFFCURVE",
"823 138.333 OFFCURVE",
"823 349 CURVE SMOOTH",
"823 561 OFFCURVE",
"680.333 710 OFFCURVE",
"479 710 CURVE SMOOTH",
"277.667 710 OFFCURVE",
"135 559.667 OFFCURVE",
"135 349 CURVE SMOOTH",
"135 138.333 OFFCURVE",
"277.667 -10 OFFCURVE",
"479 -10 CURVE SMOOTH"
);
},
{
closed = 1;
nodes = (
"732 -78 LINE",
"749 -65 LINE",
"496 272 LINE",
"478 260 LINE",
"732 -78 LINE"
);
},
{
closed = 1;
nodes = (
"293.667 12 OFFCURVE",
"158 153 OFFCURVE",
"158 349 CURVE SMOOTH",
"158 545 OFFCURVE",
"293.667 688 OFFCURVE",
"479 688 CURVE SMOOTH",
"665.667 688 OFFCURVE",
"800 545 OFFCURVE",
"800 349 CURVE SMOOTH",
"800 153 OFFCURVE",
"665.667 12 OFFCURVE",
"479 12 CURVE SMOOTH"
);
}
);
userData = {
com.schriftgestaltung.Glyphs.glyph.leftMetricsKey = O;
com.schriftgestaltung.Glyphs.glyph.rightMetricsKey = O;
};
width = 1013;
},
{
anchors = (
{
name = bottom;
position = "{387, 0}";
},
{
name = top;
position = "{387, 700}";
}
);
layerId = "6D2BDCDA-2583-455F-AF1F-24413162C804";
paths = (
{
closed = 1;
nodes = (
"668.333 -10 OFFCURVE",
"814 144.667 OFFCURVE",
"814 350 CURVE SMOOTH",
"814 555.333 OFFCURVE",
"668.333 710 OFFCURVE",
"471 710 CURVE SMOOTH",
"273.667 710 OFFCURVE",
"128 556.667 OFFCURVE",
"128 350 CURVE SMOOTH",
"128 143.333 OFFCURVE",
"273.667 -10 OFFCURVE",
"471 -10 CURVE SMOOTH"
);
},
{
closed = 1;
nodes = (
"693 -110 LINE",
"779 -48 LINE",
"517 296 LINE",
"428 237 LINE",
"693 -110 LINE"
);
},
{
closed = 1;
nodes = (
"335 95 OFFCURVE",
"238 202 OFFCURVE",
"238 350 CURVE SMOOTH",
"238 498 OFFCURVE",
"335 605 OFFCURVE",
"471 605 CURVE SMOOTH",
"605.667 605 OFFCURVE",
"704 496.667 OFFCURVE",
"704 350 CURVE SMOOTH",
"704 203.333 OFFCURVE",
"605.667 95 OFFCURVE",
"471 95 CURVE SMOOTH"
);
}
);
width = 942;
}
);
leftKerningGroup = C;
leftMetricsKey = O;
rightKerningGroup = D;
rightMetricsKey = O;
unicode = 0051;
},
{
color = 6;
glyphname = R;
layers = (
{
anchors = (
{
name = bottom;
position = "{506, 0}";
},
{
name = top;
position = "{466, 700}";
}
);
layerId = "2433799C-EF5F-488D-8472-913402CB4D17";
paths = (
{
closed = 1;
nodes = (
"182 0 LINE",
"290 0 LINE",
"290 621 LINE",
"281 596 LINE",
"561 596 LINE SMOOTH",
"637 596 OFFCURVE",
"703 546.333 OFFCURVE",
"703 485 CURVE SMOOTH",
"703 418.333 OFFCURVE",
"637 362 OFFCURVE",
"561 362 CURVE SMOOTH",
"281 362 LINE",
"282 258 LINE",
"571 258 LINE SMOOTH",
"704.333 258 OFFCURVE",
"818 358.333 OFFCURVE",
"818 485 CURVE SMOOTH",
"818 605 OFFCURVE",
"713.667 700 OFFCURVE",
"591 700 CURVE SMOOTH",
"182 700 LINE",
"182 0 LINE"
);
},
{
closed = 1;
nodes = (
"859 -1 LINE",
"601 341 LINE",
"486 316 LINE",
"724 0 LINE",
"859 -1 LINE"
);
}
);
width = 1011;
},
{
anchors = (
{
name = bottom;
position = "{459, 0}";
},
{
name = top;
position = "{419, 700}";
}
);
layerId = "864D5338-6115-41AC-9646-57C28F89FFCE";
paths = (
{
closed = 1;
nodes = (
"194 0 LINE",
"216 0 LINE",
"216 681 LINE",
"204 678 LINE",
"550 678 LINE SMOOTH",
"652.667 678 OFFCURVE",
"723 606.333 OFFCURVE",
"723 513 CURVE SMOOTH",
"723 389 OFFCURVE",
"647.333 308 OFFCURVE",
"522 308 CURVE SMOOTH",
"207 308 LINE",
"207 286 LINE",
"528 286 LINE SMOOTH",
"661.333 286 OFFCURVE",
"746 374 OFFCURVE",
"746 514 CURVE SMOOTH",
"746 622 OFFCURVE",
"666.667 700 OFFCURVE",
"556 700 CURVE SMOOTH",
"194 700 LINE",
"194 0 LINE"
);
},
{
closed = 1;
nodes = (
"754 0 LINE",
"783 0 LINE",
"545 301 LINE",
"518 298 LINE",
"754 0 LINE"
);
}
);
userData = {
com.schriftgestaltung.Glyphs.glyph.leftMetricsKey = H;
};
width = 925;
},
{
anchors = (
{
name = bottom;
position = "{422, 0}";
},
{
name = top;
position = "{382, 700}";
}
);
layerId = "63DD228C-6345-4D3B-AA5B-5B558F8D9FC7";
paths = (
{
closed = 1;
nodes = (
"194 0 LINE",
"216 0 LINE",
"216 690 LINE",
"203 678 LINE",
"451 678 LINE SMOOTH",
"544.333 678 OFFCURVE",
"606 607 OFFCURVE",
"606 507 CURVE SMOOTH",
"606 392.333 OFFCURVE",
"544.333 313 OFFCURVE",
"451 313 CURVE SMOOTH",
"205 313 LINE",
"205 291 LINE",
"445 291 LINE SMOOTH",
"555.667 291 OFFCURVE",
"629 379 OFFCURVE",
"629 507 CURVE SMOOTH",
"629 621.667 OFFCURVE",
"555.667 700 OFFCURVE",
"445 700 CURVE SMOOTH",
"194 700 LINE",
"194 0 LINE"
);
},
{
closed = 1;
nodes = (
"627 0 LINE",
"653 0 LINE",
"475 305 LINE",
"452 298 LINE",
"627 0 LINE"
);
}
);
userData = {
com.schriftgestaltung.Glyphs.glyph.leftMetricsKey = H;
};
width = 835;
},
{
anchors = (
{
name = bottom;
position = "{424, 0}";
},
{
name = top;
position = "{384, 700}";
}
);
layerId = "6D2BDCDA-2583-455F-AF1F-24413162C804";
paths = (
{
closed = 1;
nodes = (
"182 0 LINE",
"290 0 LINE",
"290 630 LINE",
"280 596 LINE",
"462 596 LINE SMOOTH",
"536.667 596 OFFCURVE",
"591 547.333 OFFCURVE",
"591 478 CURVE SMOOTH",
"591 415.333 OFFCURVE",
"548.667 367 OFFCURVE",
"490 367 CURVE SMOOTH",
"277 367 LINE",
"277 263 LINE",
"480 263 LINE SMOOTH",
"601.333 263 OFFCURVE",
"701 362.333 OFFCURVE",
"701 477 CURVE SMOOTH",
"701 603.667 OFFCURVE",
"600 700 OFFCURVE",
"480 700 CURVE SMOOTH",
"182 700 LINE",
"182 0 LINE"
);
},
{
closed = 1;
nodes = (
"729 -1 LINE",
"531 341 LINE",
"420 316 LINE",
"598 0 LINE",
"729 -1 LINE"
);
}
);
width = 881;
}
);
leftKerningGroup = H;
leftMetricsKey = H;
rightKerningGroup = R;
unicode = 0052;
},
{
color = 6;
glyphname = S;
layers = (
{
anchors = (
{
name = bottom;
position = "{468, 0}";
},
{
name = top;
position = "{468, 700}";
}
);
layerId = "2433799C-EF5F-488D-8472-913402CB4D17";
paths = (
{
closed = 1;
nodes = (
"676.667 -10 OFFCURVE",
"807 80 OFFCURVE",
"807 216 CURVE SMOOTH",
"807 356 OFFCURVE",
"655 384.333 OFFCURVE",
"495 403 CURVE SMOOTH",
"367 419 OFFCURVE",
"281 441.667 OFFCURVE",
"281 515 CURVE SMOOTH",
"281 576.333 OFFCURVE",
"363 613 OFFCURVE",
"471 613 CURVE SMOOTH",
"576.333 613 OFFCURVE",
"657 569.333 OFFCURVE",
"709 508 CURVE",
"781 587 LINE",
"721 665.667 OFFCURVE",
"615.333 710 OFFCURVE",
"474 710 CURVE SMOOTH",
"299.333 710 OFFCURVE",
"163 633.667 OFFCURVE",
"163 503 CURVE SMOOTH",
"163 379 OFFCURVE",
"278.333 321.667 OFFCURVE",
"457 299 CURVE SMOOTH",
"530.333 290.333 OFFCURVE",
"587.333 280.333 OFFCURVE",
"628 269 CURVE SMOOTH",
"668.667 257.667 OFFCURVE",
"689 235.333 OFFCURVE",
"689 202 CURVE SMOOTH",
"689 123.333 OFFCURVE",
"581.667 87 OFFCURVE",
"479 87 CURVE SMOOTH",
"357.667 87 OFFCURVE",
"274.667 134.667 OFFCURVE",
"196 216 CURVE",
"128 126 LINE",
"216 30 OFFCURVE",
"334 -10 OFFCURVE",
"478 -10 CURVE SMOOTH"
);
}
);
width = 935;
},
{
anchors = (
{
name = bottom;
position = "{468, 0}";
},
{
name = top;
position = "{468, 700}";
}
);
layerId = "864D5338-6115-41AC-9646-57C28F89FFCE";
paths = (
{
closed = 1;
nodes = (
"653 -10 OFFCURVE",
"765 66.667 OFFCURVE",
"765 180 CURVE SMOOTH",
"765 233.333 OFFCURVE",
"742.5 272.833 OFFCURVE",
"697.5 298.5 CURVE SMOOTH",
"652.5 324.167 OFFCURVE",
"569.667 344.667 OFFCURVE",
"449 360 CURVE SMOOTH",
"341 374 OFFCURVE",
"266.833 392.667 OFFCURVE",
"226.5 416 CURVE SMOOTH",
"186.167 439.333 OFFCURVE",
"166 475.333 OFFCURVE",
"166 524 CURVE SMOOTH",
"166 622.667 OFFCURVE",
"289.333 688 OFFCURVE",
"440 688 CURVE SMOOTH",
"576 688 OFFCURVE",
"660 647.667 OFFCURVE",
"716 593 CURVE",
"729 611 LINE",
"673 669.667 OFFCURVE",
"581.333 710 OFFCURVE",
"440 710 CURVE SMOOTH",
"273.333 710 OFFCURVE",
"143 639.333 OFFCURVE",
"143 518 CURVE SMOOTH",
"143 464 OFFCURVE",
"164.667 424.167 OFFCURVE",
"208 398.5 CURVE SMOOTH",
"251.333 372.833 OFFCURVE",
"331.333 352.333 OFFCURVE",
"448 337 CURVE SMOOTH",
"560 321.667 OFFCURVE",
"637 303 OFFCURVE",
"679 281 CURVE SMOOTH",
"721 259 OFFCURVE",
"742 226.667 OFFCURVE",
"742 184 CURVE SMOOTH",
"744.667 76 OFFCURVE",
"627.667 12 OFFCURVE",
"457 12 CURVE SMOOTH",
"321 12 OFFCURVE",
"206.333 53.333 OFFCURVE",
"133 136 CURVE",
"121 115 LINE",
"199.667 31 OFFCURVE",
"313 -10 OFFCURVE",
"457 -10 CURVE SMOOTH"
);
}
);
width = 878;
},
{
anchors = (
{
name = bottom;
position = "{371, 0}";
},
{
name = top;
position = "{371, 700}";
}
);
layerId = "63DD228C-6345-4D3B-AA5B-5B558F8D9FC7";
paths = (
{
closed = 1;
nodes = (
"507.667 -10 OFFCURVE",
"605 68 OFFCURVE",
"605 172 CURVE SMOOTH",
"605 277.333 OFFCURVE",
"508.667 323 OFFCURVE",
"350 363 CURVE SMOOTH",
"238 392.333 OFFCURVE",
"166 435.333 OFFCURVE",
"166 526 CURVE SMOOTH",
"166 620.667 OFFCURVE",
"255.333 688 OFFCURVE",
"370 688 CURVE SMOOTH",
"468.667 688 OFFCURVE",
"528 654.667 OFFCURVE",
"572 596 CURVE",
"589 611 LINE",
"543.667 673.667 OFFCURVE",
"478 710 OFFCURVE",
"370 710 CURVE SMOOTH",
"242 710 OFFCURVE",
"143 631.333 OFFCURVE",
"143 526 CURVE SMOOTH",
"143 426 OFFCURVE",
"216.667 376.667 OFFCURVE",
"342 342 CURVE SMOOTH",
"483.333 302 OFFCURVE",
"582 268 OFFCURVE",
"582 172 CURVE SMOOTH",
"582 78.667 OFFCURVE",
"493 12 OFFCURVE",
"381 12 CURVE SMOOTH",
"271.667 12 OFFCURVE",
"189.667 52.333 OFFCURVE",
"139 131 CURVE",
"121 115 LINE",
"174.333 35 OFFCURVE",
"262.333 -10 OFFCURVE",
"381 -10 CURVE SMOOTH"
);
}
);
width = 758;
},
{
anchors = (
{
name = bottom;
position = "{392, 0}";
},
{
name = top;
position = "{392, 700}";
}
);
layerId = "6D2BDCDA-2583-455F-AF1F-24413162C804";
paths = (
{
closed = 1;
nodes = (
"549.333 -10 OFFCURVE",
"647 74.667 OFFCURVE",
"647 208 CURVE SMOOTH",
"647 304 OFFCURVE",
"561.667 374.333 OFFCURVE",
"415 405 CURVE SMOOTH",
"309.667 426.333 OFFCURVE",
"271 459.667 OFFCURVE",
"271 517 CURVE SMOOTH",
"271 574.333 OFFCURVE",
"323.667 613 OFFCURVE",
"401 613 CURVE SMOOTH",
"469 613 OFFCURVE",
"525 577.333 OFFCURVE",
"565 512 CURVE",
"641 587 LINE",
"594.333 667 OFFCURVE",
"512 710 OFFCURVE",
"404 710 CURVE SMOOTH",
"268 710 OFFCURVE",
"163 627.333 OFFCURVE",
"163 514 CURVE SMOOTH",
"163 399.333 OFFCURVE",
"233 329 OFFCURVE",
"377 301 CURVE SMOOTH",
"489 279.667 OFFCURVE",
"539 241.333 OFFCURVE",
"539 180 CURVE SMOOTH",
"539 125.333 OFFCURVE",
"479 87 OFFCURVE",
"403 87 CURVE SMOOTH",
"320.333 87 OFFCURVE",
"267.333 117.667 OFFCURVE",
"202 211 CURVE",
"128 126 LINE",
"190.667 35.333 OFFCURVE",
"277.333 -10 OFFCURVE",
"392 -10 CURVE SMOOTH"
);
}
);
width = 775;
}
);
leftKerningGroup = S;
rightKerningGroup = S;
unicode = 0053;
},
{
color = 6;
glyphname = Germandbls;
production = uni1E9E;
layers = (
{
layerId = "2433799C-EF5F-488D-8472-913402CB4D17";
paths = (
{
closed = 1;
nodes = (
"866.333 -10 OFFCURVE",
"961 77.333 OFFCURVE",
"961 184 CURVE SMOOTH",
"961 245.333 OFFCURVE",
"937.333 286 OFFCURVE",
"904 314 CURVE SMOOTH",
"865.333 346 OFFCURVE",
"813 361 OFFCURVE",
"769 373 CURVE SMOOTH",
"678.333 397 OFFCURVE",
"618 432.667 OFFCURVE",
"618 486 CURVE SMOOTH",
"618 518 OFFCURVE",
"638.167 544.333 OFFCURVE",
"678.5 565 CURVE SMOOTH",
"718.833 585.667 OFFCURVE",
"787.667 600.333 OFFCURVE",
"885 609 CURVE",
"875 686 LINE",
"779 714 OFFCURVE",
"702.333 726 OFFCURVE",
"605 726 CURVE SMOOTH",
"345 726 OFFCURVE",
"184.333 571.667 OFFCURVE",
"183 257 CURVE SMOOTH",
"182 1 LINE",
"290 1 LINE",
"292 263 LINE SMOOTH",
"293.333 531 OFFCURVE",
"443.667 637 OFFCURVE",
"605 637 CURVE SMOOTH",
"685 637 OFFCURVE",
"753 622.333 OFFCURVE",
"785 613 CURVE",
"785 653 LINE",
"647.667 662.333 OFFCURVE",
"512 597 OFFCURVE",
"512 469 CURVE SMOOTH",
"512 371.667 OFFCURVE",
"593 308.333 OFFCURVE",
"693 283 CURVE SMOOTH",
"729 273.667 OFFCURVE",
"770.333 263.333 OFFCURVE",
"801 246 CURVE SMOOTH",
"833 230 OFFCURVE",
"857 206.333 OFFCURVE",
"857 173 CURVE SMOOTH",
"857 129 OFFCURVE",
"797 87 OFFCURVE",
"721 87 CURVE SMOOTH",
"638.333 87 OFFCURVE",
"578 127 OFFCURVE",
"526 163 CURVE",
"459 83 LINE",
"535 24.333 OFFCURVE",
"614.333 -10 OFFCURVE",
"721 -10 CURVE SMOOTH"
);
}
);
width = 1089;
},
{
layerId = "864D5338-6115-41AC-9646-57C28F89FFCE";
paths = (
{
closed = 1;
nodes = (
"831 -10 OFFCURVE",
"921 61.333 OFFCURVE",
"921 188 CURVE SMOOTH",
"921 232 OFFCURVE",
"905 268.333 OFFCURVE",
"869 299 CURVE SMOOTH",
"837 327 OFFCURVE",
"786.333 351.667 OFFCURVE",
"717 373 CURVE SMOOTH",
"659.667 391 OFFCURVE",
"620.333 408 OFFCURVE",
"599 424 CURVE SMOOTH",
"577.667 440 OFFCURVE",
"567 460.667 OFFCURVE",
"567 486 CURVE SMOOTH",
"567 522 OFFCURVE",
"589 549.667 OFFCURVE",
"633 569 CURVE SMOOTH",
"677 588.333 OFFCURVE",
"748.333 601.667 OFFCURVE",
"847 609 CURVE",
"843 638 LINE",
"749.667 688.667 OFFCURVE",
"673.333 710 OFFCURVE",
"584 710 CURVE SMOOTH",
"309.333 710 OFFCURVE",
"194 590.333 OFFCURVE",
"194 309 CURVE SMOOTH",
"194 0 LINE",
"216 0 LINE",
"216 311 LINE SMOOTH",
"216 573.667 OFFCURVE",
"322.333 685.333 OFFCURVE",
"573 688 CURVE SMOOTH",
"674.333 688 OFFCURVE",
"751 666.667 OFFCURVE",
"835 620 CURVE",
"835 626 LINE",
"733.667 620 OFFCURVE",
"660.167 605.833 OFFCURVE",
"614.5 583.5 CURVE SMOOTH",
"568.833 561.167 OFFCURVE",
"546 528 OFFCURVE",
"546 484 CURVE SMOOTH",
"546 424 OFFCURVE",
"585 392.667 OFFCURVE",
"709 354 CURVE SMOOTH",
"771.667 334 OFFCURVE",
"818.333 311.333 OFFCURVE",
"849 286 CURVE SMOOTH",
"883.667 258 OFFCURVE",
"899 225 OFFCURVE",
"899 185 CURVE SMOOTH",
"899 74.333 OFFCURVE",
"818.333 12 OFFCURVE",
"673 12 CURVE SMOOTH",
"589 12 OFFCURVE",
"500.667 43.667 OFFCURVE",
"426 101 CURVE",
"412 84 LINE",
"489.333 24 OFFCURVE",
"581.667 -10 OFFCURVE",
"671 -10 CURVE SMOOTH"
);
}
);
userData = {
com.schriftgestaltung.Glyphs.glyph.leftMetricsKey = H;
com.schriftgestaltung.Glyphs.glyph.rightMetricsKey = S;
};
width = 1034;
},
{
layerId = "63DD228C-6345-4D3B-AA5B-5B558F8D9FC7";
paths = (
{
closed = 1;
nodes = (
"661.333 -10 OFFCURVE",
"751 57.333 OFFCURVE",
"751 188 CURVE SMOOTH",
"751 244 OFFCURVE",
"738.333 298.667 OFFCURVE",
"665 340 CURVE SMOOTH",
"643.667 352 OFFCURVE",
"607.667 369.333 OFFCURVE",
"577 384 CURVE SMOOTH",
"509 416 OFFCURVE",
"478 442 OFFCURVE",
"478 486 CURVE SMOOTH",
"478 547.333 OFFCURVE",
"556.667 591.667 OFFCURVE",
"690 609 CURVE",
"688 634 LINE",
"637.333 678 OFFCURVE",
"567.333 710 OFFCURVE",
"470 710 CURVE SMOOTH",
"270 710 OFFCURVE",
"194 608.667 OFFCURVE",
"194 402 CURVE SMOOTH",
"194 0 LINE",
"217 0 LINE",
"217 391 LINE SMOOTH",
"217 607 OFFCURVE",
"289 688 OFFCURVE",
"469 688 CURVE SMOOTH",
"562.333 688 OFFCURVE",
"630 654.667 OFFCURVE",
"674 620 CURVE",
"674 625 LINE",
"547.333 609 OFFCURVE",
"456 563.667 OFFCURVE",
"456 485 CURVE SMOOTH",
"456 438.333 OFFCURVE",
"478 407.333 OFFCURVE",
"538 378 CURVE SMOOTH",
"578 359.333 OFFCURVE",
"613 342 OFFCURVE",
"645 326 CURVE SMOOTH",
"701 298 OFFCURVE",
"728 252.333 OFFCURVE",
"728 183 CURVE SMOOTH",
"728 76.333 OFFCURVE",
"649 12 OFFCURVE",
"525 12 CURVE SMOOTH",
"459.667 12 OFFCURVE",
"394 38.333 OFFCURVE",
"346 93 CURVE",
"329 78 LINE",
"370.333 24.667 OFFCURVE",
"446.667 -10 OFFCURVE",
"524 -10 CURVE SMOOTH"
);
}
);
userData = {
com.schriftgestaltung.Glyphs.glyph.leftMetricsKey = H;
com.schriftgestaltung.Glyphs.glyph.rightMetricsKey = S;
};
width = 904;
},
{
layerId = "6D2BDCDA-2583-455F-AF1F-24413162C804";
paths = (
{
closed = 1;
nodes = (
"691.333 -10 OFFCURVE",
"791 78.667 OFFCURVE",
"791 184 CURVE SMOOTH",
"791 238.667 OFFCURVE",
"776.333 281 OFFCURVE",
"747 313 CURVE SMOOTH",
"724.333 338.333 OFFCURVE",
"699.667 354.667 OFFCURVE",
"629 384 CURVE SMOOTH",
"562.333 412 OFFCURVE",
"529 446 OFFCURVE",
"529 486 CURVE SMOOTH",
"529 543.333 OFFCURVE",
"599.667 589 OFFCURVE",
"725 609 CURVE",
"720 682 LINE",
"652 711.333 OFFCURVE",
"573.667 726 OFFCURVE",
"491 726 CURVE SMOOTH",
"305.667 726 OFFCURVE",
"184.333 575.333 OFFCURVE",
"183 350 CURVE SMOOTH",
"182 1 LINE",
"290 1 LINE",
"292 343 LINE SMOOTH",
"293.333 523 OFFCURVE",
"374.333 634.667 OFFCURVE",
"501 632 CURVE SMOOTH",
"558.333 632 OFFCURVE",
"632.333 621 OFFCURVE",
"675 605 CURVE",
"625 643 LINE",
"503.667 632.333 OFFCURVE",
"422 564 OFFCURVE",
"422 460 CURVE SMOOTH",
"422 385.333 OFFCURVE",
"455.667 337.667 OFFCURVE",
"553 291 CURVE SMOOTH",
"577.667 279.667 OFFCURVE",
"597.167 270.333 OFFCURVE",
"611.5 263 CURVE SMOOTH",
"625.833 255.667 OFFCURVE",
"635 250.667 OFFCURVE",
"639 248 CURVE SMOOTH",
"671 226.667 OFFCURVE",
"686 203 OFFCURVE",
"686 171 CURVE SMOOTH",
"686 119 OFFCURVE",
"642.333 87 OFFCURVE",
"573 87 CURVE SMOOTH",
"530.333 87 OFFCURVE",
"479.333 115 OFFCURVE",
"446 155 CURVE",
"379 75 LINE",
"419 23 OFFCURVE",
"496.667 -10 OFFCURVE",
"574 -10 CURVE SMOOTH"
);
}
);
width = 919;
}
);
leftMetricsKey = H;
rightKerningGroup = S;
rightMetricsKey = S;
unicode = 1E9E;
},
{
color = 6;
glyphname = Schwa;
production = uni018F;
layers = (
{
layerId = "2433799C-EF5F-488D-8472-913402CB4D17";
paths = (
{
closed = 1;
nodes = (
"679.029 -10 OFFCURVE",
"839 151.333 OFFCURVE",
"839 350 CURVE SMOOTH",
"839 548.667 OFFCURVE",
"677.025 710 OFFCURVE",
"482 710 CURVE SMOOTH",
"364.587 710 OFFCURVE",
"275.601 676.557 OFFCURVE",
"196 588 CURVE",
"264 528 LINE",
"326.687 590.687 OFFCURVE",
"398.417 613 OFFCURVE",
"482 613 CURVE SMOOTH",
"616.328 613 OFFCURVE",
"729 525.129 OFFCURVE",
"729 351 CURVE SMOOTH",
"729 189.805 OFFCURVE",
"618.333 87 OFFCURVE",
"485 87 CURVE SMOOTH",
"364.601 87 OFFCURVE",
"259.896 179.583 OFFCURVE",
"239 296 CURVE",
"775 296 LINE",
"766 393 LINE",
"128 393 LINE",
"128 313 LINE",
"137.951 118.971 OFFCURVE",
"307.885 -10 OFFCURVE",
"485 -10 CURVE SMOOTH"
);
}
);
width = 967;
},
{
layerId = "864D5338-6115-41AC-9646-57C28F89FFCE";
paths = (
{
closed = 1;
nodes = (
"685.667 -10 OFFCURVE",
"840 137.333 OFFCURVE",
"840 344 CURVE SMOOTH",
"840 566.667 OFFCURVE",
"683.333 710 OFFCURVE",
"470 710 CURVE SMOOTH",
"355.333 710 OFFCURVE",
"268.333 665 OFFCURVE",
"203 589 CURVE",
"218 576 LINE",
"280.667 646.667 OFFCURVE",
"368.333 688 OFFCURVE",
"467 688 CURVE SMOOTH",
"656.333 688 OFFCURVE",
"818 561.333 OFFCURVE",
"818 348 CURVE SMOOTH",
"818 149.333 OFFCURVE",
"665.333 12 OFFCURVE",
"484 12 CURVE SMOOTH",
"293.333 12 OFFCURVE",
"158.333 161.667 OFFCURVE",
"157 343 CURVE",
"831 343 LINE",
"831 365 LINE",
"135 365 LINE",
"135 353 LINE SMOOTH",
"131 138.333 OFFCURVE",
"291 -10 OFFCURVE",
"483 -10 CURVE SMOOTH"
);
}
);
userData = {
com.schriftgestaltung.Glyphs.glyph.leftMetricsKey = O;
com.schriftgestaltung.Glyphs.glyph.rightMetricsKey = O;
};
width = 975;
},
{
layerId = "63DD228C-6345-4D3B-AA5B-5B558F8D9FC7";
paths = (
{
closed = 1;
nodes = (
"671 -10 OFFCURVE",
"820 137.333 OFFCURVE",
"820 344 CURVE SMOOTH",
"820 553.333 OFFCURVE",
"661.333 710 OFFCURVE",
"452 710 CURVE SMOOTH",
"361.333 710 OFFCURVE",
"266.667 667.667 OFFCURVE",
"208 609 CURVE",
"223 593 LINE",
"280.333 647.667 OFFCURVE",
"363.333 688 OFFCURVE",
"450 688 CURVE SMOOTH",
"647.333 688 OFFCURVE",
"797 542.667 OFFCURVE",
"797 348 CURVE SMOOTH",
"797 153.333 OFFCURVE",
"658.667 12 OFFCURVE",
"476 12 CURVE SMOOTH",
"282.667 12 OFFCURVE",
"157 160.333 OFFCURVE",
"157 343 CURVE",
"808 343 LINE",
"808 365 LINE",
"135 365 LINE",
"135 353 LINE SMOOTH",
"131 147.667 OFFCURVE",
"275 -10 OFFCURVE",
"475 -10 CURVE SMOOTH"
);
}
);
userData = {
com.schriftgestaltung.Glyphs.glyph.leftMetricsKey = O;
com.schriftgestaltung.Glyphs.glyph.rightMetricsKey = O;
};
width = 1010;
},
{
layerId = "6D2BDCDA-2583-455F-AF1F-24413162C804";
paths = (
{
closed = 1;
nodes = (
"658 -10 OFFCURVE",
"812 151.333 OFFCURVE",
"812 350 CURVE SMOOTH",
"812 548.667 OFFCURVE",
"656.333 710 OFFCURVE",
"467 710 CURVE SMOOTH",
"351 710 OFFCURVE",
"269.333 678 OFFCURVE",
"196 606 CURVE",
"264 536 LINE",
"320 588 OFFCURVE",
"383 613 OFFCURVE",
"467 613 CURVE SMOOTH",
"612.333 613 OFFCURVE",
"709 512.333 OFFCURVE",
"709 351 CURVE SMOOTH",
"709 193.667 OFFCURVE",
"608.667 87 OFFCURVE",
"470 87 CURVE SMOOTH",
"354 87 OFFCURVE",
"252 176 OFFCURVE",
"232 296 CURVE",
"775 296 LINE",
"766 393 LINE",
"128 393 LINE",
"128 313 LINE",
"137.333 127.667 OFFCURVE",
"288.667 -10 OFFCURVE",
"470 -10 CURVE SMOOTH"
);
}
);
width = 940;
}
);
leftKerningGroup = O;
leftMetricsKey = O;
rightKerningGroup = O;
rightMetricsKey = O;
unicode = 018F;
},
{
color = 6;
glyphname = T;
layers = (
{
anchors = (
{
name = bottom;
position = "{423, 0}";
},
{
name = center;
position = "{423, 350}";
},
{
name = top;
position = "{423, 700}";
}
);
layerId = "2433799C-EF5F-488D-8472-913402CB4D17";
paths = (
{
closed = 1;
nodes = (
"366 0 LINE",
"474 0 LINE",
"474 651 LINE",
"366 651 LINE",
"366 0 LINE"
);
},
{
closed = 1;
nodes = (
"100 596 LINE",
"746 596 LINE",
"746 700 LINE",
"100 700 LINE",
"100 596 LINE"
);
}
);
width = 846;
},
{
anchors = (
{
name = bottom;
position = "{379, 0}";
},
{
name = center;
position = "{379, 350}";
},
{
name = top;
position = "{379, 700}";
}
);
layerId = "864D5338-6115-41AC-9646-57C28F89FFCE";
paths = (
{
closed = 1;
nodes = (
"368 0 LINE",
"390 0 LINE",
"390 688 LINE",
"368 688 LINE",
"368 0 LINE"
);
},
{
closed = 1;
nodes = (
"85 678 LINE",
"673 678 LINE",
"673 700 LINE",
"85 700 LINE",
"85 678 LINE"
);
}
);
width = 758;
},
{
anchors = (
{
name = bottom;
position = "{309, 0}";
},
{
name = center;
position = "{308, 350}";
},
{
name = top;
position = "{308, 700}";
}
);
layerId = "63DD228C-6345-4D3B-AA5B-5B558F8D9FC7";
paths = (
{
closed = 1;
nodes = (
"298 0 LINE",
"320 0 LINE",
"320 688 LINE",
"298 688 LINE",
"298 0 LINE"
);
},
{
closed = 1;
nodes = (
"85 678 LINE",
"533 678 LINE",
"533 700 LINE",
"85 700 LINE",
"85 678 LINE"
);
}
);
width = 638;
},
{
anchors = (
{
name = bottom;
position = "{323, 0}";
},
{
name = center;
position = "{350, 350}";
},
{
name = top;
position = "{350, 700}";
}
);
layerId = "6D2BDCDA-2583-455F-AF1F-24413162C804";
paths = (
{
closed = 1;
nodes = (
"296 0 LINE",
"404 0 LINE",
"404 651 LINE",
"296 651 LINE",
"296 0 LINE"
);
},
{
closed = 1;
nodes = (
"100 596 LINE",
"606 596 LINE",
"606 700 LINE",
"100 700 LINE",
"100 596 LINE"
);
}
);
width = 706;
}
);
leftKerningGroup = T;
rightKerningGroup = T;
unicode = 0054;
},
{
color = 6;
glyphname = U;
layers = (
{
anchors = (
{
name = bottom;
position = "{522, 0}";
},
{
name = ogonek;
position = "{650, 10}";
},
{
name = top;
position = "{522, 700}";
},
{
name = topright;
position = "{954, 725}";
}
);
layerId = "2433799C-EF5F-488D-8472-913402CB4D17";
paths = (
{
closed = 1;
nodes = (
"734 -6 OFFCURVE",
"874 139 OFFCURVE",
"874 335 CURVE SMOOTH",
"874 701 LINE",
"771 701 LINE",
"771 339 LINE SMOOTH",
"771 200.333 OFFCURVE",
"664.667 99 OFFCURVE",
"522 99 CURVE SMOOTH",
"386 99 OFFCURVE",
"278 200.333 OFFCURVE",
"278 339 CURVE SMOOTH",
"278 701 LINE",
"170 701 LINE",
"170 335 LINE SMOOTH",
"170 139 OFFCURVE",
"310 -6 OFFCURVE",
"522 -6 CURVE SMOOTH"
);
}
);
width = 1044;
},
{
anchors = (
{
name = bottom;
position = "{522, 0}";
},
{
name = ogonek;
position = "{612, 0}";
},
{
name = top;
position = "{522, 700}";
},
{
name = topright;
position = "{982, 700}";
}
);
layerId = "864D5338-6115-41AC-9646-57C28F89FFCE";
paths = (
{
closed = 1;
nodes = (
"724 -6 OFFCURVE",
"856 137.667 OFFCURVE",
"856 335 CURVE SMOOTH",
"856 700 LINE",
"834 700 LINE",
"834 339 LINE SMOOTH",
"834 148.333 OFFCURVE",
"706.667 17 OFFCURVE",
"520 17 CURVE SMOOTH",
"338.667 17 OFFCURVE",
"214 148.333 OFFCURVE",
"214 339 CURVE SMOOTH",
"214 700 LINE",
"192 700 LINE",
"192 337 LINE SMOOTH",
"193.333 137 OFFCURVE",
"320 -6 OFFCURVE",
"520 -6 CURVE SMOOTH"
);
}
);
width = 1048;
},
{
anchors = (
{
name = bottom;
position = "{450, 0}";
},
{
name = ogonek;
position = "{572, 10}";
},
{
name = top;
position = "{450, 700}";
},
{
name = topright;
position = "{670, 684}";
}
);
layerId = "63DD228C-6345-4D3B-AA5B-5B558F8D9FC7";
paths = (
{
closed = 1;
nodes = (
"604.667 -6 OFFCURVE",
"716 109 OFFCURVE",
"716 269 CURVE SMOOTH",
"716 700 LINE",
"694 700 LINE",
"694 278 LINE SMOOTH",
"694 124.667 OFFCURVE",
"594 16 OFFCURVE",
"450 16 CURVE SMOOTH",
"310 16 OFFCURVE",
"214 124.667 OFFCURVE",
"214 278 CURVE SMOOTH",
"214 700 LINE",
"192 700 LINE",
"192 269 LINE SMOOTH",
"193.333 109 OFFCURVE",
"299.333 -6 OFFCURVE",
"450 -6 CURVE SMOOTH"
);
}
);
width = 1018;
},
{
anchors = (
{
name = bottom;
position = "{452, 0}";
},
{
name = ogonek;
position = "{556, 10}";
},
{
name = top;
position = "{452, 700}";
},
{
name = topright;
position = "{649, 708}";
}
);
layerId = "6D2BDCDA-2583-455F-AF1F-24413162C804";
paths = (
{
closed = 1;
nodes = (
"614.667 -6 OFFCURVE",
"734 110.333 OFFCURVE",
"734 269 CURVE SMOOTH",
"734 701 LINE",
"631 701 LINE",
"631 278 LINE SMOOTH",
"631 176.667 OFFCURVE",
"552 98 OFFCURVE",
"452 98 CURVE SMOOTH",
"357.333 98 OFFCURVE",
"278 176.667 OFFCURVE",
"278 278 CURVE SMOOTH",
"278 701 LINE",
"170 701 LINE",
"170 269 LINE SMOOTH",
"170 110.333 OFFCURVE",
"289.333 -6 OFFCURVE",
"452 -6 CURVE SMOOTH"
);
}
);
width = 904;
}
);
leftKerningGroup = U;
rightKerningGroup = U;
unicode = 0055;
},
{
color = 6;
glyphname = Uhorn;
layers = (
{
anchors = (
{
name = bottom;
position = "{522, 0}";
},
{
name = ogonek;
position = "{650, 10}";
},
{
name = top;
position = "{522, 700}";
},
{
name = topright;
position = "{954, 725}";
}
);
layerId = "2433799C-EF5F-488D-8472-913402CB4D17";
paths = (
{
closed = 1;
nodes = (
"734 -6 OFFCURVE",
"874 139 OFFCURVE",
"874 335 CURVE SMOOTH",
"874 701 LINE",
"771 701 LINE",
"771 339 LINE SMOOTH",
"771 200.333 OFFCURVE",
"664.667 99 OFFCURVE",
"522 99 CURVE SMOOTH",
"386 99 OFFCURVE",
"278 200.333 OFFCURVE",
"278 339 CURVE SMOOTH",
"278 701 LINE",
"170 701 LINE",
"170 335 LINE SMOOTH",
"170 139 OFFCURVE",
"310 -6 OFFCURVE",
"522 -6 CURVE SMOOTH"
);
},
{
closed = 1;
nodes = (
"863 620 LINE",
"986 620 OFFCURVE",
"1044 707 OFFCURVE",
"1044 816 CURVE",
"952 816 LINE",
"952 736 OFFCURVE",
"920 702 OFFCURVE",
"863 702 CURVE",
"863 620 LINE"
);
}
);
width = 1044;
},
{
anchors = (
{
name = bottom;
position = "{522, 0}";
},
{
name = ogonek;
position = "{612, 0}";
},
{
name = top;
position = "{522, 700}";
},
{
name = topright;
position = "{982, 700}";
}
);
layerId = "864D5338-6115-41AC-9646-57C28F89FFCE";
paths = (
{
closed = 1;
nodes = (
"724 -6 OFFCURVE",
"856 137.667 OFFCURVE",
"856 335 CURVE SMOOTH",
"856 700 LINE",
"834 700 LINE",
"834 339 LINE SMOOTH",
"834 148.333 OFFCURVE",
"706.667 17 OFFCURVE",
"520 17 CURVE SMOOTH",
"338.667 17 OFFCURVE",
"214 148.333 OFFCURVE",
"214 339 CURVE SMOOTH",
"214 700 LINE",
"192 700 LINE",
"192 337 LINE SMOOTH",
"193.333 137 OFFCURVE",
"320 -6 OFFCURVE",
"520 -6 CURVE SMOOTH"
);
},
{
closed = 1;
nodes = (
"850 679 LINE",
"933 679 OFFCURVE",
"968 715 OFFCURVE",
"968 799 CURVE",
"946 799 LINE",
"946 730 OFFCURVE",
"918 700 OFFCURVE",
"850 700 CURVE",
"850 679 LINE"
);
}
);
width = 978;
},
{
anchors = (
{
name = bottom;
position = "{450, 0}";
},
{
name = ogonek;
position = "{572, 10}";
},
{
name = top;
position = "{450, 700}";
},
{
name = topright;
position = "{588, 684}";
}
);
layerId = "63DD228C-6345-4D3B-AA5B-5B558F8D9FC7";
paths = (
{
closed = 1;
nodes = (
"604.667 -6 OFFCURVE",
"716 109 OFFCURVE",
"716 269 CURVE SMOOTH",
"716 700 LINE",
"694 700 LINE",
"694 278 LINE SMOOTH",
"694 124.667 OFFCURVE",
"594 16 OFFCURVE",
"450 16 CURVE SMOOTH",
"310 16 OFFCURVE",
"214 124.667 OFFCURVE",
"214 278 CURVE SMOOTH",
"214 700 LINE",
"192 700 LINE",
"192 269 LINE SMOOTH",
"193.333 109 OFFCURVE",
"299.333 -6 OFFCURVE",
"450 -6 CURVE SMOOTH"
);
},
{
closed = 1;
nodes = (
"621 678 LINE",
"696 678 OFFCURVE",
"739 725 OFFCURVE",
"739 798 CURVE",
"717 798 LINE",
"717 731 OFFCURVE",
"686 699 OFFCURVE",
"621 699 CURVE",
"621 678 LINE"
);
}
);
width = 759;
},
{
anchors = (
{
name = bottom;
position = "{452, 0}";
},
{
name = ogonek;
position = "{556, 10}";
},
{
name = top;
position = "{452, 700}";
},
{
name = topright;
position = "{649, 708}";
}
);
layerId = "6D2BDCDA-2583-455F-AF1F-24413162C804";
paths = (
{
closed = 1;
nodes = (
"614.667 -6 OFFCURVE",
"734 110.333 OFFCURVE",
"734 269 CURVE SMOOTH",
"734 701 LINE",
"631 701 LINE",
"631 278 LINE SMOOTH",
"631 176.667 OFFCURVE",
"552 98 OFFCURVE",
"452 98 CURVE SMOOTH",
"357.333 98 OFFCURVE",
"278 176.667 OFFCURVE",
"278 278 CURVE SMOOTH",
"278 701 LINE",
"170 701 LINE",
"170 269 LINE SMOOTH",
"170 110.333 OFFCURVE",
"289.333 -6 OFFCURVE",
"452 -6 CURVE SMOOTH"
);
},
{
closed = 1;
nodes = (
"723 618 LINE",
"838 618 OFFCURVE",
"904 693 OFFCURVE",
"904 814 CURVE",
"812 814 LINE",
"812 738 OFFCURVE",
"783 700 OFFCURVE",
"723 700 CURVE",
"723 618 LINE"
);
}
);
width = 904;
}
);
leftKerningGroup = U;
unicode = 01AF;
},
{
color = 6;
glyphname = V;
layers = (
{
anchors = (
{
name = bottom;
position = "{476, 0}";
},
{
name = top;
position = "{476, 700}";
}
);
layerId = "2433799C-EF5F-488D-8472-913402CB4D17";
paths = (
{
closed = 1;
nodes = (
"415 0 LINE",
"545 0 LINE",
"860 700 LINE",
"733 700 LINE",
"560 281 LINE SMOOTH",
"546.667 248.333 OFFCURVE",
"530.833 211.5 OFFCURVE",
"512.5 170.5 CURVE SMOOTH",
"494.167 129.5 OFFCURVE",
"479 92.667 OFFCURVE",
"467 60 CURVE",
"499 61 LINE",
"488.333 93 OFFCURVE",
"473 129.833 OFFCURVE",
"453 171.5 CURVE SMOOTH",
"433 213.167 OFFCURVE",
"415.667 250.333 OFFCURVE",
"401 283 CURVE SMOOTH",
"214 700 LINE",
"92 700 LINE",
"415 0 LINE"
);
}
);
width = 952;
},
{
anchors = (
{
name = bottom;
position = "{476, 0}";
},
{
name = top;
position = "{476, 700}";
}
);
layerId = "864D5338-6115-41AC-9646-57C28F89FFCE";
paths = (
{
closed = 1;
nodes = (
"434 0 LINE",
"465 0 LINE",
"810 700 LINE",
"786 701 LINE",
"509 137 LINE SMOOTH",
"489 96.333 OFFCURVE",
"475.833 69.833 OFFCURVE",
"469.5 57.5 CURVE SMOOTH",
"463.167 45.167 OFFCURVE",
"456.333 31.667 OFFCURVE",
"449 17 CURVE",
"450 17 LINE",
"442.667 31.667 OFFCURVE",
"436.167 45 OFFCURVE",
"430.5 57 CURVE SMOOTH",
"424.833 69 OFFCURVE",
"411.333 96 OFFCURVE",
"390 138 CURVE SMOOTH",
"114 701 LINE",
"90 700 LINE",
"434 0 LINE"
);
}
);
width = 900;
},
{
anchors = (
{
name = bottom;
position = "{371, 1}";
},
{
name = top;
position = "{371, 701}";
}
);
layerId = "63DD228C-6345-4D3B-AA5B-5B558F8D9FC7";
paths = (
{
closed = 1;
nodes = (
"358 0 LINE",
"385 0 LINE",
"654 700 LINE",
"628 700 LINE",
"440 202 LINE SMOOTH",
"422 153.333 OFFCURVE",
"405.5 110.5 OFFCURVE",
"390.5 73.5 CURVE SMOOTH",
"375.5 36.5 OFFCURVE",
"367 14.667 OFFCURVE",
"365 8 CURVE",
"378 8 LINE",
"375.333 14.667 OFFCURVE",
"366.833 37.167 OFFCURVE",
"352.5 75.5 CURVE SMOOTH",
"338.167 113.833 OFFCURVE",
"322.333 155.667 OFFCURVE",
"305 201 CURVE SMOOTH",
"116 700 LINE",
"90 700 LINE",
"358 0 LINE"
);
}
);
width = 764;
},
{
anchors = (
{
name = bottom;
position = "{432, 0}";
},
{
name = top;
position = "{432, 700}";
}
);
layerId = "6D2BDCDA-2583-455F-AF1F-24413162C804";
paths = (
{
closed = 1;
nodes = (
"372 0 LINE",
"477 0 LINE",
"759 700 LINE",
"633 700 LINE",
"478 275 LINE SMOOTH",
"448.667 196.333 OFFCURVE",
"432.333 146 OFFCURVE",
"419 98 CURVE",
"445 99 LINE",
"430.333 145.667 OFFCURVE",
"414 192.333 OFFCURVE",
"382 275 CURVE SMOOTH",
"215 700 LINE",
"92 700 LINE",
"372 0 LINE"
);
}
);
width = 851;
}
);
leftKerningGroup = V;
rightKerningGroup = V;
unicode = 0056;
},
{
color = 6;
glyphname = W;
layers = (
{
anchors = (
{
name = bottom;
position = "{640, 0}";
},
{
name = top;
position = "{640, 640}";
}
);
layerId = "2433799C-EF5F-488D-8472-913402CB4D17";
paths = (
{
closed = 1;
nodes = (
"350 0 LINE",
"433 0 LINE",
"637 467 LINE",
"618 471 LINE",
"821 0 LINE",
"896 0 LINE",
"1184 700 LINE",
"1068 700 LINE",
"904 296 LINE SMOOTH",
"878.667 236 OFFCURVE",
"856 156.667 OFFCURVE",
"840 102 CURVE",
"880 109 LINE",
"866.667 159.667 OFFCURVE",
"834.333 233.667 OFFCURVE",
"809 291 CURVE SMOOTH",
"684 579 LINE",
"580 579 LINE",
"451 289 LINE SMOOTH",
"424.333 229 OFFCURVE",
"393.667 153.333 OFFCURVE",
"375 100 CURVE",
"419 99 LINE",
"403 152.333 OFFCURVE",
"380.333 229 OFFCURVE",
"359 289 CURVE SMOOTH",
"211 700 LINE",
"92 700 LINE",
"350 0 LINE"
);
}
);
width = 1276;
},
{
anchors = (
{
name = bottom;
position = "{642, 0}";
},
{
name = top;
position = "{560, 700}";
}
);
layerId = "864D5338-6115-41AC-9646-57C28F89FFCE";
paths = (
{
closed = 1;
nodes = (
"324 0 LINE",
"357 0 LINE",
"567 517 LINE",
"554 517 LINE",
"757 0 LINE",
"781 0 LINE",
"1043 700 LINE",
"1019 700 LINE",
"840 224 LINE SMOOTH",
"816.667 161.333 OFFCURVE",
"799.667 115 OFFCURVE",
"789 85 CURVE SMOOTH",
"778.333 55 OFFCURVE",
"769.333 30 OFFCURVE",
"762 10 CURVE",
"776 10 LINE",
"768 29.333 OFFCURVE",
"755.333 61.833 OFFCURVE",
"738 107.5 CURVE SMOOTH",
"720.667 153.167 OFFCURVE",
"705 194 OFFCURVE",
"691 230 CURVE SMOOTH",
"568 541 LINE",
"553 541 LINE",
"427 228 LINE SMOOTH",
"400.333 165.333 OFFCURVE",
"384.667 126 OFFCURVE",
"338 10 CURVE",
"343 10 LINE",
"323 71.333 OFFCURVE",
"311 107.333 OFFCURVE",
"307 118 CURVE SMOOTH",
"303 128.667 OFFCURVE",
"291.667 162.667 OFFCURVE",
"273 220 CURVE SMOOTH",
"114 700 LINE",
"90 700 LINE",
"324 0 LINE"
);
}
);
userData = {
com.schriftgestaltung.Glyphs.glyph.leftMetricsKey = V;
com.schriftgestaltung.Glyphs.glyph.rightMetricsKey = V;
};
width = 1133;
},
{
anchors = (
{
name = bottom;
position = "{494, 0}";
},
{
name = top;
position = "{494, 700}";
}
);
layerId = "63DD228C-6345-4D3B-AA5B-5B558F8D9FC7";
paths = (
{
closed = 1;
nodes = (
"286 0 LINE",
"312 0 LINE",
"504 499 LINE",
"485 499 LINE",
"677 0 LINE",
"703 0 LINE",
"899 700 LINE",
"875 700 LINE",
"733 193 LINE SMOOTH",
"719 142.333 OFFCURVE",
"710.833 112.667 OFFCURVE",
"708.5 104 CURVE SMOOTH",
"706.167 95.333 OFFCURVE",
"697.333 65.667 OFFCURVE",
"682 15 CURVE",
"695 15 LINE",
"675.667 63.667 OFFCURVE",
"660.667 101.167 OFFCURVE",
"650 127.5 CURVE SMOOTH",
"639.333 153.833 OFFCURVE",
"629.667 178.667 OFFCURVE",
"621 202 CURVE SMOOTH",
"502 520 LINE",
"487 520 LINE",
"367 202 LINE SMOOTH",
"349.667 155.333 OFFCURVE",
"334 112.333 OFFCURVE",
"294 15 CURVE",
"306 15 LINE",
"290.667 65.667 OFFCURVE",
"282 95.333 OFFCURVE",
"280 104 CURVE SMOOTH",
"278 112.667 OFFCURVE",
"270 142.333 OFFCURVE",
"256 193 CURVE SMOOTH",
"114 700 LINE",
"90 700 LINE",
"286 0 LINE"
);
}
);
userData = {
com.schriftgestaltung.Glyphs.glyph.leftMetricsKey = V;
com.schriftgestaltung.Glyphs.glyph.rightMetricsKey = V;
};
width = 1009;
},
{
anchors = (
{
name = bottom;
position = "{563, 0}";
},
{
name = top;
position = "{563, 700}";
}
);
layerId = "6D2BDCDA-2583-455F-AF1F-24413162C804";
paths = (
{
closed = 1;
nodes = (
"315 0 LINE",
"388 0 LINE",
"566 434 LINE",
"557 438 LINE",
"742 0 LINE",
"817 0 LINE",
"1040 700 LINE",
"924 700 LINE",
"791 265 LINE SMOOTH",
"786.333 249 OFFCURVE",
"782 233.667 OFFCURVE",
"778 219 CURVE SMOOTH",
"774 204.333 OFFCURVE",
"766.667 168.667 OFFCURVE",
"756 112 CURVE",
"782 119 LINE",
"768 172.333 OFFCURVE",
"758.667 206 OFFCURVE",
"754 220 CURVE SMOOTH",
"749.333 234 OFFCURVE",
"744 248.333 OFFCURVE",
"738 263 CURVE SMOOTH",
"616 579 LINE",
"519 579 LINE",
"393 263 LINE SMOOTH",
"385 241.667 OFFCURVE",
"376.5 214.667 OFFCURVE",
"367.5 182 CURVE SMOOTH",
"358.5 149.333 OFFCURVE",
"351.667 125.333 OFFCURVE",
"347 110 CURVE",
"376 109 LINE",
"372.667 123 OFFCURVE",
"368 146.667 OFFCURVE",
"362 180 CURVE SMOOTH",
"356 213.333 OFFCURVE",
"349.333 240.667 OFFCURVE",
"342 262 CURVE SMOOTH",
"207 700 LINE",
"92 700 LINE",
"315 0 LINE"
);
}
);
width = 1132;
}
);
leftKerningGroup = W;
leftMetricsKey = V;
rightKerningGroup = W;
rightMetricsKey = V;
unicode = 0057;
},
{
color = 6;
glyphname = X;
layers = (
{
anchors = (
{
name = bottom;
position = "{481, 0}";
},
{
name = top;
position = "{481, 700}";
}
);
layerId = "2433799C-EF5F-488D-8472-913402CB4D17";
paths = (
{
closed = 1;
nodes = (
"722 0 LINE",
"870 0 LINE",
"511 397 LINE",
"244 700 LINE",
"97 700 LINE",
"444 316 LINE",
"722 0 LINE"
);
},
{
closed = 1;
nodes = (
"92 0 LINE",
"233 0 LINE",
"486 302 LINE",
"425 381 LINE",
"92 0 LINE"
);
},
{
closed = 1;
nodes = (
"535 325 LINE",
"859 700 LINE",
"717 700 LINE",
"476 401 LINE",
"535 325 LINE"
);
}
);
width = 962;
},
{
anchors = (
{
name = bottom;
position = "{481, 0}";
},
{
name = top;
position = "{481, 700}";
}
);
layerId = "864D5338-6115-41AC-9646-57C28F89FFCE";
paths = (
{
closed = 1;
nodes = (
"741 0 LINE",
"771 0 LINE",
"432 370 LINE",
"127 700 LINE",
"98 700 LINE",
"419 351 LINE",
"741 0 LINE"
);
},
{
closed = 1;
nodes = (
"90 0 LINE",
"119 0 LINE",
"432 350 LINE",
"416 366 LINE",
"90 0 LINE"
);
},
{
closed = 1;
nodes = (
"433 352 LINE",
"758 700 LINE",
"728 700 LINE",
"417 368 LINE",
"433 352 LINE"
);
}
);
width = 861;
},
{
anchors = (
{
name = bottom;
position = "{357, 0}";
},
{
name = top;
position = "{357, 700}";
}
);
layerId = "63DD228C-6345-4D3B-AA5B-5B558F8D9FC7";
paths = (
{
closed = 1;
nodes = (
"601 0 LINE",
"630 0 LINE",
"363 366 LINE",
"124 700 LINE",
"95 700 LINE",
"349 348 LINE",
"601 0 LINE"
);
},
{
closed = 1;
nodes = (
"90 0 LINE",
"118 0 LINE",
"365 350 LINE",
"349 363 LINE",
"90 0 LINE"
);
},
{
closed = 1;
nodes = (
"367 352 LINE",
"620 700 LINE",
"592 700 LINE",
"350 365 LINE",
"367 352 LINE"
);
}
);
width = 742;
},
{
anchors = (
{
name = bottom;
position = "{412, 0}";
},
{
name = top;
position = "{412, 700}";
}
);
layerId = "6D2BDCDA-2583-455F-AF1F-24413162C804";
paths = (
{
closed = 1;
nodes = (
"592 0 LINE",
"729 0 LINE",
"446 390 LINE",
"234 700 LINE",
"97 700 LINE",
"375 314 LINE",
"592 0 LINE"
);
},
{
closed = 1;
nodes = (
"92 0 LINE",
"219 0 LINE",
"426 302 LINE",
"359 381 LINE",
"92 0 LINE"
);
},
{
closed = 1;
nodes = (
"462 325 LINE",
"719 700 LINE",
"592 700 LINE",
"396 401 LINE",
"462 325 LINE"
);
}
);
width = 821;
}
);
leftKerningGroup = X;
rightKerningGroup = X;
unicode = 0058;
},
{
color = 6;
glyphname = Y;
layers = (
{
anchors = (
{
name = bottom;
position = "{480, 0}";
},
{
name = top;
position = "{480, 700}";
},
{
name = topleft;
position = "{8, 700}";
}
);
layerId = "2433799C-EF5F-488D-8472-913402CB4D17";
paths = (
{
closed = 1;
nodes = (
"436 0 LINE",
"544 0 LINE",
"544 321 LINE",
"539 263 LINE",
"880 700 LINE",
"746 700 LINE",
"480 347 LINE",
"503 347 LINE",
"230 700 LINE",
"80 700 LINE",
"456 236 LINE",
"436 313 LINE",
"436 0 LINE"
);
}
);
width = 960;
},
{
anchors = (
{
name = bottom;
position = "{450, 0}";
},
{
name = top;
position = "{450, 700}";
},
{
name = topleft;
position = "{8, 700}";
}
);
layerId = "864D5338-6115-41AC-9646-57C28F89FFCE";
paths = (
{
closed = 1;
nodes = (
"439 0 LINE",
"461 0 LINE",
"461 276 LINE",
"452 255 LINE",
"802 700 LINE",
"774 700 LINE",
"446 281 LINE",
"453 281 LINE",
"118 700 LINE",
"90 700 LINE",
"447 255 LINE",
"439 276 LINE",
"439 0 LINE"
);
}
);
width = 892;
},
{
anchors = (
{
name = bottom;
position = "{370, -1}";
},
{
name = top;
position = "{366, 700}";
},
{
name = topleft;
position = "{130, 700}";
}
);
layerId = "63DD228C-6345-4D3B-AA5B-5B558F8D9FC7";
paths = (
{
closed = 1;
nodes = (
"359 0 LINE",
"381 0 LINE",
"381 339 LINE",
"372 300 LINE",
"642 700 LINE",
"616 700 LINE",
"364 327 LINE",
"375 327 LINE",
"116 700 LINE",
"90 700 LINE",
"367 300 LINE",
"359 339 LINE",
"359 0 LINE"
);
}
);
width = 752;
},
{
anchors = (
{
name = bottom;
position = "{416, -1}";
},
{
name = top;
position = "{412, 700}";
},
{
name = topleft;
position = "{60, 700}";
}
);
layerId = "6D2BDCDA-2583-455F-AF1F-24413162C804";
paths = (
{
closed = 1;
nodes = (
"356 0 LINE",
"464 0 LINE",
"464 357 LINE",
"449 289 LINE",
"720 700 LINE",
"596 700 LINE",
"401 393 LINE",
"426 390 LINE",
"210 700 LINE",
"80 700 LINE",
"363 300 LINE",
"356 349 LINE",
"356 0 LINE"
);
}
);
width = 800;
}
);
leftKerningGroup = Y;
rightKerningGroup = Y;
unicode = 0059;
},
{
color = 6;
glyphname = Z;
layers = (
{
anchors = (
{
name = bottom;
position = "{442, 0}";
},
{
name = top;
position = "{442, 700}";
}
);
layerId = "2433799C-EF5F-488D-8472-913402CB4D17";
paths = (
{
closed = 1;
nodes = (
"100 0 LINE",
"784 0 LINE",
"784 106 LINE",
"220 106 LINE",
"258 87 LINE",
"773 622 LINE",
"773 700 LINE",
"126 700 LINE",
"126 594 LINE",
"654 594 LINE",
"615 613 LINE",
"100 79 LINE",
"100 0 LINE"
);
}
);
width = 884;
},
{
anchors = (
{
name = bottom;
position = "{442, 0}";
},
{
name = top;
position = "{442, 700}";
}
);
layerId = "864D5338-6115-41AC-9646-57C28F89FFCE";
paths = (
{
closed = 1;
nodes = (
"100 0 LINE",
"754 0 LINE",
"754 22 LINE",
"121 22 LINE",
"117 10 LINE",
"743 677 LINE",
"743 700 LINE",
"126 700 LINE",
"126 678 LINE",
"723 678 LINE",
"727 692 LINE",
"100 24 LINE",
"100 0 LINE"
);
}
);
width = 859;
},
{
anchors = (
{
name = bottom;
position = "{368, 0}";
},
{
name = top;
position = "{368, 700}";
}
);
layerId = "63DD228C-6345-4D3B-AA5B-5B558F8D9FC7";
paths = (
{
closed = 1;
nodes = (
"100 0 LINE",
"614 0 LINE",
"614 22 LINE",
"115 22 LINE",
"118 10 LINE",
"603 677 LINE",
"603 700 LINE",
"126 700 LINE",
"126 678 LINE",
"597 678 LINE",
"585 692 LINE",
"100 24 LINE",
"100 0 LINE"
);
}
);
width = 779;
},
{
anchors = (
{
name = bottom;
position = "{382, 0}";
},
{
name = top;
position = "{382, 700}";
}
);
layerId = "6D2BDCDA-2583-455F-AF1F-24413162C804";
paths = (
{
closed = 1;
nodes = (
"100 0 LINE",
"644 0 LINE",
"644 104 LINE",
"220 104 LINE",
"236 87 LINE",
"633 622 LINE",
"633 700 LINE",
"126 700 LINE",
"126 596 LINE",
"514 596 LINE",
"499 613 LINE",
"100 79 LINE",
"100 0 LINE"
);
}
);
width = 744;
}
);
leftKerningGroup = Z;
rightKerningGroup = Z;
unicode = 005A;
},
{
color = 6;
glyphname = I.ss01;
layers = (
{
anchors = (
{
name = bottom;
position = "{246, 0}";
},
{
name = ogonek;
position = "{300, 10}";
},
{
name = top;
position = "{246, 700}";
},
{
name = topleft;
position = "{192, 700}";
}
);
layerId = "2433799C-EF5F-488D-8472-913402CB4D17";
paths = (
{
closed = 1;
nodes = (
"192 0 LINE",
"300 0 LINE",
"300 700 LINE",
"299.333 700 OFFCURVE",
"281.291 700 OFFCURVE",
"245.873 700 CURVE SMOOTH",
"210.455 700 OFFCURVE",
"192.497 700 OFFCURVE",
"192 700 CURVE",
"192 0 LINE"
);
}
);
width = 492;
},
{
anchors = (
{
name = bottom;
position = "{246, 0}";
},
{
name = ogonek;
position = "{262, 0}";
},
{
name = top;
position = "{246, 700}";
},
{
name = topleft;
position = "{192, 700}";
}
);
layerId = "864D5338-6115-41AC-9646-57C28F89FFCE";
paths = (
{
closed = 1;
nodes = (
"236 0 LINE",
"257 0 LINE",
"257 700 LINE",
"270.333 700 OFFCURVE",
"266.667 700 OFFCURVE",
"246 700 CURVE SMOOTH",
"225.333 700 OFFCURVE",
"222 700 OFFCURVE",
"236 700 CURVE",
"236 0 LINE"
);
}
);
width = 492;
},
{
anchors = (
{
name = bottom;
position = "{238, 0}";
},
{
name = ogonek;
position = "{261, 0}";
},
{
name = top;
position = "{238, 700}";
},
{
name = topleft;
position = "{185, 700}";
}
);
layerId = "63DD228C-6345-4D3B-AA5B-5B558F8D9FC7";
paths = (
{
closed = 1;
nodes = (
"228 0 LINE",
"250 0 LINE",
"250 700 LINE",
"246 700 OFFCURVE",
"242.5 700 OFFCURVE",
"239.5 700 CURVE SMOOTH",
"236.5 700 OFFCURVE",
"232.667 700 OFFCURVE",
"228 700 CURVE",
"228 0 LINE"
);
}
);
width = 620;
},
{
anchors = (
{
name = bottom;
position = "{247, 0}";
},
{
name = ogonek;
position = "{309, 10}";
},
{
name = top;
position = "{247, 700}";
},
{
name = topleft;
position = "{194, 700}";
}
);
layerId = "6D2BDCDA-2583-455F-AF1F-24413162C804";
paths = (
{
closed = 1;
nodes = (
"192 0 LINE",
"300 0 LINE",
"300 700 LINE",
"282 700 OFFCURVE",
"264 700 OFFCURVE",
"246 700 CURVE SMOOTH",
"228 700 OFFCURVE",
"210 700 OFFCURVE",
"192 700 CURVE",
"192 0 LINE"
);
}
);
width = 492;
}
);
},
{
color = 6;
glyphname = J.ss01;
layers = (
{
anchors = (
{
name = bottom;
position = "{441, 0}";
},
{
name = top;
position = "{632, 700}";
}
);
layerId = "2433799C-EF5F-488D-8472-913402CB4D17";
paths = (
{
closed = 1;
nodes = (
"591.049 -10 OFFCURVE",
"699 128.721 OFFCURVE",
"699 273 CURVE SMOOTH",
"699 700 LINE",
"591 700 LINE",
"591 283 LINE SMOOTH",
"591 176.532 OFFCURVE",
"518.413 90 OFFCURVE",
"401 90 CURVE SMOOTH",
"295.528 90 OFFCURVE",
"246.751 156.333 OFFCURVE",
"197 223 CURVE",
"125 147 LINE",
"145.896 109.189 OFFCURVE",
"230.851 -10 OFFCURVE",
"401 -10 CURVE SMOOTH"
);
}
);
width = 881;
},
{
anchors = (
{
name = bottom;
position = "{441, 0}";
},
{
name = top;
position = "{632, 700}";
}
);
layerId = "864D5338-6115-41AC-9646-57C28F89FFCE";
paths = (
{
closed = 1;
nodes = (
"522 -10 OFFCURVE",
"618 94.333 OFFCURVE",
"618 273 CURVE SMOOTH",
"618 700 LINE",
"596 700 LINE",
"596 273 LINE SMOOTH",
"596 103.667 OFFCURVE",
"498.667 13 OFFCURVE",
"356 13 CURVE SMOOTH",
"250.667 13 OFFCURVE",
"161.333 80.333 OFFCURVE",
"124 167 CURVE",
"105 150 LINE",
"139.667 67.333 OFFCURVE",
"236.667 -10 OFFCURVE",
"354 -10 CURVE SMOOTH"
);
}
);
userData = {
com.schriftgestaltung.Glyphs.glyph.rightMetricsKey = H;
};
width = 813;
},
{
anchors = (
{
name = bottom;
position = "{395, 0}";
},
{
name = top;
position = "{511, 700}";
}
);
layerId = "63DD228C-6345-4D3B-AA5B-5B558F8D9FC7";
paths = (
{
closed = 1;
nodes = (
"407.333 -10 OFFCURVE",
"488 58.333 OFFCURVE",
"488 213 CURVE SMOOTH",
"488 700 LINE",
"466 700 LINE",
"466 213 LINE SMOOTH",
"466 71.667 OFFCURVE",
"396 12 OFFCURVE",
"296 12 CURVE SMOOTH",
"216 12 OFFCURVE",
"158.333 51 OFFCURVE",
"121 135 CURVE",
"105 120 LINE",
"137 40 OFFCURVE",
"202 -10 OFFCURVE",
"294 -10 CURVE SMOOTH"
);
}
);
userData = {
com.schriftgestaltung.Glyphs.glyph.rightMetricsKey = H;
};
width = 794;
},
{
anchors = (
{
name = bottom;
position = "{310, 0}";
},
{
name = top;
position = "{426, 700}";
}
);
layerId = "6D2BDCDA-2583-455F-AF1F-24413162C804";
paths = (
{
closed = 1;
nodes = (
"465.667 -10 OFFCURVE",
"559 86.333 OFFCURVE",
"559 213 CURVE SMOOTH",
"559 700 LINE",
"451 700 LINE",
"451 223 LINE SMOOTH",
"451 148.333 OFFCURVE",
"403 95 OFFCURVE",
"331 95 CURVE SMOOTH",
"281.667 95 OFFCURVE",
"250.333 109.333 OFFCURVE",
"193 188 CURVE",
"125 117 LINE",
"163.667 41 OFFCURVE",
"240.333 -10 OFFCURVE",
"331 -10 CURVE SMOOTH"
);
}
);
width = 741;
}
);
leftKerningGroup = J;
rightKerningGroup = J;
rightMetricsKey = H;
},
{
color = 6;
glyphname = a;
layers = (
{
anchors = (
{
name = bottom;
position = "{456, 0}";
},
{
name = ogonek;
position = "{789, 10}";
},
{
name = top;
position = "{455, 525}";
}
);
layerId = "2433799C-EF5F-488D-8472-913402CB4D17";
paths = (
{
closed = 1;
nodes = (
"573.333 -10 OFFCURVE",
"701 75.667 OFFCURVE",
"701 137 CURVE",
"681 145 LINE",
"681 0 LINE",
"784 0 LINE",
"784 525 LINE",
"681 525 LINE",
"681 389 LINE",
"711 391 LINE",
"711 453.667 OFFCURVE",
"592.667 536 OFFCURVE",
"438 536 CURVE SMOOTH",
"251.333 536 OFFCURVE",
"120 421.667 OFFCURVE",
"120 263 CURVE SMOOTH",
"120 104.333 OFFCURVE",
"241.333 -10 OFFCURVE",
"432 -10 CURVE SMOOTH"
);
},
{
closed = 1;
nodes = (
"320.333 85 OFFCURVE",
"225 161.667 OFFCURVE",
"225 263 CURVE SMOOTH",
"225 363 OFFCURVE",
"320.333 440 OFFCURVE",
"455 440 CURVE SMOOTH",
"591 440 OFFCURVE",
"685 363 OFFCURVE",
"685 263 CURVE SMOOTH",
"685 161.667 OFFCURVE",
"591 85 OFFCURVE",
"455 85 CURVE SMOOTH"
);
}
);
width = 984;
},
{
anchors = (
{
name = bottom;
position = "{442, 0}";
},
{
name = ogonek;
position = "{784, 10}";
},
{
name = top;
position = "{470, 525}";
}
);
layerId = "864D5338-6115-41AC-9646-57C28F89FFCE";
paths = (
{
closed = 1;
nodes = (
"605.333 -10 OFFCURVE",
"734.667 84.667 OFFCURVE",
"748 210 CURVE",
"734 192 LINE",
"734 0 LINE",
"756 0 LINE",
"756 525 LINE",
"736 525 LINE",
"734 320 LINE",
"744 321 LINE",
"740 418.333 OFFCURVE",
"617 536 OFFCURVE",
"445 536 CURVE SMOOTH",
"258.333 536 OFFCURVE",
"122 414.333 OFFCURVE",
"122 257 CURVE SMOOTH",
"122 97 OFFCURVE",
"241.333 -10 OFFCURVE",
"452 -10 CURVE SMOOTH"
);
},
{
closed = 1;
nodes = (
"256 12 OFFCURVE",
"144 113 OFFCURVE",
"144 257 CURVE SMOOTH",
"144 399.667 OFFCURVE",
"268.667 514 OFFCURVE",
"446 514 CURVE SMOOTH",
"614 514 OFFCURVE",
"735 400.333 OFFCURVE",
"735 259 CURVE SMOOTH",
"735 115 OFFCURVE",
"613.333 12 OFFCURVE",
"448 12 CURVE SMOOTH"
);
}
);
width = 953;
},
{
anchors = (
{
name = bottom;
position = "{393, -20}";
},
{
name = ogonek;
position = "{639, 13}";
},
{
name = top;
position = "{389, 530}";
}
);
layerId = "63DD228C-6345-4D3B-AA5B-5B558F8D9FC7";
paths = (
{
closed = 1;
nodes = (
"486.667 -10 OFFCURVE",
"577 67 OFFCURVE",
"601 175 CURVE",
"592 172 LINE",
"592 0 LINE",
"614 0 LINE",
"614 525 LINE",
"594 525 LINE",
"592 353 LINE",
"598 350 LINE",
"579.333 456.667 OFFCURVE",
"484 530 OFFCURVE",
"372 530 CURVE SMOOTH",
"234.667 530 OFFCURVE",
"122 415.333 OFFCURVE",
"122 258 CURVE SMOOTH",
"122 102 OFFCURVE",
"229.333 -10 OFFCURVE",
"376 -10 CURVE SMOOTH"
);
},
{
closed = 1;
nodes = (
"238.667 12 OFFCURVE",
"145 116.667 OFFCURVE",
"145 258 CURVE SMOOTH",
"145 403.333 OFFCURVE",
"239.333 508 OFFCURVE",
"374 508 CURVE SMOOTH",
"499.333 508 OFFCURVE",
"593 404 OFFCURVE",
"593 260 CURVE SMOOTH",
"593 113.333 OFFCURVE",
"498.667 12 OFFCURVE",
"376 12 CURVE SMOOTH"
);
}
);
width = 881;
},
{
anchors = (
{
name = bottom;
position = "{386, -20}";
},
{
name = ogonek;
position = "{659, 13}";
},
{
name = top;
position = "{382, 530}";
}
);
layerId = "6D2BDCDA-2583-455F-AF1F-24413162C804";
paths = (
{
closed = 1;
nodes = (
"457.333 -10 OFFCURVE",
"547 60 OFFCURVE",
"563 132 CURVE",
"539 125 LINE",
"539 0 LINE",
"643 0 LINE",
"643 525 LINE",
"539 525 LINE",
"539 389 LINE",
"562 381 LINE",
"550 466.333 OFFCURVE",
"473 536 OFFCURVE",
"365 536 CURVE SMOOTH",
"227.667 536 OFFCURVE",
"120 422.667 OFFCURVE",
"120 264 CURVE SMOOTH",
"120 108 OFFCURVE",
"225.333 -10 OFFCURVE",
"356 -10 CURVE SMOOTH"
);
},
{
closed = 1;
nodes = (
"291 85 OFFCURVE",
"225 160 OFFCURVE",
"225 264 CURVE SMOOTH",
"225 366.667 OFFCURVE",
"291 441 OFFCURVE",
"383 441 CURVE SMOOTH",
"476.333 441 OFFCURVE",
"543 366.667 OFFCURVE",
"543 264 CURVE SMOOTH",
"543 160 OFFCURVE",
"476.333 85 OFFCURVE",
"383 85 CURVE SMOOTH"
);
}
);
width = 843;
}
);
leftKerningGroup = c;
rightKerningGroup = a;
unicode = 0061;
},
{
color = 6;
glyphname = ae;
layers = (
{
anchors = (
{
name = bottom;
position = "{748, 0}";
},
{
name = top;
position = "{748, 525}";
}
);
layerId = "2433799C-EF5F-488D-8472-913402CB4D17";
paths = (
{
closed = 1;
nodes = (
"510.667 -10 OFFCURVE",
"604.667 70.667 OFFCURVE",
"646 116 CURVE",
"606 185 LINE",
"578 146.333 OFFCURVE",
"488 78 OFFCURVE",
"372 78 CURVE SMOOTH",
"288 78 OFFCURVE",
"217 99.667 OFFCURVE",
"217 157 CURVE SMOOTH",
"217 181.667 OFFCURVE",
"231.5 201.167 OFFCURVE",
"260.5 215.5 CURVE SMOOTH",
"289.5 229.833 OFFCURVE",
"340.333 237 OFFCURVE",
"413 237 CURVE SMOOTH",
"1220 237 LINE",
"1221 281 LINE SMOOTH",
"1221 431.667 OFFCURVE",
"1083.667 534.667 OFFCURVE",
"913 536 CURVE SMOOTH",
"739.667 536 OFFCURVE",
"575 431.667 OFFCURVE",
"575 257 CURVE SMOOTH",
"575 102.333 OFFCURVE",
"717.333 -10 OFFCURVE",
"936 -10 CURVE SMOOTH",
"1044 -10 OFFCURVE",
"1167 26.667 OFFCURVE",
"1211 60 CURVE",
"1161 140 LINE",
"1122.333 106.667 OFFCURVE",
"1054 80 OFFCURVE",
"946 80 CURVE SMOOTH",
"803.333 80 OFFCURVE",
"668 137.333 OFFCURVE",
"668 264 CURVE SMOOTH",
"668 406.667 OFFCURVE",
"785 446 OFFCURVE",
"913 446 CURVE SMOOTH",
"1011.667 446 OFFCURVE",
"1105.333 399.333 OFFCURVE",
"1116 326 CURVE",
"1116 302 LINE",
"1131 319 LINE",
"426 319 LINE SMOOTH",
"302 319.667 OFFCURVE",
"220 304.5 OFFCURVE",
"180 273.5 CURVE SMOOTH",
"140 242.5 OFFCURVE",
"120 201 OFFCURVE",
"120 149 CURVE SMOOTH",
"120 39.667 OFFCURVE",
"221.333 -10 OFFCURVE",
"368 -10 CURVE SMOOTH"
);
},
{
closed = 1;
nodes = (
"575 257 LINE",
"668 263 LINE",
"668 388 LINE SMOOTH",
"668 501.333 OFFCURVE",
"528 536 OFFCURVE",
"416 536 CURVE SMOOTH",
"300 536 OFFCURVE",
"215 495.667 OFFCURVE",
"143 445 CURVE",
"200 374 LINE",
"262.667 423.333 OFFCURVE",
"340.667 442 OFFCURVE",
"414 442 CURVE SMOOTH",
"479.333 442 OFFCURVE",
"575 400 OFFCURVE",
"575 336 CURVE SMOOTH",
"575 257 LINE"
);
}
);
width = 1366;
},
{
anchors = (
{
name = bottom;
position = "{748, 0}";
},
{
name = top;
position = "{748, 525}";
}
);
layerId = "864D5338-6115-41AC-9646-57C28F89FFCE";
paths = (
{
closed = 1;
nodes = (
"521.667 -10 OFFCURVE",
"636.667 71.667 OFFCURVE",
"682 145 CURVE",
"670 162 LINE",
"626 95.333 OFFCURVE",
"512 12 OFFCURVE",
"368 12 CURVE SMOOTH",
"222.667 12 OFFCURVE",
"144 62 OFFCURVE",
"144 150 CURVE SMOOTH",
"144 189.333 OFFCURVE",
"161.5 218.333 OFFCURVE",
"196.5 237 CURVE SMOOTH",
"231.5 255.667 OFFCURVE",
"293.667 265 OFFCURVE",
"383 265 CURVE SMOOTH",
"1272 265 LINE",
"1274 291 LINE",
"1274 443 OFFCURVE",
"1148.333 530 OFFCURVE",
"979 530 CURVE SMOOTH",
"799 530 OFFCURVE",
"644 437.667 OFFCURVE",
"644 263 CURVE SMOOTH",
"644 105.667 OFFCURVE",
"778.667 -10 OFFCURVE",
"992 -10 CURVE SMOOTH",
"1106.667 -10 OFFCURVE",
"1168.667 15 OFFCURVE",
"1246 63 CURVE",
"1241 86 LINE",
"1183.667 48.667 OFFCURVE",
"1111 14 OFFCURVE",
"991 14 CURVE SMOOTH",
"801.667 14 OFFCURVE",
"667.333 117.667 OFFCURVE",
"666 263 CURVE SMOOTH",
"667.333 429.667 OFFCURVE",
"818 508 OFFCURVE",
"982 508 CURVE SMOOTH",
"1126 508 OFFCURVE",
"1252 428.333 OFFCURVE",
"1252 295 CURVE SMOOTH",
"1252 272 LINE",
"1262 287 LINE",
"389 287 LINE SMOOTH",
"278.333 287 OFFCURVE",
"206.167 274 OFFCURVE",
"172.5 248 CURVE SMOOTH",
"138.833 222 OFFCURVE",
"122 189 OFFCURVE",
"122 149 CURVE SMOOTH",
"122 51.667 OFFCURVE",
"204.333 -10 OFFCURVE",
"367 -10 CURVE SMOOTH"
);
},
{
closed = 1;
nodes = (
"644 276 LINE",
"666 276 LINE",
"666 348 LINE SMOOTH",
"666 482.667 OFFCURVE",
"554.667 530 OFFCURVE",
"424 530 CURVE SMOOTH",
"318.667 530 OFFCURVE",
"233.667 494 OFFCURVE",
"155 438 CURVE",
"169 421 LINE",
"243.667 474.333 OFFCURVE",
"332.333 509 OFFCURVE",
"423 509 CURVE SMOOTH",
"560.333 509 OFFCURVE",
"644 459 OFFCURVE",
"644 347 CURVE SMOOTH",
"644 276 LINE"
);
}
);
userData = {
com.schriftgestaltung.Glyphs.glyph.leftMetricsKey = a;
com.schriftgestaltung.Glyphs.glyph.rightMetricsKey = e;
};
width = 1414;
},
{
anchors = (
{
name = bottom;
position = "{492, 0}";
},
{
name = top;
position = "{534, 515}";
}
);
layerId = "63DD228C-6345-4D3B-AA5B-5B558F8D9FC7";
paths = (
{
closed = 1;
nodes = (
"412 -10 OFFCURVE",
"506 52.667 OFFCURVE",
"554 146 CURVE",
"541 165 LINE",
"495.667 73 OFFCURVE",
"405 12 OFFCURVE",
"301 12 CURVE SMOOTH",
"215.667 12 OFFCURVE",
"144 67.667 OFFCURVE",
"144 149 CURVE SMOOTH",
"144 223.667 OFFCURVE",
"208.667 265 OFFCURVE",
"322 265 CURVE SMOOTH",
"992 265 LINE",
"994 291 LINE",
"994 437.667 OFFCURVE",
"901 529 OFFCURVE",
"769 529 CURVE SMOOTH",
"625 529 OFFCURVE",
"524 409.667 OFFCURVE",
"524 263 CURVE SMOOTH",
"524 104.333 OFFCURVE",
"629 -10 OFFCURVE",
"781 -10 CURVE SMOOTH",
"857 -10 OFFCURVE",
"918.667 19.667 OFFCURVE",
"968 65 CURVE",
"956 83 LINE",
"909.333 39 OFFCURVE",
"850.333 12 OFFCURVE",
"781 12 CURVE SMOOTH",
"643.667 12 OFFCURVE",
"547.333 116.333 OFFCURVE",
"546 263 CURVE SMOOTH",
"547.333 405.667 OFFCURVE",
"636 507 OFFCURVE",
"772 507 CURVE SMOOTH",
"882.667 507 OFFCURVE",
"972 421.667 OFFCURVE",
"972 295 CURVE SMOOTH",
"972 272 LINE",
"982 287 LINE",
"328 287 LINE SMOOTH",
"192 287 OFFCURVE",
"122 237 OFFCURVE",
"122 149 CURVE SMOOTH",
"122 53 OFFCURVE",
"198.667 -10 OFFCURVE",
"300 -10 CURVE SMOOTH"
);
},
{
closed = 1;
nodes = (
"524 276 LINE",
"546 276 LINE",
"546 364 LINE SMOOTH",
"546 469.333 OFFCURVE",
"474 530 OFFCURVE",
"354 530 CURVE SMOOTH",
"270 530 OFFCURVE",
"199.667 494.667 OFFCURVE",
"145 428 CURVE",
"161 412 LINE",
"209 473.333 OFFCURVE",
"277 508 OFFCURVE",
"353 508 CURVE SMOOTH",
"462.333 508 OFFCURVE",
"524 452.333 OFFCURVE",
"524 367 CURVE SMOOTH",
"524 276 LINE"
);
}
);
userData = {
com.schriftgestaltung.Glyphs.glyph.leftMetricsKey = a;
com.schriftgestaltung.Glyphs.glyph.rightMetricsKey = e;
};
width = 1169;
},
{
anchors = (
{
name = bottom;
position = "{410, 0}";
},
{
name = top;
position = "{452, 515}";
}
);
layerId = "6D2BDCDA-2583-455F-AF1F-24413162C804";
paths = (
{
closed = 1;
nodes = (
"383.333 -10 OFFCURVE",
"465.333 37.667 OFFCURVE",
"512 107 CURVE",
"468 174 LINE",
"440 119.333 OFFCURVE",
"374 78 OFFCURVE",
"302 78 CURVE SMOOTH",
"252.667 78 OFFCURVE",
"217 107 OFFCURVE",
"217 151 CURVE SMOOTH",
"217 205.667 OFFCURVE",
"261.667 237 OFFCURVE",
"343 237 CURVE SMOOTH",
"940 237 LINE",
"941 281 LINE SMOOTH",
"941 427.667 OFFCURVE",
"839 534.667 OFFCURVE",
"703 536 CURVE SMOOTH",
"563 536 OFFCURVE",
"455 419.667 OFFCURVE",
"455 257 CURVE SMOOTH",
"455 98.333 OFFCURVE",
"564.667 -10 OFFCURVE",
"726 -10 CURVE SMOOTH",
"799.333 -10 OFFCURVE",
"883 22.333 OFFCURVE",
"931 69 CURVE",
"881 144 LINE",
"829 98.667 OFFCURVE",
"788 84 OFFCURVE",
"736 84 CURVE SMOOTH",
"629.333 84 OFFCURVE",
"548 158.667 OFFCURVE",
"548 264 CURVE SMOOTH",
"548 380 OFFCURVE",
"603 441 OFFCURVE",
"703 441 CURVE SMOOTH",
"771 441 OFFCURVE",
"829.333 391.333 OFFCURVE",
"836 326 CURVE",
"836 302 LINE",
"851 319 LINE",
"356 319 LINE SMOOTH",
"201.333 320.333 OFFCURVE",
"120 261 OFFCURVE",
"120 149 CURVE SMOOTH",
"120 53 OFFCURVE",
"196.667 -10 OFFCURVE",
"298 -10 CURVE SMOOTH"
);
},
{
closed = 1;
nodes = (
"455 257 LINE",
"548 263 LINE",
"548 388 LINE SMOOTH",
"548 482.667 OFFCURVE",
"470 536 OFFCURVE",
"346 536 CURVE SMOOTH",
"263.333 536 OFFCURVE",
"190.333 500.333 OFFCURVE",
"133 435 CURVE",
"200 368 LINE",
"238.667 417.333 OFFCURVE",
"285.333 441 OFFCURVE",
"344 441 CURVE SMOOTH",
"402.667 441 OFFCURVE",
"455 405.333 OFFCURVE",
"455 356 CURVE SMOOTH",
"455 257 LINE"
);
}
);
width = 1086;
}
);
leftKerningGroup = ae;
leftMetricsKey = a;
rightKerningGroup = ae;
rightMetricsKey = e;
unicode = 00E6;
},
{
color = 6;
glyphname = b;
layers = (
{
anchors = (
{
name = bottom;
position = "{499, 0}";
},
{
name = top;
position = "{499, 507}";
}
);
layerId = "2433799C-EF5F-488D-8472-913402CB4D17";
paths = (
{
closed = 1;
nodes = (
"732.667 -10 OFFCURVE",
"868 105.333 OFFCURVE",
"868 264 CURVE SMOOTH",
"868 422.667 OFFCURVE",
"727.667 536 OFFCURVE",
"553 536 CURVE SMOOTH",
"414.333 536 OFFCURVE",
"301.667 456 OFFCURVE",
"287 404 CURVE",
"323 405 LINE",
"323 740 LINE",
"220 740 LINE",
"220 3 LINE",
"323 3 LINE",
"323 131 LINE",
"277 127 LINE",
"293 75 OFFCURVE",
"406 -10 OFFCURVE",
"546 -10 CURVE SMOOTH"
);
},
{
closed = 1;
nodes = (
"404.333 86 OFFCURVE",
"308 164 OFFCURVE",
"308 264 CURVE SMOOTH",
"308 365.333 OFFCURVE",
"404.333 441 OFFCURVE",
"539 441 CURVE SMOOTH",
"672.333 441 OFFCURVE",
"768 365.333 OFFCURVE",
"768 264 CURVE SMOOTH",
"768 164 OFFCURVE",
"672.333 86 OFFCURVE",
"539 86 CURVE SMOOTH"
);
}
);
width = 998;
},
{
anchors = (
{
name = bottom;
position = "{497, 0}";
},
{
name = top;
position = "{532, 527}";
}
);
layerId = "864D5338-6115-41AC-9646-57C28F89FFCE";
paths = (
{
closed = 1;
nodes = (
"701.667 -10 OFFCURVE",
"833 107 OFFCURVE",
"833 263 CURVE SMOOTH",
"833 420.333 OFFCURVE",
"708.333 536 OFFCURVE",
"531 536 CURVE SMOOTH",
"389.667 536 OFFCURVE",
"288 476.667 OFFCURVE",
"228 342 CURVE",
"240 342 LINE",
"240 740 LINE",
"218 740 LINE",
"218 0 LINE",
"238 0 LINE",
"240 183 LINE",
"228 184 LINE",
"281.333 46.667 OFFCURVE",
"389.667 -10 OFFCURVE",
"531 -10 CURVE SMOOTH"
);
},
{
closed = 1;
nodes = (
"359 12 OFFCURVE",
"242.667 113 OFFCURVE",
"240 265 CURVE SMOOTH",
"241.333 403.667 OFFCURVE",
"353.667 514 OFFCURVE",
"531 514 CURVE SMOOTH",
"691 514 OFFCURVE",
"812.333 407 OFFCURVE",
"811 263 CURVE SMOOTH",
"809.667 113.667 OFFCURVE",
"688.333 12 OFFCURVE",
"531 12 CURVE SMOOTH"
);
}
);
userData = {
com.schriftgestaltung.Glyphs.glyph.leftMetricsKey = n;
com.schriftgestaltung.Glyphs.glyph.rightMetricsKey = o;
};
width = 963;
},
{
anchors = (
{
name = bottom;
position = "{462, 0}";
},
{
name = top;
position = "{462, 510}";
}
);
layerId = "63DD228C-6345-4D3B-AA5B-5B558F8D9FC7";
paths = (
{
closed = 1;
nodes = (
"597.333 -10 OFFCURVE",
"710 104.667 OFFCURVE",
"710 262 CURVE SMOOTH",
"710 418 OFFCURVE",
"602.667 530 OFFCURVE",
"456 530 CURVE SMOOTH",
"348 530 OFFCURVE",
"257.667 453 OFFCURVE",
"231 345 CURVE",
"240 348 LINE",
"240 740 LINE",
"218 740 LINE",
"218 0 LINE",
"238 0 LINE",
"240 167 LINE",
"234 170 LINE",
"252.667 67.333 OFFCURVE",
"353.333 -10 OFFCURVE",
"460 -10 CURVE SMOOTH"
);
},
{
closed = 1;
nodes = (
"333.667 12 OFFCURVE",
"240 116 OFFCURVE",
"240 260 CURVE SMOOTH",
"240 406.667 OFFCURVE",
"334.333 508 OFFCURVE",
"457 508 CURVE SMOOTH",
"594.333 508 OFFCURVE",
"688 403.333 OFFCURVE",
"688 262 CURVE SMOOTH",
"688 116.667 OFFCURVE",
"593.667 12 OFFCURVE",
"459 12 CURVE SMOOTH"
);
}
);
userData = {
com.schriftgestaltung.Glyphs.glyph.leftMetricsKey = n;
com.schriftgestaltung.Glyphs.glyph.rightMetricsKey = o;
};
width = 880;
},
{
anchors = (
{
name = bottom;
position = "{316, 0}";
},
{
name = top;
position = "{316, 510}";
}
);
layerId = "6D2BDCDA-2583-455F-AF1F-24413162C804";
paths = (
{
closed = 1;
nodes = (
"634.667 -10 OFFCURVE",
"738 106.667 OFFCURVE",
"738 264 CURVE SMOOTH",
"738 422.667 OFFCURVE",
"634.333 536 OFFCURVE",
"493 536 CURVE SMOOTH",
"407.667 536 OFFCURVE",
"319 474 OFFCURVE",
"307 414 CURVE",
"323 405 LINE",
"323 740 LINE",
"220 740 LINE",
"220 3 LINE",
"323 3 LINE",
"323 131 LINE",
"297 117 LINE",
"311.667 55.667 OFFCURVE",
"404 -10 OFFCURVE",
"496 -10 CURVE SMOOTH"
);
},
{
closed = 1;
nodes = (
"385.667 84 OFFCURVE",
"318 160 OFFCURVE",
"318 264 CURVE SMOOTH",
"318 366.667 OFFCURVE",
"385.667 442 OFFCURVE",
"479 442 CURVE SMOOTH",
"572.333 442 OFFCURVE",
"639 366.667 OFFCURVE",
"639 264 CURVE SMOOTH",
"639 160 OFFCURVE",
"571 84 OFFCURVE",
"479 84 CURVE SMOOTH"
);
}
);
width = 868;
}
);
leftKerningGroup = b;
leftMetricsKey = n;
rightKerningGroup = b;
rightMetricsKey = o;
unicode = 0062;
},
{
color = 6;
glyphname = c;
layers = (
{
anchors = (
{
name = bottom;
position = "{435, 0}";
},
{
name = top;
position = "{455, 525}";
}
);
layerId = "2433799C-EF5F-488D-8472-913402CB4D17";
paths = (
{
closed = 1;
nodes = (
"580.333 -10 OFFCURVE",
"675.333 30.667 OFFCURVE",
"750 76 CURVE",
"694 156 LINE",
"638 122.667 OFFCURVE",
"564 83 OFFCURVE",
"456 83 CURVE SMOOTH",
"334.667 83 OFFCURVE",
"238 159 OFFCURVE",
"238 263 CURVE SMOOTH",
"238 367 OFFCURVE",
"325.667 443 OFFCURVE",
"455 443 CURVE SMOOTH",
"540.333 443 OFFCURVE",
"637.333 402 OFFCURVE",
"692 350 CURVE",
"750 434 LINE",
"690 498 OFFCURVE",
"577.667 536 OFFCURVE",
"455 536 CURVE SMOOTH",
"271 536 OFFCURVE",
"130 417.667 OFFCURVE",
"130 263 CURVE SMOOTH",
"130 108.333 OFFCURVE",
"271 -10 OFFCURVE",
"455 -10 CURVE SMOOTH"
);
}
);
width = 880;
},
{
anchors = (
{
name = bottom;
position = "{465, 0}";
},
{
name = top;
position = "{470, 525}";
}
);
layerId = "864D5338-6115-41AC-9646-57C28F89FFCE";
paths = (
{
closed = 1;
nodes = (
"588.667 -10 OFFCURVE",
"673.333 21.333 OFFCURVE",
"744 60 CURVE",
"733 80 LINE",
"677 49.333 OFFCURVE",
"598.667 12 OFFCURVE",
"456 12 CURVE SMOOTH",
"292 12 OFFCURVE",
"152 111 OFFCURVE",
"152 263 CURVE SMOOTH",
"152 405.667 OFFCURVE",
"278.667 514 OFFCURVE",
"456 514 CURVE SMOOTH",
"588 514 OFFCURVE",
"680.667 467.667 OFFCURVE",
"734 429 CURVE",
"746 447 LINE",
"668.667 500.333 OFFCURVE",
"568.667 536 OFFCURVE",
"466 536 CURVE SMOOTH",
"271.333 536 OFFCURVE",
"130 419 OFFCURVE",
"130 263 CURVE SMOOTH",
"130 104.333 OFFCURVE",
"267.333 -10 OFFCURVE",
"466 -10 CURVE SMOOTH"
);
}
);
userData = {
com.schriftgestaltung.Glyphs.glyph.leftMetricsKey = o;
};
width = 871;
},
{
anchors = (
{
name = bottom;
position = "{362, 0}";
},
{
name = top;
position = "{402, 530}";
}
);
layerId = "63DD228C-6345-4D3B-AA5B-5B558F8D9FC7";
paths = (
{
closed = 1;
nodes = (
"478.667 -10 OFFCURVE",
"546 23.667 OFFCURVE",
"594 77 CURVE",
"578 93 LINE",
"534 42.333 OFFCURVE",
"470.667 12 OFFCURVE",
"396 12 CURVE SMOOTH",
"254.667 12 OFFCURVE",
"153.333 116.333 OFFCURVE",
"152 263 CURVE SMOOTH",
"153.333 405.667 OFFCURVE",
"254.667 508 OFFCURVE",
"396 508 CURVE SMOOTH",
"472 508 OFFCURVE",
"536 476.667 OFFCURVE",
"580 426 CURVE",
"596 443 LINE",
"549.333 496.333 OFFCURVE",
"480 530 OFFCURVE",
"396 530 CURVE SMOOTH",
"240 530 OFFCURVE",
"130 419 OFFCURVE",
"130 263 CURVE SMOOTH",
"130 104.333 OFFCURVE",
"240 -10 OFFCURVE",
"396 -10 CURVE SMOOTH"
);
}
);
userData = {
com.schriftgestaltung.Glyphs.glyph.leftMetricsKey = o;
};
width = 741;
},
{
anchors = (
{
name = bottom;
position = "{352, -2}";
},
{
name = top;
position = "{380, 528}";
}
);
layerId = "6D2BDCDA-2583-455F-AF1F-24413162C804";
paths = (
{
closed = 1;
nodes = (
"470.333 -10 OFFCURVE",
"557.333 33 OFFCURVE",
"600 93 CURVE",
"543 163 LINE",
"500.333 111 OFFCURVE",
"449.333 83 OFFCURVE",
"396 83 CURVE SMOOTH",
"304 83 OFFCURVE",
"228 161.667 OFFCURVE",
"228 263 CURVE SMOOTH",
"228 365.667 OFFCURVE",
"299 443 OFFCURVE",
"395 443 CURVE SMOOTH",
"447 443 OFFCURVE",
"511 406.667 OFFCURVE",
"543 360 CURVE",
"600 430 LINE",
"560 495.333 OFFCURVE",
"478.333 536 OFFCURVE",
"385 536 CURVE SMOOTH",
"239.667 536 OFFCURVE",
"130 417.667 OFFCURVE",
"130 263 CURVE SMOOTH",
"130 108.333 OFFCURVE",
"239.667 -10 OFFCURVE",
"385 -10 CURVE SMOOTH"
);
}
);
width = 730;
}
);
leftKerningGroup = c;
leftMetricsKey = o;
rightKerningGroup = c;
unicode = 0063;
},
{
color = 6;
glyphname = d;
layers = (
{
anchors = (
{
name = bottom;
position = "{492, 0}";
},
{
name = center;
position = "{721, 616}";
},
{
name = top;
position = "{492, 740}";
},
{
name = topright;
position = "{964, 700}";
}
);
layerId = "2433799C-EF5F-488D-8472-913402CB4D17";
paths = (
{
closed = 1;
nodes = (
"573.333 -10 OFFCURVE",
"701 75.667 OFFCURVE",
"701 137 CURVE",
"681 145 LINE",
"681 0 LINE",
"784 0 LINE",
"784 740 LINE",
"681 740 LINE",
"681 389 LINE",
"711 391 LINE",
"711 453.667 OFFCURVE",
"592.667 536 OFFCURVE",
"438 536 CURVE SMOOTH",
"251.333 536 OFFCURVE",
"120 421.667 OFFCURVE",
"120 263 CURVE SMOOTH",
"120 104.333 OFFCURVE",
"241.333 -10 OFFCURVE",
"432 -10 CURVE SMOOTH"
);
},
{
closed = 1;
nodes = (
"320.333 85 OFFCURVE",
"225 161.667 OFFCURVE",
"225 263 CURVE SMOOTH",
"225 363 OFFCURVE",
"320.333 440 OFFCURVE",
"455 440 CURVE SMOOTH",
"591 440 OFFCURVE",
"685 363 OFFCURVE",
"685 263 CURVE SMOOTH",
"685 161.667 OFFCURVE",
"591 85 OFFCURVE",
"455 85 CURVE SMOOTH"
);
}
);
width = 964;
},
{
anchors = (
{
name = bottom;
position = "{442, 0}";
},
{
name = center;
position = "{721, 616}";
},
{
name = top;
position = "{492, 740}";
},
{
name = topright;
position = "{964, 700}";
}
);
layerId = "864D5338-6115-41AC-9646-57C28F89FFCE";
paths = (
{
closed = 1;
nodes = (
"573.333 -10 OFFCURVE",
"681.667 46.667 OFFCURVE",
"735 184 CURVE",
"723 183 LINE",
"725 0 LINE",
"745 0 LINE",
"745 740 LINE",
"723 740 LINE",
"723 342 LINE",
"735 342 LINE",
"675 476.667 OFFCURVE",
"573.333 536 OFFCURVE",
"432 536 CURVE SMOOTH",
"254.667 536 OFFCURVE",
"130 420.333 OFFCURVE",
"130 263 CURVE SMOOTH",
"130 107 OFFCURVE",
"261.333 -10 OFFCURVE",
"432 -10 CURVE SMOOTH"
);
},
{
closed = 1;
nodes = (
"274.667 12 OFFCURVE",
"153.333 113.667 OFFCURVE",
"152 263 CURVE SMOOTH",
"150.667 407 OFFCURVE",
"272 514 OFFCURVE",
"432 514 CURVE SMOOTH",
"609.333 514 OFFCURVE",
"721.667 403.667 OFFCURVE",
"723 265 CURVE SMOOTH",
"720.333 113 OFFCURVE",
"604 12 OFFCURVE",
"432 12 CURVE SMOOTH"
);
}
);
width = 965;
},
{
anchors = (
{
name = bottom;
position = "{411, -20}";
},
{
name = center;
position = "{576, 614}";
},
{
name = top;
position = "{411, 530}";
},
{
name = topright;
position = "{698, 700}";
}
);
layerId = "63DD228C-6345-4D3B-AA5B-5B558F8D9FC7";
paths = (
{
closed = 1;
nodes = (
"492 -10 OFFCURVE",
"582.333 67 OFFCURVE",
"609 175 CURVE",
"600 172 LINE",
"600 0 LINE",
"622 0 LINE",
"622 740 LINE",
"600 740 LINE",
"600 353 LINE",
"606 350 LINE",
"587.333 452.667 OFFCURVE",
"486.667 530 OFFCURVE",
"380 530 CURVE SMOOTH",
"242.667 530 OFFCURVE",
"130 415.333 OFFCURVE",
"130 258 CURVE SMOOTH",
"130 102 OFFCURVE",
"237.333 -10 OFFCURVE",
"384 -10 CURVE SMOOTH"
);
},
{
closed = 1;
nodes = (
"245.667 12 OFFCURVE",
"152 116.667 OFFCURVE",
"152 258 CURVE SMOOTH",
"152 403.333 OFFCURVE",
"246.333 508 OFFCURVE",
"381 508 CURVE SMOOTH",
"506.333 508 OFFCURVE",
"600 404 OFFCURVE",
"600 260 CURVE SMOOTH",
"600 113.333 OFFCURVE",
"505.667 12 OFFCURVE",
"383 12 CURVE SMOOTH"
);
}
);
width = 914;
},
{
anchors = (
{
name = bottom;
position = "{366, -20}";
},
{
name = center;
position = "{531, 614}";
},
{
name = top;
position = "{366, 530}";
},
{
name = topright;
position = "{772, 700}";
}
);
layerId = "6D2BDCDA-2583-455F-AF1F-24413162C804";
paths = (
{
closed = 1;
nodes = (
"468.333 -10 OFFCURVE",
"561 62.333 OFFCURVE",
"561 125 CURVE",
"541 125 LINE",
"541 0 LINE",
"644 0 LINE",
"644 740 LINE",
"541 740 LINE",
"541 389 LINE",
"571 391 LINE",
"571 460.333 OFFCURVE",
"473.333 536 OFFCURVE",
"368 536 CURVE SMOOTH",
"226.667 536 OFFCURVE",
"120 420.333 OFFCURVE",
"120 263 CURVE SMOOTH",
"120 105.667 OFFCURVE",
"227 -10 OFFCURVE",
"371 -10 CURVE SMOOTH"
);
},
{
closed = 1;
nodes = (
"291.667 79 OFFCURVE",
"225 156.333 OFFCURVE",
"225 263 CURVE SMOOTH",
"225 369.667 OFFCURVE",
"291.667 447 OFFCURVE",
"385 447 CURVE SMOOTH",
"478.333 447 OFFCURVE",
"545 369.667 OFFCURVE",
"545 263 CURVE SMOOTH",
"545 156.333 OFFCURVE",
"478.333 79 OFFCURVE",
"385 79 CURVE SMOOTH"
);
}
);
width = 824;
}
);
leftKerningGroup = c;
rightKerningGroup = d;
unicode = 0064;
},
{
color = 6;
glyphname = eth;
layers = (
{
layerId = "2433799C-EF5F-488D-8472-913402CB4D17";
paths = (
{
closed = 1;
nodes = (
"628.095 -7 OFFCURVE",
"774 103 OFFCURVE",
"774 283 CURVE SMOOTH",
"774 480.333 OFFCURVE",
"584.433 680.299 OFFCURVE",
"471 740 CURVE",
"419 672 LINE",
"549.348 582.448 OFFCURVE",
"664 456.393 OFFCURVE",
"664 335 CURVE",
"698 348 LINE",
"672.129 446.508 OFFCURVE",
"583.259 528 OFFCURVE",
"435 528 CURVE SMOOTH",
"264.851 528 OFFCURVE",
"130 410.259 OFFCURVE",
"130 262 CURVE SMOOTH",
"130 112.747 OFFCURVE",
"250.98 -7 OFFCURVE",
"447 -7 CURVE SMOOTH"
);
},
{
closed = 1;
nodes = (
"329.587 79 OFFCURVE",
"235 159.333 OFFCURVE",
"235 262 CURVE SMOOTH",
"235 363.333 OFFCURVE",
"325.557 442 OFFCURVE",
"437 442 CURVE SMOOTH",
"567.348 442 OFFCURVE",
"667 359.512 OFFCURVE",
"667 262 CURVE SMOOTH",
"667 159.512 OFFCURVE",
"569.388 79 OFFCURVE",
"447 79 CURVE SMOOTH"
);
},
{
closed = 1;
nodes = (
"386 548 LINE",
"583 574 LINE",
"624 591 LINE",
"737 597 LINE",
"719 663 LINE",
"573 650 LINE",
"518 630 LINE",
"373 613 LINE",
"386 548 LINE"
);
}
);
width = 904;
},
{
layerId = "864D5338-6115-41AC-9646-57C28F89FFCE";
paths = (
{
closed = 1;
nodes = (
"638.667 -10 OFFCURVE",
"776 103.667 OFFCURVE",
"776 261 CURVE SMOOTH",
"776 489 OFFCURVE",
"587 684.333 OFFCURVE",
"471 739 CURVE",
"451 728 LINE",
"584.333 662.667 OFFCURVE",
"755 457.667 OFFCURVE",
"747 327 CURVE",
"761 333 LINE",
"727.667 443.667 OFFCURVE",
"609 527 OFFCURVE",
"437 527 CURVE SMOOTH",
"258.333 527 OFFCURVE",
"130 416.333 OFFCURVE",
"130 263 CURVE SMOOTH",
"130 104.333 OFFCURVE",
"262.667 -10 OFFCURVE",
"448 -10 CURVE SMOOTH"
);
},
{
closed = 1;
nodes = (
"276 12 OFFCURVE",
"152 116.333 OFFCURVE",
"152 263 CURVE SMOOTH",
"152 404.333 OFFCURVE",
"271.333 505 OFFCURVE",
"438 505 CURVE SMOOTH",
"620.667 505 OFFCURVE",
"753 404.333 OFFCURVE",
"753 263 CURVE SMOOTH",
"753 116.333 OFFCURVE",
"625.333 12 OFFCURVE",
"448 12 CURVE SMOOTH"
);
},
{
closed = 1;
nodes = (
"394 594 LINE",
"592 623 LINE",
"607 626 LINE",
"722 643 LINE",
"717 664 LINE",
"587 644 LINE",
"574 641 LINE",
"390 616 LINE",
"394 594 LINE"
);
}
);
userData = {
com.schriftgestaltung.Glyphs.glyph.leftMetricsKey = o;
com.schriftgestaltung.Glyphs.glyph.rightMetricsKey = o;
};
width = 906;
},
{
layerId = "63DD228C-6345-4D3B-AA5B-5B558F8D9FC7";
paths = (
{
closed = 1;
nodes = (
"522 -10 OFFCURVE",
"626 104.333 OFFCURVE",
"626 259 CURVE SMOOTH",
"626 533.667 OFFCURVE",
"501 696.333 OFFCURVE",
"301 739 CURVE",
"291 718 LINE",
"449.667 690 OFFCURVE",
"591 532.333 OFFCURVE",
"591 371 CURVE",
"601 369 LINE",
"591.667 441 OFFCURVE",
"492.667 527 OFFCURVE",
"382 527 CURVE SMOOTH",
"235.333 527 OFFCURVE",
"130 421.667 OFFCURVE",
"130 263 CURVE SMOOTH",
"130 101.667 OFFCURVE",
"231.333 -10 OFFCURVE",
"378 -10 CURVE SMOOTH"
);
},
{
closed = 1;
nodes = (
"246 12 OFFCURVE",
"153 116.333 OFFCURVE",
"153 263 CURVE SMOOTH",
"153 405.667 OFFCURVE",
"246 505 OFFCURVE",
"378 505 CURVE SMOOTH",
"510 505 OFFCURVE",
"603 405.667 OFFCURVE",
"603 263 CURVE SMOOTH",
"603 116.333 OFFCURVE",
"510 12 OFFCURVE",
"378 12 CURVE SMOOTH"
);
},
{
closed = 1;
nodes = (
"254 574 LINE",
"470 632 LINE",
"485 636 LINE",
"583 663 LINE",
"577 684 LINE",
"465 653 LINE",
"452 650 LINE",
"250 596 LINE",
"254 574 LINE"
);
}
);
userData = {
com.schriftgestaltung.Glyphs.glyph.leftMetricsKey = o;
com.schriftgestaltung.Glyphs.glyph.rightMetricsKey = o;
};
width = 796;
},
{
layerId = "6D2BDCDA-2583-455F-AF1F-24413162C804";
paths = (
{
closed = 1;
nodes = (
"521 -7 OFFCURVE",
"624 110.333 OFFCURVE",
"624 281 CURVE SMOOTH",
"624 525 OFFCURVE",
"498.333 692 OFFCURVE",
"301 740 CURVE",
"259 662 LINE",
"431 610 OFFCURVE",
"500 533.667 OFFCURVE",
"508 379 CURVE",
"558 348 LINE",
"536.667 458.667 OFFCURVE",
"465 528 OFFCURVE",
"365 528 CURVE SMOOTH",
"241 528 OFFCURVE",
"130 406 OFFCURVE",
"130 262 CURVE SMOOTH",
"130 111.333 OFFCURVE",
"239.667 -7 OFFCURVE",
"377 -7 CURVE SMOOTH"
);
},
{
closed = 1;
nodes = (
"293 89 OFFCURVE",
"227 164.667 OFFCURVE",
"227 262 CURVE SMOOTH",
"227 358 OFFCURVE",
"293 432 OFFCURVE",
"377 432 CURVE SMOOTH",
"461 432 OFFCURVE",
"527 356.667 OFFCURVE",
"527 262 CURVE SMOOTH",
"527 164.667 OFFCURVE",
"461 89 OFFCURVE",
"377 89 CURVE SMOOTH"
);
},
{
closed = 1;
nodes = (
"246 528 LINE",
"443 574 LINE",
"484 591 LINE",
"597 617 LINE",
"579 683 LINE",
"433 650 LINE",
"378 630 LINE",
"233 593 LINE",
"246 528 LINE"
);
}
);
width = 754;
}
);
leftKerningGroup = c;
leftMetricsKey = o;
rightMetricsKey = o;
unicode = 00F0;
},
{
color = 6;
glyphname = e;
layers = (
{
anchors = (
{
name = bottom;
position = "{466, 0}";
},
{
name = ogonek;
position = "{604, 10}";
},
{
name = top;
position = "{466, 525}";
}
);
layerId = "2433799C-EF5F-488D-8472-913402CB4D17";
paths = (
{
closed = 1;
nodes = (
"589 -10 OFFCURVE",
"702 27.667 OFFCURVE",
"762 69 CURVE",
"717 147 LINE",
"673 121.667 OFFCURVE",
"605 86 OFFCURVE",
"497 86 CURVE SMOOTH",
"334.333 86 OFFCURVE",
"222 156 OFFCURVE",
"222 264 CURVE SMOOTH",
"222 394.667 OFFCURVE",
"330.667 442 OFFCURVE",
"468 442 CURVE SMOOTH",
"572 442 OFFCURVE",
"670.333 395 OFFCURVE",
"681 327 CURVE",
"681 303 LINE",
"696 310 LINE",
"193 310 LINE",
"216 228 LINE",
"785 228 LINE",
"786 282 LINE SMOOTH",
"786 432.667 OFFCURVE",
"642.667 535.667 OFFCURVE",
"468 537 CURVE SMOOTH",
"281.333 535.667 OFFCURVE",
"120 431.667 OFFCURVE",
"120 257 CURVE SMOOTH",
"120 102.333 OFFCURVE",
"267.667 -10 OFFCURVE",
"477 -10 CURVE SMOOTH"
);
}
);
width = 931;
},
{
anchors = (
{
name = bottom;
position = "{448, 0}";
},
{
name = ogonek;
position = "{608, 10}";
},
{
name = top;
position = "{448, 525}";
}
);
layerId = "864D5338-6115-41AC-9646-57C28F89FFCE";
paths = (
{
closed = 1;
nodes = (
"582.667 -10 OFFCURVE",
"644.667 15 OFFCURVE",
"722 63 CURVE",
"717 86 LINE",
"659.667 48.667 OFFCURVE",
"587 14 OFFCURVE",
"467 14 CURVE SMOOTH",
"277.667 14 OFFCURVE",
"143.333 117.667 OFFCURVE",
"142 263 CURVE SMOOTH",
"143.333 420.333 OFFCURVE",
"282.667 514 OFFCURVE",
"448 514 CURVE SMOOTH",
"601.333 514 OFFCURVE",
"728 427 OFFCURVE",
"728 295 CURVE SMOOTH",
"728 270 LINE",
"738 277 LINE",
"132 277 LINE",
"132 255 LINE",
"749 255 LINE",
"750 291 LINE SMOOTH",
"750 441.667 OFFCURVE",
"615.667 536 OFFCURVE",
"445 536 CURVE SMOOTH",
"270.333 536 OFFCURVE",
"120 428.333 OFFCURVE",
"120 263 CURVE SMOOTH",
"120 105.667 OFFCURVE",
"254.667 -10 OFFCURVE",
"468 -10 CURVE SMOOTH"
);
}
);
width = 890;
},
{
anchors = (
{
name = bottom;
position = "{372, 0}";
},
{
name = ogonek;
position = "{478, 10}";
},
{
name = top;
position = "{373, 530}";
}
);
layerId = "63DD228C-6345-4D3B-AA5B-5B558F8D9FC7";
paths = (
{
closed = 1;
nodes = (
"453 -10 OFFCURVE",
"514.667 19.667 OFFCURVE",
"564 65 CURVE",
"552 83 LINE",
"505.333 39 OFFCURVE",
"446.333 12 OFFCURVE",
"377 12 CURVE SMOOTH",
"239.667 12 OFFCURVE",
"143.333 116.333 OFFCURVE",
"142 263 CURVE SMOOTH",
"143.333 405.667 OFFCURVE",
"232 508 OFFCURVE",
"368 508 CURVE SMOOTH",
"478.667 508 OFFCURVE",
"568 421.667 OFFCURVE",
"568 295 CURVE",
"566 270 LINE",
"578 287 LINE",
"132 287 LINE",
"132 265 LINE",
"589 265 LINE",
"590 291 LINE SMOOTH",
"590 437.667 OFFCURVE",
"497 530 OFFCURVE",
"365 530 CURVE SMOOTH",
"221 530 OFFCURVE",
"120 419 OFFCURVE",
"120 263 CURVE SMOOTH",
"120 104.333 OFFCURVE",
"225 -10 OFFCURVE",
"377 -10 CURVE SMOOTH"
);
}
);
width = 765;
},
{
anchors = (
{
name = bottom;
position = "{375, -20}";
},
{
name = ogonek;
position = "{491, 10}";
},
{
name = top;
position = "{376, 530}";
}
);
layerId = "6D2BDCDA-2583-455F-AF1F-24413162C804";
paths = (
{
closed = 1;
nodes = (
"471.667 -10 OFFCURVE",
"554.667 23 OFFCURVE",
"604 71 CURVE",
"552 144 LINE",
"500 98.667 OFFCURVE",
"459 84 OFFCURVE",
"407 84 CURVE SMOOTH",
"296.333 84 OFFCURVE",
"222 154.667 OFFCURVE",
"222 264 CURVE SMOOTH",
"222 380 OFFCURVE",
"280 442 OFFCURVE",
"388 442 CURVE SMOOTH",
"456 442 OFFCURVE",
"514.333 392.333 OFFCURVE",
"521 327 CURVE",
"521 303 LINE",
"536 320 LINE",
"173 320 LINE",
"196 238 LINE",
"625 238 LINE",
"626 282 LINE SMOOTH",
"626 428.667 OFFCURVE",
"524 535.667 OFFCURVE",
"388 537 CURVE SMOOTH",
"232 535.667 OFFCURVE",
"120 422.333 OFFCURVE",
"120 257 CURVE SMOOTH",
"120 101 OFFCURVE",
"234.333 -10 OFFCURVE",
"397 -10 CURVE SMOOTH"
);
}
);
width = 771;
}
);
leftKerningGroup = c;
rightKerningGroup = e;
unicode = 0065;
},
{
color = 6;
glyphname = f;
layers = (
{
anchors = (
{
name = bottom;
position = "{365, 0}";
},
{
name = top;
position = "{941, 506}";
}
);
layerId = "2433799C-EF5F-488D-8472-913402CB4D17";
paths = (
{
closed = 1;
nodes = (
"269 0 LINE",
"289.667 0 OFFCURVE",
"305.333 0 OFFCURVE",
"316 0 CURVE SMOOTH",
"326.667 0 OFFCURVE",
"342.333 0 OFFCURVE",
"363 0 CURVE",
"363 524 LINE SMOOTH",
"363 585.333 OFFCURVE",
"397 643 OFFCURVE",
"497 643 CURVE SMOOTH",
"531.667 643 OFFCURVE",
"571 623.333 OFFCURVE",
"595 606 CURVE",
"630 695 LINE",
"608.667 713.667 OFFCURVE",
"557 739 OFFCURVE",
"485 739 CURVE SMOOTH",
"358.333 739 OFFCURVE",
"269 649.333 OFFCURVE",
"269 524 CURVE SMOOTH",
"269 0 LINE"
);
},
{
closed = 1;
nodes = (
"145 411 LINE",
"597 411 LINE",
"597 506 LINE",
"145 506 LINE",
"145 411 LINE"
);
}
);
width = 730;
},
{
anchors = (
{
name = bottom;
position = "{365, 0}";
},
{
name = top;
position = "{444, 741}";
}
);
layerId = "864D5338-6115-41AC-9646-57C28F89FFCE";
paths = (
{
closed = 1;
nodes = (
"280 0 LINE",
"284.667 0 OFFCURVE",
"288.333 0 OFFCURVE",
"291 0 CURVE SMOOTH",
"293.667 0 OFFCURVE",
"297.333 0 OFFCURVE",
"302 0 CURVE",
"302 565 LINE SMOOTH",
"302 666.333 OFFCURVE",
"344.333 728 OFFCURVE",
"443 728 CURVE SMOOTH",
"493.667 728 OFFCURVE",
"539.667 714.333 OFFCURVE",
"569 689 CURVE",
"580 708 LINE",
"548 734.667 OFFCURVE",
"499.667 750 OFFCURVE",
"445 750 CURVE SMOOTH",
"341 750 OFFCURVE",
"280 687.333 OFFCURVE",
"280 566 CURVE SMOOTH",
"280 0 LINE"
);
},
{
closed = 1;
nodes = (
"130 503 LINE",
"554 503 LINE",
"554 525 LINE",
"130 525 LINE",
"130 503 LINE"
);
}
);
width = 677;
},
{
anchors = (
{
name = bottom;
position = "{297, 0}";
},
{
name = top;
position = "{297, 510}";
}
);
layerId = "63DD228C-6345-4D3B-AA5B-5B558F8D9FC7";
paths = (
{
closed = 1;
nodes = (
"240 0 LINE",
"244 0 OFFCURVE",
"248.667 0 OFFCURVE",
"254 0 CURVE SMOOTH",
"259.333 0 OFFCURVE",
"262 0 OFFCURVE",
"262 0 CURVE",
"262 625 LINE SMOOTH",
"262 703.667 OFFCURVE",
"295 728 OFFCURVE",
"343 728 CURVE SMOOTH",
"377.667 728 OFFCURVE",
"402 719.667 OFFCURVE",
"426 693 CURVE",
"440 708 LINE",
"421.333 733.333 OFFCURVE",
"393 750 OFFCURVE",
"345 750 CURVE SMOOTH",
"282.333 750 OFFCURVE",
"240 714 OFFCURVE",
"240 626 CURVE SMOOTH",
"240 0 LINE"
);
},
{
closed = 1;
nodes = (
"130 503 LINE",
"414 503 LINE",
"414 525 LINE",
"130 525 LINE",
"130 503 LINE"
);
}
);
width = 537;
},
{
anchors = (
{
name = bottom;
position = "{197, 0}";
},
{
name = top;
position = "{197, 510}";
}
);
layerId = "6D2BDCDA-2583-455F-AF1F-24413162C804";
paths = (
{
closed = 1;
nodes = (
"229 0 LINE",
"246.333 0 OFFCURVE",
"263.667 0 OFFCURVE",
"281 0 CURVE SMOOTH",
"298.333 0 OFFCURVE",
"315.667 0 OFFCURVE",
"333 0 CURVE",
"333 584 LINE SMOOTH",
"333 622.667 OFFCURVE",
"354.333 643 OFFCURVE",
"397 643 CURVE SMOOTH",
"415.667 643 OFFCURVE",
"437.667 632 OFFCURVE",
"455 616 CURVE",
"490 695 LINE",
"467.333 721.667 OFFCURVE",
"427.667 739 OFFCURVE",
"385 739 CURVE SMOOTH",
"293 739 OFFCURVE",
"229 674.667 OFFCURVE",
"229 584 CURVE SMOOTH",
"229 0 LINE"
);
},
{
closed = 1;
nodes = (
"145 421 LINE",
"457 421 LINE",
"457 516 LINE",
"145 516 LINE",
"145 421 LINE"
);
}
);
width = 590;
}
);
leftKerningGroup = f;
rightKerningGroup = f;
unicode = 0066;
},
{
color = 6;
glyphname = g;
layers = (
{
anchors = (
{
name = bottom;
position = "{511, -230}";
},
{
name = top;
position = "{511, 525}";
}
);
layerId = "2433799C-EF5F-488D-8472-913402CB4D17";
paths = (
{
closed = 1;
nodes = (
"652.333 -230 OFFCURVE",
"801 -133.333 OFFCURVE",
"801 72 CURVE SMOOTH",
"801 525 LINE",
"698 525 LINE",
"698 402 LINE",
"720 410 LINE",
"720 432.667 OFFCURVE",
"694.333 459.333 OFFCURVE",
"643 490 CURVE SMOOTH",
"591.667 520.667 OFFCURVE",
"527.667 536 OFFCURVE",
"451 536 CURVE SMOOTH",
"261.667 536 OFFCURVE",
"130 421.667 OFFCURVE",
"130 263 CURVE SMOOTH",
"130 104.333 OFFCURVE",
"252.667 -10 OFFCURVE",
"434 -10 CURVE SMOOTH",
"571.333 -10 OFFCURVE",
"695.667 56.667 OFFCURVE",
"709 114 CURVE",
"698 121 LINE",
"698 60 LINE SMOOTH",
"698 -66.667 OFFCURVE",
"615 -138 OFFCURVE",
"499 -138 CURVE SMOOTH",
"395 -138 OFFCURVE",
"320 -102.333 OFFCURVE",
"276 -81 CURVE",
"240 -167 LINE",
"292 -200.333 OFFCURVE",
"377.667 -230 OFFCURVE",
"499 -230 CURVE SMOOTH"
);
},
{
closed = 1;
nodes = (
"336.333 85 OFFCURVE",
"235 161.667 OFFCURVE",
"235 263 CURVE SMOOTH",
"235 364.333 OFFCURVE",
"336.333 442 OFFCURVE",
"475 442 CURVE SMOOTH",
"609.667 442 OFFCURVE",
"702 365.667 OFFCURVE",
"702 263 CURVE SMOOTH",
"702 160.333 OFFCURVE",
"609.667 85 OFFCURVE",
"475 85 CURVE SMOOTH"
);
}
);
width = 1001;
},
{
anchors = (
{
name = bottom;
position = "{461, -230}";
},
{
name = top;
position = "{461, 525}";
}
);
layerId = "864D5338-6115-41AC-9646-57C28F89FFCE";
paths = (
{
closed = 1;
nodes = (
"606.333 -240 OFFCURVE",
"745 -160.333 OFFCURVE",
"745 61 CURVE SMOOTH",
"745 525 LINE",
"725 525 LINE",
"723 342 LINE",
"735 341 LINE",
"681.667 478.333 OFFCURVE",
"573.333 535 OFFCURVE",
"432 535 CURVE SMOOTH",
"261.333 535 OFFCURVE",
"130 418 OFFCURVE",
"130 262 CURVE SMOOTH",
"130 104.667 OFFCURVE",
"254.667 -5 OFFCURVE",
"432 -5 CURVE SMOOTH",
"573.333 -5 OFFCURVE",
"675 48.333 OFFCURVE",
"735 183 CURVE",
"723 183 LINE",
"723 51 LINE SMOOTH",
"723 -138.333 OFFCURVE",
"597.667 -218 OFFCURVE",
"467 -218 CURVE SMOOTH",
"369.667 -218 OFFCURVE",
"298.333 -188.333 OFFCURVE",
"245 -143 CURVE",
"236 -165 LINE",
"285.333 -206.333 OFFCURVE",
"369 -240 OFFCURVE",
"469 -240 CURVE SMOOTH"
);
},
{
closed = 1;
nodes = (
"272 17 OFFCURVE",
"150.667 118 OFFCURVE",
"152 262 CURVE SMOOTH",
"153.333 411.333 OFFCURVE",
"274.667 513 OFFCURVE",
"432 513 CURVE SMOOTH",
"604 513 OFFCURVE",
"720.333 412 OFFCURVE",
"723 260 CURVE SMOOTH",
"721.667 121.333 OFFCURVE",
"609.333 17 OFFCURVE",
"432 17 CURVE SMOOTH"
);
}
);
userData = {
com.schriftgestaltung.Glyphs.glyph.leftMetricsKey = o;
};
width = 945;
},
{
anchors = (
{
name = bottom;
position = "{392, 0}";
},
{
name = top;
position = "{392, 535}";
}
);
layerId = "63DD228C-6345-4D3B-AA5B-5B558F8D9FC7";
paths = (
{
closed = 1;
nodes = (
"514.667 -240 OFFCURVE",
"622 -141.667 OFFCURVE",
"622 21 CURVE SMOOTH",
"622 525 LINE",
"602 525 LINE",
"600 353 LINE",
"606 350 LINE",
"587.333 452.667 OFFCURVE",
"486.667 530 OFFCURVE",
"380 530 CURVE SMOOTH",
"242.667 530 OFFCURVE",
"130 415.333 OFFCURVE",
"130 258 CURVE SMOOTH",
"130 102 OFFCURVE",
"237.333 -10 OFFCURVE",
"384 -10 CURVE SMOOTH",
"492 -10 OFFCURVE",
"582.333 67 OFFCURVE",
"609 175 CURVE",
"600 172 LINE",
"600 30 LINE SMOOTH",
"600 -123.333 OFFCURVE",
"497.667 -218 OFFCURVE",
"383 -218 CURVE SMOOTH",
"312.333 -218 OFFCURVE",
"255.333 -190 OFFCURVE",
"214 -146 CURVE",
"203 -166 LINE",
"245.667 -214 OFFCURVE",
"312 -240 OFFCURVE",
"384 -240 CURVE SMOOTH"
);
},
{
closed = 1;
nodes = (
"247 12 OFFCURVE",
"152 116.667 OFFCURVE",
"152 258 CURVE SMOOTH",
"152 403.333 OFFCURVE",
"246.333 508 OFFCURVE",
"381 508 CURVE SMOOTH",
"506.333 508 OFFCURVE",
"600 404 OFFCURVE",
"600 260 CURVE SMOOTH",
"600 113.333 OFFCURVE",
"505.667 12 OFFCURVE",
"383 12 CURVE SMOOTH"
);
}
);
userData = {
com.schriftgestaltung.Glyphs.glyph.leftMetricsKey = o;
};
width = 893;
},
{
anchors = (
{
name = bottom;
position = "{399, 0}";
},
{
name = top;
position = "{399, 535}";
}
);
layerId = "6D2BDCDA-2583-455F-AF1F-24413162C804";
paths = (
{
closed = 1;
nodes = (
"565 -230 OFFCURVE",
"667 -134.667 OFFCURVE",
"667 32 CURVE SMOOTH",
"667 525 LINE",
"564 525 LINE",
"564 402 LINE",
"586 410 LINE",
"576.667 464.667 OFFCURVE",
"485.667 536 OFFCURVE",
"387 536 CURVE SMOOTH",
"240.333 536 OFFCURVE",
"130 420.333 OFFCURVE",
"130 263 CURVE SMOOTH",
"130 105.667 OFFCURVE",
"240.667 -10 OFFCURVE",
"390 -10 CURVE SMOOTH",
"476.667 -10 OFFCURVE",
"565.667 52.667 OFFCURVE",
"575 114 CURVE",
"564 121 LINE",
"564 20 LINE SMOOTH",
"564 -84 OFFCURVE",
"506.333 -138 OFFCURVE",
"397 -138 CURVE SMOOTH",
"338.333 -138 OFFCURVE",
"274 -117.667 OFFCURVE",
"234 -87 CURVE",
"196 -167 LINE",
"241.333 -204.333 OFFCURVE",
"322.333 -230 OFFCURVE",
"397 -230 CURVE SMOOTH"
);
},
{
closed = 1;
nodes = (
"305 85 OFFCURVE",
"235 160.333 OFFCURVE",
"235 263 CURVE SMOOTH",
"235 365.667 OFFCURVE",
"305 442 OFFCURVE",
"401 442 CURVE SMOOTH",
"498.333 442 OFFCURVE",
"568 367 OFFCURVE",
"568 263 CURVE SMOOTH",
"568 159 OFFCURVE",
"499.667 85 OFFCURVE",
"401 85 CURVE SMOOTH"
);
}
);
width = 867;
}
);
leftKerningGroup = g;
leftMetricsKey = o;
rightKerningGroup = g;
unicode = 0067;
},
{
color = 6;
glyphname = h;
layers = (
{
anchors = (
{
name = bottom;
position = "{508, 0}";
},
{
name = center;
position = "{276, 608}";
},
{
name = top;
position = "{265, 740}";
}
);
layerId = "2433799C-EF5F-488D-8472-913402CB4D17";
paths = (
{
closed = 1;
nodes = (
"220 0 LINE",
"220 0 OFFCURVE",
"237.167 0 OFFCURVE",
"271.5 0 CURVE SMOOTH",
"305.833 0 OFFCURVE",
"323 0 OFFCURVE",
"323 0 CURVE",
"323 278 LINE SMOOTH",
"323 346 OFFCURVE",
"406.333 443 OFFCURVE",
"521 443 CURVE SMOOTH",
"614.333 443 OFFCURVE",
"692 381 OFFCURVE",
"692 293 CURVE SMOOTH",
"692 0 LINE",
"795 0 LINE",
"795 310 LINE SMOOTH",
"795 434 OFFCURVE",
"713.667 536 OFFCURVE",
"555 536 CURVE SMOOTH",
"423 536 OFFCURVE",
"310.333 449.667 OFFCURVE",
"285 375 CURVE",
"323 377 LINE",
"323 740 LINE",
"220 740 LINE",
"220 0 LINE"
);
}
);
width = 1015;
},
{
anchors = (
{
name = bottom;
position = "{501, 0}";
},
{
name = center;
position = "{288, 608}";
},
{
name = top;
position = "{236, 740}";
}
);
layerId = "864D5338-6115-41AC-9646-57C28F89FFCE";
paths = (
{
closed = 1;
nodes = (
"225 0 LINE",
"212.333 0 OFFCURVE",
"215.833 0 OFFCURVE",
"235.5 0 CURVE SMOOTH",
"255.167 0 OFFCURVE",
"259 0 OFFCURVE",
"247 0 CURVE",
"247 343 LINE SMOOTH",
"248.333 393.667 OFFCURVE",
"352.667 514 OFFCURVE",
"498 514 CURVE SMOOTH",
"630 514 OFFCURVE",
"726 433.667 OFFCURVE",
"726 311 CURVE SMOOTH",
"726 0 LINE",
"748 0 LINE",
"748 318 LINE SMOOTH",
"748 438 OFFCURVE",
"655.667 536 OFFCURVE",
"493 536 CURVE SMOOTH",
"359.667 536 OFFCURVE",
"255.667 440 OFFCURVE",
"233 360 CURVE",
"247 364 LINE",
"247 740 LINE",
"225 740 LINE",
"225 0 LINE"
);
}
);
userData = {
com.schriftgestaltung.Glyphs.glyph.leftMetricsKey = n;
com.schriftgestaltung.Glyphs.glyph.rightMetricsKey = n;
};
width = 968;
},
{
anchors = (
{
name = bottom;
position = "{422, 0}";
},
{
name = center;
position = "{229, 593}";
},
{
name = top;
position = "{228, 729}";
}
);
layerId = "63DD228C-6345-4D3B-AA5B-5B558F8D9FC7";
paths = (
{
closed = 1;
nodes = (
"218 0 LINE",
"222.667 0 OFFCURVE",
"226.167 0 OFFCURVE",
"228.5 0 CURVE SMOOTH",
"230.833 0 OFFCURVE",
"234.667 0 OFFCURVE",
"240 0 CURVE",
"240 376 LINE SMOOTH",
"240 417.333 OFFCURVE",
"320.667 508 OFFCURVE",
"434 508 CURVE SMOOTH",
"539.333 508 OFFCURVE",
"599 454.667 OFFCURVE",
"599 328 CURVE SMOOTH",
"599 0 LINE",
"621 0 LINE",
"621 328 LINE SMOOTH",
"621 469.333 OFFCURVE",
"553.333 530 OFFCURVE",
"436 530 CURVE SMOOTH",
"340 530 OFFCURVE",
"253.667 471.333 OFFCURVE",
"231 402 CURVE",
"240 404 LINE",
"240 740 LINE",
"218 740 LINE",
"218 0 LINE"
);
}
);
userData = {
com.schriftgestaltung.Glyphs.glyph.leftMetricsKey = n;
com.schriftgestaltung.Glyphs.glyph.rightMetricsKey = n;
};
width = 909;
},
{
anchors = (
{
name = bottom;
position = "{442, 0}";
},
{
name = center;
position = "{272, 593}";
},
{
name = top;
position = "{271, 729}";
}
);
layerId = "6D2BDCDA-2583-455F-AF1F-24413162C804";
paths = (
{
closed = 1;
nodes = (
"220 0 LINE",
"237.333 0 OFFCURVE",
"254.5 0 OFFCURVE",
"271.5 0 CURVE SMOOTH",
"288.5 0 OFFCURVE",
"305.667 0 OFFCURVE",
"323 0 CURVE",
"323 318 LINE SMOOTH",
"323 387.333 OFFCURVE",
"382.333 442 OFFCURVE",
"461 442 CURVE SMOOTH",
"535.667 446 OFFCURVE",
"572 403.667 OFFCURVE",
"572 313 CURVE SMOOTH",
"572 0 LINE",
"675 0 LINE",
"675 320 LINE SMOOTH",
"675 465.333 OFFCURVE",
"615 536 OFFCURVE",
"495 536 CURVE SMOOTH",
"411 536 OFFCURVE",
"325 474.333 OFFCURVE",
"305 405 CURVE",
"323 417 LINE",
"323 740 LINE",
"220 740 LINE",
"220 0 LINE"
);
}
);
width = 895;
}
);
leftKerningGroup = b;
leftMetricsKey = n;
rightKerningGroup = h;
rightMetricsKey = n;
unicode = 0068;
},
{
color = 6;
glyphname = idotless;
production = dotlessi;
layers = (
{
anchors = (
{
name = bottom;
position = "{252, 0}";
},
{
name = ogonek;
position = "{303, 0}";
},
{
name = top;
position = "{251, 525}";
}
);
layerId = "2433799C-EF5F-488D-8472-913402CB4D17";
paths = (
{
closed = 1;
nodes = (
"200 0 LINE",
"303 0 LINE",
"303 525 LINE",
"200 525 LINE",
"200 0 LINE"
);
}
);
width = 503;
},
{
anchors = (
{
name = bottom;
position = "{209, 0}";
},
{
name = ogonek;
position = "{260, 0}";
},
{
name = top;
position = "{208, 525}";
}
);
layerId = "864D5338-6115-41AC-9646-57C28F89FFCE";
paths = (
{
closed = 1;
nodes = (
"198 0 LINE",
"220 0 LINE",
"220 525 LINE",
"198 525 LINE",
"198 0 LINE"
);
}
);
width = 422;
},
{
anchors = (
{
name = bottom;
position = "{210, 0}";
},
{
name = ogonek;
position = "{226, 10}";
},
{
name = top;
position = "{210, 525}";
}
);
layerId = "63DD228C-6345-4D3B-AA5B-5B558F8D9FC7";
paths = (
{
closed = 1;
nodes = (
"198 0 LINE",
"220 0 LINE",
"220 525 LINE",
"198 525 LINE",
"198 0 LINE"
);
}
);
width = 492;
},
{
anchors = (
{
name = bottom;
position = "{253, 0}";
},
{
name = ogonek;
position = "{337, 10}";
},
{
name = top;
position = "{253, 525}";
}
);
layerId = "6D2BDCDA-2583-455F-AF1F-24413162C804";
paths = (
{
closed = 1;
nodes = (
"200 0 LINE",
"303 0 LINE",
"303 525 LINE",
"200 525 LINE",
"200 0 LINE"
);
}
);
width = 503;
}
);
leftKerningGroup = i;
rightKerningGroup = i;
unicode = 0131;
},
{
color = 6;
glyphname = jdotless;
production = uni0237;
layers = (
{
anchors = (
{
name = bottom;
position = "{255, -230}";
},
{
name = top;
position = "{340, 525}";
}
);
layerId = "2433799C-EF5F-488D-8472-913402CB4D17";
paths = (
{
closed = 1;
nodes = (
"129 -197 LINE",
"275.268 -197 OFFCURVE",
"389 -80.069 OFFCURVE",
"389 106 CURVE SMOOTH",
"389 525 LINE",
"286 525 LINE",
"286 131 LINE SMOOTH",
"286 -15.268 OFFCURVE",
"226.319 -105 OFFCURVE",
"90 -105 CURVE",
"129 -197 LINE"
);
}
);
width = 599;
},
{
anchors = (
{
name = bottom;
position = "{255, -230}";
},
{
name = top;
position = "{340, 525}";
}
);
layerId = "864D5338-6115-41AC-9646-57C28F89FFCE";
paths = (
{
closed = 1;
nodes = (
"144 -194 LINE",
"261.333 -188.667 OFFCURVE",
"350 -100.667 OFFCURVE",
"350 70 CURVE SMOOTH",
"350 525 LINE",
"328 525 LINE",
"328 74 LINE SMOOTH",
"328 -68.667 OFFCURVE",
"265.333 -157.333 OFFCURVE",
"140 -172 CURVE",
"144 -194 LINE"
);
}
);
width = 560;
},
{
anchors = (
{
name = bottom;
position = "{275, 0}";
},
{
name = top;
position = "{262, 531}";
}
);
layerId = "63DD228C-6345-4D3B-AA5B-5B558F8D9FC7";
paths = (
{
closed = 1;
nodes = (
"148 -194 LINE",
"228 -194 OFFCURVE",
"274 -146.667 OFFCURVE",
"274 -60 CURVE SMOOTH",
"274 525 LINE",
"252 525 LINE",
"252 -56 LINE SMOOTH",
"252 -125.333 OFFCURVE",
"222.667 -173 OFFCURVE",
"140 -173 CURVE",
"148 -194 LINE"
);
}
);
width = 560;
},
{
anchors = (
{
name = bottom;
position = "{273, 0}";
},
{
name = top;
position = "{260, 531}";
}
);
layerId = "6D2BDCDA-2583-455F-AF1F-24413162C804";
paths = (
{
closed = 1;
nodes = (
"129 -197 LINE",
"235.667 -197 OFFCURVE",
"309 -126.667 OFFCURVE",
"309 -24 CURVE SMOOTH",
"309 525 LINE",
"206 525 LINE",
"206 1 LINE SMOOTH",
"206 -77.667 OFFCURVE",
"167.333 -118 OFFCURVE",
"90 -118 CURVE",
"129 -197 LINE"
);
}
);
width = 519;
}
);
leftKerningGroup = j;
rightKerningGroup = j;
unicode = 0237;
},
{
color = 6;
glyphname = k;
layers = (
{
anchors = (
{
name = bottom;
position = "{466, 0}";
},
{
name = top;
position = "{466, 740}";
}
);
layerId = "2433799C-EF5F-488D-8472-913402CB4D17";
paths = (
{
closed = 1;
nodes = (
"287 134 LINE",
"812 525 LINE",
"668 525 LINE",
"299 246 LINE",
"287 134 LINE"
);
},
{
closed = 1;
nodes = (
"210 0 LINE",
"303 0 LINE",
"303 740 LINE",
"210 740 LINE",
"210 0 LINE"
);
},
{
closed = 1;
nodes = (
"684 0 LINE",
"816 0 LINE",
"479 358 LINE",
"411 291 LINE",
"684 0 LINE"
);
}
);
width = 941;
},
{
anchors = (
{
name = bottom;
position = "{466, 0}";
},
{
name = top;
position = "{466, 740}";
}
);
layerId = "864D5338-6115-41AC-9646-57C28F89FFCE";
paths = (
{
closed = 1;
nodes = (
"219 157 LINE",
"696 525 LINE",
"661 525 LINE",
"219 184 LINE",
"219 157 LINE"
);
},
{
closed = 1;
nodes = (
"208 0 LINE",
"230 0 LINE",
"230 740 LINE",
"208 740 LINE",
"208 0 LINE"
);
},
{
closed = 1;
nodes = (
"698 0 LINE",
"730 0 LINE",
"422 326 LINE",
"404 311 LINE",
"698 0 LINE"
);
}
);
userData = {
com.schriftgestaltung.Glyphs.glyph.leftMetricsKey = l;
};
width = 854;
},
{
anchors = (
{
name = bottom;
position = "{394, 0}";
},
{
name = top;
position = "{394, 510}";
}
);
layerId = "63DD228C-6345-4D3B-AA5B-5B558F8D9FC7";
paths = (
{
closed = 1;
nodes = (
"222 179 LINE",
"571 525 LINE",
"539 525 LINE",
"222 211 LINE",
"222 179 LINE"
);
},
{
closed = 1;
nodes = (
"208 0 LINE",
"230 0 LINE",
"230 740 LINE",
"208 740 LINE",
"208 0 LINE"
);
},
{
closed = 1;
nodes = (
"574 0 LINE",
"605 0 LINE",
"338 307 LINE",
"321 291 LINE",
"574 0 LINE"
);
}
);
userData = {
com.schriftgestaltung.Glyphs.glyph.leftMetricsKey = l;
};
width = 738;
},
{
anchors = (
{
name = bottom;
position = "{422, 0}";
},
{
name = top;
position = "{422, 510}";
}
);
layerId = "6D2BDCDA-2583-455F-AF1F-24413162C804";
paths = (
{
closed = 1;
nodes = (
"304 164 LINE",
"689 525 LINE",
"550 525 LINE",
"299 276 LINE",
"304 164 LINE"
);
},
{
closed = 1;
nodes = (
"210 0 LINE",
"313 0 LINE",
"313 740 LINE",
"210 740 LINE",
"210 0 LINE"
);
},
{
closed = 1;
nodes = (
"564 0 LINE",
"696 0 LINE",
"439 298 LINE",
"366 231 LINE",
"564 0 LINE"
);
}
);
width = 821;
}
);
leftKerningGroup = b;
leftMetricsKey = l;
rightKerningGroup = k;
unicode = 006B;
},
{
color = 6;
glyphname = kgreenlandic;
layers = (
{
anchors = (
{
name = bottom;
position = "{438, 0}";
},
{
name = top;
position = "{438, 525}";
}
);
layerId = "2433799C-EF5F-488D-8472-913402CB4D17";
paths = (
{
closed = 1;
nodes = (
"299 143 LINE",
"461 275 LINE",
"811 525 LINE",
"660 525 LINE",
"299 240 LINE",
"299 143 LINE"
);
},
{
closed = 1;
nodes = (
"210 0 LINE",
"313 0 LINE",
"313 525 LINE",
"210 525 LINE",
"210 0 LINE"
);
},
{
closed = 1;
nodes = (
"812 -1 LINE",
"495 329 LINE",
"420 282 LINE",
"683 0 LINE",
"812 -1 LINE"
);
}
);
width = 897;
},
{
anchors = (
{
name = bottom;
position = "{438, 0}";
},
{
name = top;
position = "{438, 525}";
}
);
layerId = "864D5338-6115-41AC-9646-57C28F89FFCE";
paths = (
{
closed = 1;
nodes = (
"219 157 LINE",
"420 312 LINE",
"696 525 LINE",
"661 525 LINE",
"219 184 LINE",
"219 157 LINE"
);
},
{
closed = 1;
nodes = (
"208 0 LINE",
"230 0 LINE",
"230 525 LINE",
"208 525 LINE",
"208 0 LINE"
);
},
{
closed = 1;
nodes = (
"698 0 LINE",
"730 0 LINE",
"422 326 LINE",
"404 311 LINE",
"698 0 LINE"
);
}
);
userData = {
com.schriftgestaltung.Glyphs.glyph.leftMetricsKey = l;
com.schriftgestaltung.Glyphs.glyph.rightMetricsKey = v;
};
width = 808;
},
{
anchors = (
{
name = bottom;
position = "{426, 0}";
},
{
name = top;
position = "{426, 510}";
}
);
layerId = "63DD228C-6345-4D3B-AA5B-5B558F8D9FC7";
paths = (
{
closed = 1;
nodes = (
"222 179 LINE",
"336 292 LINE",
"571 525 LINE",
"539 525 LINE",
"222 211 LINE",
"222 179 LINE"
);
},
{
closed = 1;
nodes = (
"208 0 LINE",
"230 0 LINE",
"230 525 LINE",
"208 525 LINE",
"208 0 LINE"
);
},
{
closed = 1;
nodes = (
"574 0 LINE",
"605 0 LINE",
"338 307 LINE",
"321 291 LINE",
"574 0 LINE"
);
}
);
userData = {
com.schriftgestaltung.Glyphs.glyph.leftMetricsKey = l;
com.schriftgestaltung.Glyphs.glyph.rightMetricsKey = v;
};
width = 698;
},
{
anchors = (
{
name = bottom;
position = "{295, 0}";
},
{
name = top;
position = "{295, 510}";
}
);
layerId = "6D2BDCDA-2583-455F-AF1F-24413162C804";
paths = (
{
closed = 1;
nodes = (
"298 154 LINE",
"412 269 LINE",
"665 525 LINE",
"544 525 LINE",
"293 256 LINE",
"298 154 LINE"
);
},
{
closed = 1;
nodes = (
"210 0 LINE",
"307 0 LINE",
"307 525 LINE",
"210 525 LINE",
"210 0 LINE"
);
},
{
closed = 1;
nodes = (
"670 -1 LINE",
"423 319 LINE",
"354 272 LINE",
"547 0 LINE",
"670 -1 LINE"
);
}
);
width = 755;
}
);
leftKerningGroup = b;
leftMetricsKey = l;
rightKerningGroup = k;
rightMetricsKey = v;
unicode = 0138;
},
{
color = 6;
glyphname = l;
layers = (
{
anchors = (
{
name = bottom;
position = "{262, 0}";
},
{
name = center;
position = "{524, 370}";
},
{
name = top;
position = "{262, 740}";
},
{
name = topright;
position = "{503, 740}";
}
);
layerId = "2433799C-EF5F-488D-8472-913402CB4D17";
paths = (
{
closed = 1;
nodes = (
"210 0 LINE",
"313 0 LINE",
"313 740 LINE",
"210 740 LINE",
"210 0 LINE"
);
}
);
width = 523;
},
{
anchors = (
{
name = bottom;
position = "{220, 0}";
},
{
name = center;
position = "{440, 370}";
},
{
name = top;
position = "{219, 740}";
},
{
name = topright;
position = "{438, 700}";
}
);
layerId = "864D5338-6115-41AC-9646-57C28F89FFCE";
paths = (
{
closed = 1;
nodes = (
"208 0 LINE",
"230 0 LINE",
"230 740 LINE",
"208 740 LINE",
"208 0 LINE"
);
}
);
width = 438;
},
{
anchors = (
{
name = bottom;
position = "{219, 0}";
},
{
name = center;
position = "{340, 289}";
},
{
name = top;
position = "{220, 740}";
},
{
name = topright;
position = "{337, 700}";
}
);
layerId = "63DD228C-6345-4D3B-AA5B-5B558F8D9FC7";
paths = (
{
closed = 1;
nodes = (
"208 0 LINE",
"230 0 LINE",
"230 740 LINE",
"208 740 LINE",
"208 0 LINE"
);
}
);
width = 510;
},
{
anchors = (
{
name = bottom;
position = "{260, 0}";
},
{
name = center;
position = "{523, 289}";
},
{
name = top;
position = "{261, 740}";
},
{
name = topright;
position = "{522, 700}";
}
);
layerId = "6D2BDCDA-2583-455F-AF1F-24413162C804";
paths = (
{
closed = 1;
nodes = (
"210 0 LINE",
"313 0 LINE",
"313 740 LINE",
"210 740 LINE",
"210 0 LINE"
);
}
);
width = 523;
}
);
leftKerningGroup = b;
rightKerningGroup = l;
unicode = 006C;
},
{
color = 0;
glyphname = lslash;
layers = (
{
anchors = (
{
name = bottom;
position = "{368, 0}";
},
{
name = center;
position = "{368, 370}";
},
{
name = top;
position = "{368, 740}";
},
{
name = topright;
position = "{609, 740}";
}
);
layerId = "2433799C-EF5F-488D-8472-913402CB4D17";
paths = (
{
closed = 1;
nodes = (
"316 0 LINE",
"419 0 LINE",
"419 740 LINE",
"316 740 LINE",
"316 0 LINE"
);
},
{
closed = 1;
nodes = (
"201 294 LINE",
"575 389 LINE",
"546 478 LINE",
"175 386 LINE",
"201 294 LINE"
);
}
);
width = 750;
},
{
anchors = (
{
name = bottom;
position = "{368, 0}";
},
{
name = center;
position = "{368, 370}";
},
{
name = top;
position = "{368, 740}";
},
{
name = topright;
position = "{609, 740}";
}
);
layerId = "864D5338-6115-41AC-9646-57C28F89FFCE";
paths = (
{
closed = 1;
nodes = (
"195 287 LINE",
"601 399 LINE",
"595 420 LINE",
"188 307 LINE",
"195 287 LINE"
);
},
{
closed = 1;
nodes = (
"379 0 LINE",
"401 0 LINE",
"401 740 LINE",
"379 740 LINE",
"379 0 LINE"
);
}
);
width = 789;
},
{
anchors = (
{
name = bottom;
position = "{298, 0}";
},
{
name = center;
position = "{298, 289}";
},
{
name = top;
position = "{299, 740}";
},
{
name = topright;
position = "{405, 580}";
}
);
layerId = "63DD228C-6345-4D3B-AA5B-5B558F8D9FC7";
paths = (
{
closed = 1;
nodes = (
"196 283 LINE",
"460 404 LINE",
"452 425 LINE",
"188 304 LINE",
"196 283 LINE"
);
},
{
closed = 1;
nodes = (
"313 0 LINE",
"335 0 LINE",
"335 740 LINE",
"313 740 LINE",
"313 0 LINE"
);
}
);
width = 658;
},
{
anchors = (
{
name = bottom;
position = "{120, 0}";
},
{
name = center;
position = "{120, 289}";
},
{
name = top;
position = "{121, 740}";
},
{
name = topright;
position = "{227, 580}";
}
);
layerId = "6D2BDCDA-2583-455F-AF1F-24413162C804";
paths = (
{
closed = 1;
nodes = (
"250 0 LINE",
"353 0 LINE",
"353 740 LINE",
"250 740 LINE",
"250 0 LINE"
);
},
{
closed = 1;
nodes = (
"209 292 LINE",
"434 394 LINE",
"398 468 LINE",
"175 369 LINE",
"209 292 LINE"
);
}
);
width = 609;
}
);
unicode = 0142;
},
{
color = 6;
glyphname = m;
layers = (
{
anchors = (
{
name = bottom;
position = "{723, 0}";
},
{
name = top;
position = "{723, 525}";
}
);
layerId = "2433799C-EF5F-488D-8472-913402CB4D17";
paths = (
{
closed = 1;
nodes = (
"200 0 LINE",
"304 0 LINE",
"304 276 LINE SMOOTH",
"304 342.667 OFFCURVE",
"384 439 OFFCURVE",
"496 439 CURVE SMOOTH",
"612 439 OFFCURVE",
"659 377.667 OFFCURVE",
"659 291 CURVE SMOOTH",
"659 0 LINE",
"763 0 LINE",
"763 254 LINE SMOOTH",
"763 355.333 OFFCURVE",
"858.333 439 OFFCURVE",
"981 439 CURVE SMOOTH",
"1081 439 OFFCURVE",
"1121 377 OFFCURVE",
"1121 289 CURVE SMOOTH",
"1121 0 LINE",
"1225 0 LINE",
"1225 305 LINE SMOOTH",
"1225 430.333 OFFCURVE",
"1170.333 534 OFFCURVE",
"997 534 CURVE SMOOTH",
"865 534 OFFCURVE",
"761.667 442 OFFCURVE",
"727 394 CURVE",
"720 377 LINE",
"756 369 LINE",
"748 481 OFFCURVE",
"656.333 534 OFFCURVE",
"547 534 CURVE SMOOTH",
"392.333 534 OFFCURVE",
"287.667 439.667 OFFCURVE",
"265 381 CURVE",
"304 373 LINE",
"304 525 LINE",
"200 525 LINE",
"200 0 LINE"
);
}
);
width = 1425;
},
{
anchors = (
{
name = bottom;
position = "{723, 0}";
},
{
name = top;
position = "{723, 525}";
}
);
layerId = "864D5338-6115-41AC-9646-57C28F89FFCE";
paths = (
{
closed = 1;
nodes = (
"196 0 LINE",
"218 0 LINE",
"218 343 LINE SMOOTH",
"219.333 393.667 OFFCURVE",
"321.667 514 OFFCURVE",
"463 514 CURVE SMOOTH",
"591 514 OFFCURVE",
"683 433.667 OFFCURVE",
"683 311 CURVE SMOOTH",
"683 0 LINE",
"705 0 LINE",
"705 338 LINE SMOOTH",
"705 407.333 OFFCURVE",
"814.667 514 OFFCURVE",
"944 514 CURVE SMOOTH",
"1072 514 OFFCURVE",
"1164 433.667 OFFCURVE",
"1164 311 CURVE SMOOTH",
"1164 0 LINE",
"1186 0 LINE",
"1186 318 LINE SMOOTH",
"1186 438 OFFCURVE",
"1096.333 536 OFFCURVE",
"939 536 CURVE SMOOTH",
"821.667 536 OFFCURVE",
"729.333 467.333 OFFCURVE",
"688 374 CURVE",
"695 368 LINE",
"701 368 LINE",
"661 482.667 OFFCURVE",
"582 536 OFFCURVE",
"458 536 CURVE SMOOTH",
"344.667 536 OFFCURVE",
"257.667 473.333 OFFCURVE",
"203 368 CURVE",
"218 363 LINE",
"216 525 LINE",
"196 525 LINE",
"196 0 LINE"
);
}
);
width = 1381;
},
{
anchors = (
{
name = bottom;
position = "{574, 0}";
},
{
name = top;
position = "{574, 510}";
}
);
layerId = "63DD228C-6345-4D3B-AA5B-5B558F8D9FC7";
paths = (
{
closed = 1;
nodes = (
"196 0 LINE",
"218 0 LINE",
"218 376 LINE SMOOTH",
"218 417.333 OFFCURVE",
"295.667 508 OFFCURVE",
"405 508 CURVE SMOOTH",
"506.333 508 OFFCURVE",
"563 454.667 OFFCURVE",
"563 328 CURVE SMOOTH",
"563 0 LINE",
"585 0 LINE",
"585 364 LINE SMOOTH",
"585 428 OFFCURVE",
"661 508 OFFCURVE",
"765 508 CURVE SMOOTH",
"866.333 508 OFFCURVE",
"923 454.667 OFFCURVE",
"923 328 CURVE SMOOTH",
"923 0 LINE",
"945 0 LINE",
"945 328 LINE SMOOTH",
"945 469.333 OFFCURVE",
"880.333 530 OFFCURVE",
"767 530 CURVE SMOOTH",
"684.333 530 OFFCURVE",
"606.667 487.333 OFFCURVE",
"572 406 CURVE SMOOTH",
"566 389 LINE",
"578 395 LINE",
"556.667 495 OFFCURVE",
"492.333 530 OFFCURVE",
"407 530 CURVE SMOOTH",
"324.333 530 OFFCURVE",
"253.333 492 OFFCURVE",
"204 396 CURVE",
"219 393 LINE",
"216 525 LINE",
"196 525 LINE",
"196 0 LINE"
);
}
);
width = 1203;
},
{
anchors = (
{
name = bottom;
position = "{593, 0}";
},
{
name = top;
position = "{593, 510}";
}
);
layerId = "6D2BDCDA-2583-455F-AF1F-24413162C804";
paths = (
{
closed = 1;
nodes = (
"200 0 LINE",
"304 0 LINE",
"304 316 LINE SMOOTH",
"304 385.333 OFFCURVE",
"361.333 439 OFFCURVE",
"436 439 CURVE SMOOTH",
"502.667 439 OFFCURVE",
"539 393.667 OFFCURVE",
"539 311 CURVE SMOOTH",
"539 0 LINE",
"643 0 LINE",
"643 314 LINE SMOOTH",
"643 384.667 OFFCURVE",
"700 439 OFFCURVE",
"776 439 CURVE SMOOTH",
"848 439 OFFCURVE",
"881 398.333 OFFCURVE",
"881 309 CURVE SMOOTH",
"881 0 LINE",
"985 0 LINE",
"985 315 LINE SMOOTH",
"985 461.667 OFFCURVE",
"927.333 534 OFFCURVE",
"810 534 CURVE SMOOTH",
"736.667 534 OFFCURVE",
"656.333 481.333 OFFCURVE",
"627 420 CURVE SMOOTH",
"620 403 LINE",
"636 399 LINE",
"616 488.333 OFFCURVE",
"559.667 534 OFFCURVE",
"469 534 CURVE SMOOTH",
"386.333 534 OFFCURVE",
"305 470.333 OFFCURVE",
"285 401 CURVE",
"304 413 LINE",
"304 525 LINE",
"200 525 LINE",
"200 0 LINE"
);
}
);
width = 1185;
}
);
leftKerningGroup = m;
rightKerningGroup = h;
unicode = 006D;
},
{
color = 6;
glyphname = n;
layers = (
{
anchors = (
{
name = bottom;
position = "{508, 0}";
},
{
name = top;
position = "{528, 525}";
}
);
layerId = "2433799C-EF5F-488D-8472-913402CB4D17";
paths = (
{
closed = 1;
nodes = (
"220 0 LINE",
"220 0 OFFCURVE",
"237.167 0 OFFCURVE",
"271.5 0 CURVE SMOOTH",
"305.833 0 OFFCURVE",
"323 0 OFFCURVE",
"323 0 CURVE",
"323 278 LINE SMOOTH",
"323 346 OFFCURVE",
"406.333 440 OFFCURVE",
"521 440 CURVE SMOOTH",
"614.333 440 OFFCURVE",
"692 379.667 OFFCURVE",
"692 293 CURVE SMOOTH",
"692 0 LINE",
"795 0 LINE",
"795 310 LINE SMOOTH",
"795 434 OFFCURVE",
"710.333 536 OFFCURVE",
"545 536 CURVE SMOOTH",
"418.333 536 OFFCURVE",
"330.333 449.667 OFFCURVE",
"285 375 CURVE",
"323 377 LINE",
"323 525 LINE",
"220 525 LINE",
"220 0 LINE"
);
}
);
width = 1015;
},
{
anchors = (
{
name = bottom;
position = "{470, 0}";
},
{
name = top;
position = "{490, 525}";
}
);
layerId = "864D5338-6115-41AC-9646-57C28F89FFCE";
paths = (
{
closed = 1;
nodes = (
"218 0 LINE",
"223.333 0 OFFCURVE",
"227.167 0 OFFCURVE",
"229.5 0 CURVE SMOOTH",
"231.833 0 OFFCURVE",
"235.333 0 OFFCURVE",
"240 0 CURVE",
"240 343 LINE SMOOTH",
"241.333 393.667 OFFCURVE",
"345.667 514 OFFCURVE",
"491 514 CURVE SMOOTH",
"623 514 OFFCURVE",
"719 433.667 OFFCURVE",
"719 311 CURVE SMOOTH",
"719 0 LINE",
"741 0 LINE",
"741 318 LINE SMOOTH",
"741 438 OFFCURVE",
"648.667 536 OFFCURVE",
"486 536 CURVE SMOOTH",
"352.667 536 OFFCURVE",
"248.667 440 OFFCURVE",
"226 360 CURVE",
"240 364 LINE",
"238 525 LINE",
"218 525 LINE",
"218 0 LINE"
);
}
);
width = 961;
},
{
anchors = (
{
name = bottom;
position = "{433, 0}";
},
{
name = top;
position = "{433, 510}";
}
);
layerId = "63DD228C-6345-4D3B-AA5B-5B558F8D9FC7";
paths = (
{
closed = 1;
nodes = (
"218 0 LINE",
"222.667 0 OFFCURVE",
"226.167 0 OFFCURVE",
"228.5 0 CURVE SMOOTH",
"230.833 0 OFFCURVE",
"234.667 0 OFFCURVE",
"240 0 CURVE",
"240 376 LINE SMOOTH",
"240 417.333 OFFCURVE",
"320.667 508 OFFCURVE",
"434 508 CURVE SMOOTH",
"539.333 508 OFFCURVE",
"599 454.667 OFFCURVE",
"599 328 CURVE SMOOTH",
"599 0 LINE",
"621 0 LINE",
"621 328 LINE SMOOTH",
"621 469.333 OFFCURVE",
"553.333 530 OFFCURVE",
"436 530 CURVE SMOOTH",
"338.667 530 OFFCURVE",
"252.333 470.333 OFFCURVE",
"231 401 CURVE",
"240 404 LINE",
"238 525 LINE",
"218 525 LINE",
"218 0 LINE"
);
}
);
width = 909;
},
{
anchors = (
{
name = bottom;
position = "{444, 0}";
},
{
name = top;
position = "{444, 510}";
}
);
layerId = "6D2BDCDA-2583-455F-AF1F-24413162C804";
paths = (
{
closed = 1;
nodes = (
"220 0 LINE",
"237.333 0 OFFCURVE",
"254.5 0 OFFCURVE",
"271.5 0 CURVE SMOOTH",
"288.5 0 OFFCURVE",
"305.667 0 OFFCURVE",
"323 0 CURVE",
"323 318 LINE SMOOTH",
"323 387.333 OFFCURVE",
"382.333 442 OFFCURVE",
"461 442 CURVE SMOOTH",
"535.667 446 OFFCURVE",
"572 403.667 OFFCURVE",
"572 313 CURVE SMOOTH",
"572 0 LINE",
"675 0 LINE",
"675 320 LINE SMOOTH",
"675 465.333 OFFCURVE",
"615 536 OFFCURVE",
"495 536 CURVE SMOOTH",
"411 536 OFFCURVE",
"325 474.333 OFFCURVE",
"305 405 CURVE",
"323 417 LINE",
"323 525 LINE",
"220 525 LINE",
"220 0 LINE"
);
}
);
width = 895;
}
);
leftKerningGroup = m;
rightKerningGroup = h;
unicode = 006E;
},
{
color = 6;
glyphname = nhookleft;
production = uni0272;
layers = (
{
anchors = (
{
name = bottom;
position = "{584, 0}";
},
{
name = top;
position = "{604, 525}";
}
);
layerId = "2433799C-EF5F-488D-8472-913402CB4D17";
paths = (
{
closed = 1;
nodes = (
"296 0 LINE",
"318.667 0 OFFCURVE",
"335.833 0 OFFCURVE",
"347.5 0 CURVE SMOOTH",
"359.167 0 OFFCURVE",
"376.333 0 OFFCURVE",
"399 0 CURVE",
"399 278 LINE SMOOTH",
"399 346 OFFCURVE",
"482.333 440 OFFCURVE",
"597 440 CURVE SMOOTH",
"690.333 440 OFFCURVE",
"768 379.667 OFFCURVE",
"768 293 CURVE SMOOTH",
"768 0 LINE",
"871 0 LINE",
"871 310 LINE SMOOTH",
"871 434 OFFCURVE",
"786.333 536 OFFCURVE",
"621 536 CURVE SMOOTH",
"494.333 536 OFFCURVE",
"406.333 449.667 OFFCURVE",
"361 375 CURVE",
"399 377 LINE",
"399 525 LINE",
"296 525 LINE",
"296 0 LINE"
);
},
{
closed = 1;
nodes = (
"129 -197 LINE",
"281 -197 OFFCURVE",
"399 -130.333 OFFCURVE",
"399 -25 CURVE SMOOTH",
"399 14 LINE",
"296 5 LINE",
"296 0 LINE SMOOTH",
"296 -32.667 OFFCURVE",
"279.5 -58.333 OFFCURVE",
"246.5 -77 CURVE SMOOTH",
"213.5 -95.667 OFFCURVE",
"161.333 -105 OFFCURVE",
"90 -105 CURVE",
"129 -197 LINE"
);
}
);
width = 1091;
},
{
anchors = (
{
name = bottom;
position = "{597, 0}";
},
{
name = top;
position = "{617, 525}";
}
);
layerId = "864D5338-6115-41AC-9646-57C28F89FFCE";
paths = (
{
closed = 1;
nodes = (
"292 0 LINE",
"297.333 0 OFFCURVE",
"301.167 0 OFFCURVE",
"303.5 0 CURVE SMOOTH",
"305.833 0 OFFCURVE",
"309.333 0 OFFCURVE",
"314 0 CURVE",
"314 343 LINE SMOOTH",
"315.333 393.667 OFFCURVE",
"419.667 508 OFFCURVE",
"565 508 CURVE SMOOTH",
"697 508 OFFCURVE",
"793 433.667 OFFCURVE",
"793 311 CURVE SMOOTH",
"793 0 LINE",
"815 0 LINE",
"815 318 LINE SMOOTH",
"815 438 OFFCURVE",
"722.667 530 OFFCURVE",
"560 530 CURVE SMOOTH",
"426.667 530 OFFCURVE",
"322.667 440 OFFCURVE",
"300 360 CURVE",
"314 364 LINE",
"312 525 LINE",
"292 525 LINE",
"292 0 LINE"
);
},
{
closed = 1;
nodes = (
"98 -194 LINE",
"223.333 -194 OFFCURVE",
"314 -150.333 OFFCURVE",
"314 -61 CURVE SMOOTH",
"314 9 LINE",
"292 5 LINE",
"292 -57 LINE SMOOTH",
"292 -137 OFFCURVE",
"214 -172 OFFCURVE",
"90 -172 CURVE",
"98 -194 LINE"
);
}
);
userData = {
com.schriftgestaltung.Glyphs.glyph.leftMetricsKey = j;
com.schriftgestaltung.Glyphs.glyph.rightMetricsKey = n;
};
width = 1035;
},
{
anchors = (
{
name = bottom;
position = "{450, 0}";
},
{
name = top;
position = "{450, 510}";
}
);
layerId = "63DD228C-6345-4D3B-AA5B-5B558F8D9FC7";
paths = (
{
closed = 1;
nodes = (
"202 0 LINE",
"206.667 0 OFFCURVE",
"210.167 0 OFFCURVE",
"212.5 0 CURVE SMOOTH",
"214.833 0 OFFCURVE",
"218.667 0 OFFCURVE",
"224 0 CURVE",
"224 376 LINE SMOOTH",
"224 417.333 OFFCURVE",
"304.667 508 OFFCURVE",
"418 508 CURVE SMOOTH",
"523.333 508 OFFCURVE",
"583 454.667 OFFCURVE",
"583 328 CURVE SMOOTH",
"583 0 LINE",
"605 0 LINE",
"605 328 LINE SMOOTH",
"605 469.333 OFFCURVE",
"537.333 530 OFFCURVE",
"420 530 CURVE SMOOTH",
"322.667 530 OFFCURVE",
"236.333 470.333 OFFCURVE",
"215 401 CURVE",
"224 404 LINE",
"222 525 LINE",
"202 525 LINE",
"202 0 LINE"
);
},
{
closed = 1;
nodes = (
"98 -194 LINE",
"178 -194 OFFCURVE",
"224 -146.667 OFFCURVE",
"224 -60 CURVE SMOOTH",
"224 10 LINE",
"202 5 LINE",
"202 -56 LINE SMOOTH",
"202 -125.333 OFFCURVE",
"172.667 -173 OFFCURVE",
"90 -173 CURVE",
"98 -194 LINE"
);
}
);
userData = {
com.schriftgestaltung.Glyphs.glyph.leftMetricsKey = j;
com.schriftgestaltung.Glyphs.glyph.rightMetricsKey = n;
};
width = 893;
},
{
anchors = (
{
name = bottom;
position = "{324, 0}";
},
{
name = top;
position = "{324, 510}";
}
);
layerId = "6D2BDCDA-2583-455F-AF1F-24413162C804";
paths = (
{
closed = 1;
nodes = (
"212 0 LINE",
"229.333 0 OFFCURVE",
"246.5 0 OFFCURVE",
"263.5 0 CURVE SMOOTH",
"280.5 0 OFFCURVE",
"297.667 0 OFFCURVE",
"315 0 CURVE",
"315 318 LINE SMOOTH",
"315 387.333 OFFCURVE",
"374.333 442 OFFCURVE",
"453 442 CURVE SMOOTH",
"527.667 446 OFFCURVE",
"564 403.667 OFFCURVE",
"564 313 CURVE SMOOTH",
"564 0 LINE",
"667 0 LINE",
"667 320 LINE SMOOTH",
"667 465.333 OFFCURVE",
"607 536 OFFCURVE",
"487 536 CURVE SMOOTH",
"403 536 OFFCURVE",
"317 474.333 OFFCURVE",
"297 405 CURVE",
"315 417 LINE",
"315 525 LINE",
"212 525 LINE",
"212 0 LINE"
);
},
{
closed = 1;
nodes = (
"135 -197 LINE",
"241.667 -197 OFFCURVE",
"315 -126.667 OFFCURVE",
"315 -24 CURVE SMOOTH",
"315 25 LINE",
"212 8 LINE",
"212 1 LINE SMOOTH",
"212 -77.667 OFFCURVE",
"173.333 -118 OFFCURVE",
"96 -118 CURVE",
"135 -197 LINE"
);
}
);
width = 887;
}
);
leftMetricsKey = j;
rightKerningGroup = h;
rightMetricsKey = n;
unicode = 0272;
},
{
color = 6;
glyphname = eng;
layers = (
{
anchors = (
{
name = bottom;
position = "{497, 0}";
},
{
name = top;
position = "{506, 510}";
}
);
layerId = "2433799C-EF5F-488D-8472-913402CB4D17";
paths = (
{
closed = 1;
nodes = (
"545 -197 LINE",
"686.333 -197 OFFCURVE",
"795 -130.333 OFFCURVE",
"795 -25 CURVE SMOOTH",
"795 310 LINE SMOOTH",
"795 434 OFFCURVE",
"710.333 536 OFFCURVE",
"545 536 CURVE SMOOTH",
"447.667 536 OFFCURVE",
"372.333 484.333 OFFCURVE",
"323 427 CURVE",
"323 525 LINE",
"220 525 LINE",
"220 0 LINE",
"323 0 LINE",
"323 278 LINE SMOOTH",
"323 346 OFFCURVE",
"406.333 440 OFFCURVE",
"521 440 CURVE SMOOTH",
"614.333 440 OFFCURVE",
"692 379.667 OFFCURVE",
"692 293 CURVE SMOOTH",
"692 0 LINE SMOOTH",
"692 -65.333 OFFCURVE",
"635.333 -105 OFFCURVE",
"506 -105 CURVE",
"545 -197 LINE"
);
}
);
width = 1015;
},
{
anchors = (
{
name = bottom;
position = "{497, 0}";
},
{
name = top;
position = "{506, 510}";
}
);
layerId = "864D5338-6115-41AC-9646-57C28F89FFCE";
paths = (
{
closed = 1;
nodes = (
"545 -194 LINE",
"659.667 -194 OFFCURVE",
"741 -150.333 OFFCURVE",
"741 -61 CURVE SMOOTH",
"741 318 LINE SMOOTH",
"741 438 OFFCURVE",
"648.667 530 OFFCURVE",
"486 530 CURVE SMOOTH",
"371.333 530 OFFCURVE",
"277.333 462.333 OFFCURVE",
"240 393 CURVE",
"238 525 LINE",
"218 525 LINE",
"218 0 LINE",
"240 0 LINE",
"240 343 LINE SMOOTH",
"241.333 393.667 OFFCURVE",
"345.667 508 OFFCURVE",
"491 508 CURVE SMOOTH",
"623 508 OFFCURVE",
"719 433.667 OFFCURVE",
"719 311 CURVE SMOOTH",
"719 -56 LINE SMOOTH",
"720.333 -138.667 OFFCURVE",
"651 -172 OFFCURVE",
"539 -172 CURVE",
"545 -194 LINE"
);
}
);
userData = {
com.schriftgestaltung.Glyphs.glyph.leftMetricsKey = n;
com.schriftgestaltung.Glyphs.glyph.rightMetricsKey = n;
};
width = 961;
},
{
anchors = (
{
name = bottom;
position = "{434, 0}";
},
{
name = top;
position = "{443, 510}";
}
);
layerId = "63DD228C-6345-4D3B-AA5B-5B558F8D9FC7";
paths = (
{
closed = 1;
nodes = (
"495 -194 LINE",
"575 -194 OFFCURVE",
"621 -146.667 OFFCURVE",
"621 -60 CURVE SMOOTH",
"621 328 LINE SMOOTH",
"621 469.333 OFFCURVE",
"553.333 530 OFFCURVE",
"436 530 CURVE SMOOTH",
"357.333 530 OFFCURVE",
"289.333 497.333 OFFCURVE",
"240 420 CURVE",
"238 525 LINE",
"218 525 LINE",
"218 0 LINE",
"240 0 LINE",
"240 376 LINE SMOOTH",
"240 417.333 OFFCURVE",
"320.667 508 OFFCURVE",
"434 508 CURVE SMOOTH",
"539.333 508 OFFCURVE",
"599 454.667 OFFCURVE",
"599 328 CURVE SMOOTH",
"599 -56 LINE SMOOTH",
"599 -125.333 OFFCURVE",
"569.667 -173 OFFCURVE",
"487 -173 CURVE",
"495 -194 LINE"
);
}
);
userData = {
com.schriftgestaltung.Glyphs.glyph.leftMetricsKey = n;
com.schriftgestaltung.Glyphs.glyph.rightMetricsKey = n;
};
width = 909;
},
{
anchors = (
{
name = bottom;
position = "{286, 0}";
},
{
name = top;
position = "{295, 510}";
}
);
layerId = "6D2BDCDA-2583-455F-AF1F-24413162C804";
paths = (
{
closed = 1;
nodes = (
"495 -197 LINE",
"601.667 -197 OFFCURVE",
"675 -126.667 OFFCURVE",
"675 -24 CURVE SMOOTH",
"675 320 LINE SMOOTH",
"675 465.333 OFFCURVE",
"615 536 OFFCURVE",
"495 536 CURVE SMOOTH",
"427 536 OFFCURVE",
"357.667 495 OFFCURVE",
"323 443 CURVE",
"323 525 LINE",
"220 525 LINE",
"220 0 LINE",
"323 0 LINE",
"323 318 LINE SMOOTH",
"323 387.333 OFFCURVE",
"382.333 442 OFFCURVE",
"461 442 CURVE SMOOTH",
"535.667 446 OFFCURVE",
"572 403.667 OFFCURVE",
"572 313 CURVE SMOOTH",
"572 0 LINE SMOOTH",
"570.667 -77.333 OFFCURVE",
"532 -118 OFFCURVE",
"456 -118 CURVE",
"495 -197 LINE"
);
}
);
width = 895;
}
);
leftKerningGroup = m;
leftMetricsKey = n;
rightKerningGroup = h;
rightMetricsKey = n;
unicode = 014B;
},
